<svg xmlns="http://www.w3.org/2000/svg" xmlns:xlink="http://www.w3.org/1999/xlink" viewBox="0 0 402.14 389.6"><defs><style>.cls-1{isolation:isolate;}.cls-2{fill:url(#Áåçûìÿííûé_ãðàäèåíò_27);}.cls-3{fill:#b31800;}.cls-4{fill:#ff745d;}.cls-5{fill:#fad793;}.cls-6{fill:#d3b16d;}.cls-7{fill:#d9bb80;}.cls-8{fill:#bf9963;}.cls-9{fill:#c9bcad;}.cls-25,.cls-30,.cls-57,.cls-9{mix-blend-mode:multiply;}.cls-10{fill:#4f4334;}.cls-11{fill:#8d7c55;}.cls-12{fill:#991400;}.cls-13{fill:#871200;}.cls-14{fill:#cf4630;}.cls-15{fill:#edf7ff;}.cls-16{fill:url(#Áåçûìÿííûé_ãðàäèåíò_27-2);}.cls-17{fill:url(#Áåçûìÿííûé_ãðàäèåíò_27-3);}.cls-18{fill:#b81200;}.cls-19{fill:#c42912;}.cls-20{fill:#a60000;}.cls-21{fill:#a81c00;}.cls-22{fill:#8f0000;}.cls-23{fill:#d12d00;}.cls-24{fill:#e04704;}.cls-25{fill:#de4800;}.cls-26{fill:#ff4530;}.cls-27{fill:#bd1806;}.cls-28{fill:#cf2f1d;}.cls-29{fill:#ff8b6b;}.cls-30{fill:#c70000;}.cls-31{fill:#fff;}.cls-32{fill:url(#Áåçûìÿííûé_ãðàäèåíò_30);}.cls-33{fill:#17353d;}.cls-34{fill:url(#Áåçûìÿííûé_ãðàäèåíò_31);}.cls-35{fill:url(#Áåçûìÿííûé_ãðàäèåíò_770);}.cls-36{fill:url(#Áåçûìÿííûé_ãðàäèåíò_30-2);}.cls-37{fill:url(#Áåçûìÿííûé_ãðàäèåíò_27-4);}.cls-38{fill:url(#Áåçûìÿííûé_ãðàäèåíò_138);}.cls-39{fill:#e6efec;}.cls-40{fill:#b9c9c2;}.cls-41{fill:#c7d6d0;}.cls-42{fill:#a6b3ae;}.cls-43{fill:#96a7a0;}.cls-44{fill:#cbdad4;}.cls-45{fill:#d6e6df;}.cls-46{fill:#2c8aa3;}.cls-47{fill:#04060d;}.cls-48{fill:#dbedff;}.cls-49{fill:#e9f3f7;}.cls-50{fill:#b4a1e0;}.cls-51{fill:#63a1e0;}.cls-52{fill:#ffcf7e;}.cls-53{fill:#95c465;}.cls-54{fill:#63c7e0;}.cls-55{fill:#ff867e;}.cls-56{fill:#737d7d;}.cls-57{fill:#a4b8ba;}.cls-58{fill:#ff473d;}.cls-59{fill:#c70a00;}.cls-60{fill:#fffcdc;}.cls-61{fill:#a30800;}.cls-62{fill:#e8e6c7;}.cls-63{fill:url(#Áåçûìÿííûé_ãðàäèåíò_27-5);}.cls-64{fill:#1f1f1f;}.cls-65{fill:#2a2a2a;}.cls-66{fill:#1d1d1d;}.cls-67{fill:#3b3b3b;}.cls-68{fill:#ff4f4f;}.cls-69{fill:#d12700;}.cls-70{fill:#e9eae7;}.cls-71{fill:#ff8372;}.cls-72{fill:#b01300;}.cls-73{fill:#990f0f;}.cls-74{fill:#c4c4c4;}.cls-75{fill:#828282;}.cls-76{fill:#ca0d00;}.cls-77{fill:#ff644f;}.cls-78{fill:#ffc123;}.cls-79{fill:#d92800;}.cls-80{fill:#e0e0e0;}.cls-81{fill:#b8b8b8;}.cls-82{fill:#aeaeae;}.cls-83{fill:#9e9e9e;}.cls-84{fill:#b1b1b1;}.cls-85{fill:url(#Áåçûìÿííûé_ãðàäèåíò_25);}.cls-86{fill:url(#Áåçûìÿííûé_ãðàäèåíò_38);}</style><linearGradient id="Áåçûìÿííûé_ãðàäèåíò_27" x1="307.54" y1="220.93" x2="340.21" y2="277.52" gradientUnits="userSpaceOnUse"><stop offset="0" stop-color="#cfc2ba"/><stop offset="0.55" stop-color="#baaea8"/><stop offset="0.92" stop-color="#b3a7a1"/></linearGradient><linearGradient id="Áåçûìÿííûé_ãðàäèåíò_27-2" x1="286.19" y1="290.58" x2="311.07" y2="333.67" xlink:href="#Áåçûìÿííûé_ãðàäèåíò_27"/><linearGradient id="Áåçûìÿííûé_ãðàäèåíò_27-3" x1="276.23" y1="276.85" x2="301.12" y2="319.96" xlink:href="#Áåçûìÿííûé_ãðàäèåíò_27"/><linearGradient id="Áåçûìÿííûé_ãðàäèåíò_30" x1="297.72" y1="289.11" x2="302.49" y2="280.85" gradientUnits="userSpaceOnUse"><stop offset="0.16" stop-color="#ad0700"/><stop offset="0.16" stop-color="#d42626"/><stop offset="0.56" stop-color="#d42626"/><stop offset="0.56" stop-color="#ffb6a3"/><stop offset="0.87" stop-color="#ffb6a3"/><stop offset="0.87" stop-color="#ff9e8f"/></linearGradient><linearGradient id="Áåçûìÿííûé_ãðàäèåíò_31" x1="298.67" y1="269.21" x2="308.62" y2="286.44" gradientUnits="userSpaceOnUse"><stop offset="0.16" stop-color="#283036"/><stop offset="0.16" stop-color="#364349"/><stop offset="0.56" stop-color="#364349"/><stop offset="0.56" stop-color="#3e4d55"/><stop offset="0.87" stop-color="#3e4d55"/><stop offset="0.87" stop-color="#344147"/></linearGradient><linearGradient id="Áåçûìÿííûé_ãðàäèåíò_770" x1="337.76" y1="303.12" x2="310.53" y2="255.95" gradientUnits="userSpaceOnUse"><stop offset="0.4" stop-color="#364349"/><stop offset="0.41" stop-color="#3e4d55"/><stop offset="0.95" stop-color="#3e4d55"/><stop offset="0.95" stop-color="#344147"/></linearGradient><linearGradient id="Áåçûìÿííûé_ãðàäèåíò_30-2" x1="332.25" y1="309.06" x2="337.02" y2="300.8" xlink:href="#Áåçûìÿííûé_ãðàäèåíò_30"/><linearGradient id="Áåçûìÿííûé_ãðàäèåíò_27-4" x1="0" y1="241.33" x2="306.19" y2="241.33" xlink:href="#Áåçûìÿííûé_ãðàäèåíò_27"/><linearGradient id="Áåçûìÿííûé_ãðàäèåíò_138" x1="205.74" y1="291.2" x2="294.42" y2="291.2" gradientUnits="userSpaceOnUse"><stop offset="0.16" stop-color="#97a6a2"/><stop offset="0.16" stop-color="#b7c9c5"/><stop offset="0.56" stop-color="#b7c9c5"/><stop offset="0.56" stop-color="#c3d6d1"/><stop offset="0.87" stop-color="#c3d6d1"/><stop offset="0.87" stop-color="#b5c7c3"/></linearGradient><linearGradient id="Áåçûìÿííûé_ãðàäèåíò_27-5" x1="106.05" y1="291.14" x2="642.19" y2="747.72" xlink:href="#Áåçûìÿííûé_ãðàäèåíò_27"/><linearGradient id="Áåçûìÿííûé_ãðàäèåíò_25" x1="162.77" y1="251.43" x2="165.47" y2="256.1" gradientUnits="userSpaceOnUse"><stop offset="0.13" stop-color="#ff4747"/><stop offset="0.13" stop-color="#f25555"/><stop offset="0.44" stop-color="#f25555"/><stop offset="0.44" stop-color="#c23226"/><stop offset="0.84" stop-color="#c23226"/><stop offset="0.84" stop-color="#961e1e"/></linearGradient><linearGradient id="Áåçûìÿííûé_ãðàäèåíò_38" x1="172.24" y1="259.12" x2="173.23" y2="260.84" gradientUnits="userSpaceOnUse"><stop offset="0.13" stop-color="#e7e8e9"/><stop offset="0.13" stop-color="#dbdbdb"/><stop offset="0.44" stop-color="#dbdbdb"/><stop offset="0.44" stop-color="#a9aaab"/><stop offset="0.84" stop-color="#a9aaab"/><stop offset="0.84" stop-color="#7e7f80"/></linearGradient></defs><title>2</title><g class="cls-1"><g id="Layer_2" data-name="Layer 2"><g id="Layer_1-2" data-name="Layer 1"><polygon class="cls-2" points="374.46 262.03 364.04 268.05 362.15 269.14 356.49 272.41 356.47 272.42 355.3 273.1 353.4 274.19 348.82 276.84 347.95 277.35 346.75 278.04 343.74 279.77 341.44 281.1 340.83 281.45 327.86 288.94 285 256.7 321.83 235.12 348.06 246.79 348.72 247.17 351.21 248.61 354.62 250.58 355.3 250.97 356.3 251.55 358.41 252.77 361.53 254.57 362.55 255.16 363.91 255.94 368.83 258.79 370.61 259.81 374.46 262.03"/><polygon class="cls-3" points="353.85 304.01 339.99 291.82 327.85 288.95 333.88 214.73 342.59 217.05 348.79 223.1 353.85 304.01"/><polygon class="cls-4" points="402.14 276.21 353.85 304.01 348.79 223.1 397.02 195.34 402.14 276.21"/><polygon class="cls-5" points="382.1 186.97 333.81 214.78 342.59 217.05 348.79 223.1 397.02 195.34 386.27 191.87 382.1 186.97"/><polygon class="cls-6" points="343.07 216.19 336.29 214.44 381.89 188.19 385.72 192.69 394.69 195.59 348.94 221.92 343.07 216.19"/><polygon class="cls-7" points="381.99 188.31 381.89 188.19 336.29 214.44 343.07 216.19 348.94 221.92 381.03 203.45 381.99 188.31"/><polygon class="cls-8" points="385.72 192.69 385.25 201.03 381.03 203.45 381.89 188.19 385.72 192.69"/><polygon class="cls-9" points="394.69 195.59 385.44 197.69 381.46 196.64 344.61 217.7 348.94 221.92 394.69 195.59"/><path class="cls-10" d="M385.82,213.86h0a2.59,2.59,0,0,1-.05.54,2.71,2.71,0,0,1-.71,1.5.92.92,0,0,1-.33.21.48.48,0,0,1-.33,0c-.29,0-.51-.28-.65-.66a.61.61,0,0,1-.05-.18,3.06,3.06,0,0,1,0-1.25,3.44,3.44,0,0,1,.25-.84,1.65,1.65,0,0,1,.79-.88.75.75,0,0,1,.33,0C385.51,212.39,385.82,213,385.82,213.86Z"/><path class="cls-11" d="M385.11,214.37a2.09,2.09,0,0,0-.49-2l.08,0a.64.64,0,0,1,.33,0c.58.09.91,1,.74,2.1a2.23,2.23,0,0,1-1,1.71.75.75,0,0,1-.33,0,.64.64,0,0,1-.25-.12A2.3,2.3,0,0,0,385.11,214.37Z"/><path class="cls-10" d="M363.12,227.43s0,0,0,.06a2.31,2.31,0,0,1-1.05,1.72H362a.71.71,0,0,1-.29,0,.78.78,0,0,1-.52-.41,1.56,1.56,0,0,1-.11-.26,2.34,2.34,0,0,1-.13-1l0-.43a3.23,3.23,0,0,1,.11-.47,1.86,1.86,0,0,1,.93-1.23.54.54,0,0,1,.33,0C362.94,225.49,363.27,226.4,363.12,227.43Z"/><path class="cls-11" d="M362.44,227.46a2.08,2.08,0,0,0-.48-2l.08,0a.63.63,0,0,1,.33,0c.58.1.91,1,.74,2.1a2.21,2.21,0,0,1-1.05,1.71.54.54,0,0,1-.33,0,.62.62,0,0,1-.25-.11A2.35,2.35,0,0,0,362.44,227.46Z"/><polygon class="cls-12" points="342.59 217.05 341.46 282 353.85 304.01 348.79 223.1 342.59 217.05"/><polygon class="cls-13" points="341.46 282 327.85 288.95 339.99 291.82 353.85 304.01 341.46 282"/><path class="cls-14" d="M374.52,255.14a6,6,0,0,1-3-.75c-4.27-2.37-5.26-9.77-6-15.17-.19-1.41-.36-2.63-.55-3.58a9.06,9.06,0,0,0-3-5.55,2.38,2.38,0,0,1-.83-2.48l.07-.28c.18,0,4.44,1.21,5.8,7.89.21,1,.38,2.27.57,3.72.67,5,1.58,11.76,4.92,13.61,1.34.74,3,.64,5.12-.31,7.48-3.38,8.95-18,8.12-27-.43-4.52-1.13-7-1.67-8.05a4.67,4.67,0,0,1-.53-2.06v-.71c1.72,0,2.73,2,3.6,6.08,2,9.14,1.45,29.05-8.67,33.62A9.92,9.92,0,0,1,374.52,255.14Z"/><path class="cls-15" d="M381.16,250.05a11.46,11.46,0,0,1-4.69,1.13,7.54,7.54,0,0,1-3.53-.85c-5.28-2.7-7-11.21-7.95-15.79l0-.18c-.64-3.14-2-4.54-2.94-5.14a3,3,0,0,0-.81-.39,1.56,1.56,0,0,1-.11-.26,2.34,2.34,0,0,1-.13-1l0-.43a3.23,3.23,0,0,1,.11-.47,5,5,0,0,1,2,.77c1.4.88,3.12,2.71,3.89,6.51l0,.19c.86,4.22,2.47,12.09,6.84,14.34,1.8.91,3.88.8,6.41-.33,7.76-3.51,9.76-17.67,7.78-26.28-.67-2.91-1.73-5-3-6a2.9,2.9,0,0,0-1.36-.6,3.06,3.06,0,0,1,0-1.25,3.44,3.44,0,0,1,.25-.84,4.47,4.47,0,0,1,1.91.64h0c1.93,1.16,3.45,3.77,4.31,7.52C392.22,230.51,390.25,246,381.16,250.05Z"/><polygon class="cls-16" points="338.35 305.6 291.33 332.88 255.01 311.9 302.02 284.62 338.35 305.6"/><polygon class="cls-17" points="307.27 304.21 302.51 306.81 266.18 285.83 270.94 283.24 307.27 304.21"/><polygon class="cls-18" points="304.95 324.13 298.57 330.05 315.17 339.17 312.33 343.52 292.15 331.86 288.8 315.56 304.95 324.13"/><path class="cls-19" d="M347.56,327.78l-27,15.77a7,7,0,0,1-7,0l-17.07-9.86a2.84,2.84,0,0,1,0-4.92l27-15.76a7,7,0,0,1,7,0l17.07,9.86A2.83,2.83,0,0,1,347.56,327.78Z"/><polygon class="cls-20" points="348.21 323.42 331.5 313.6 346.68 304.43 352.57 304 348.21 323.42"/><path class="cls-18" d="M319.33,345.17a6.9,6.9,0,0,1-6.9,0l-1-15.84-.22-3.31h7.95l0,3.21Z"/><path class="cls-21" d="M290,331.31a1.57,1.57,0,0,0,.8,1.38l.69.4-4.38-22.57-.8-.6-1,.09Z"/><path class="cls-20" d="M312.69,307.57l0,.36-.22,3a2.09,2.09,0,0,1-1,1.66l-1.07.62-.05,0a1.13,1.13,0,0,1-.77.14,1.15,1.15,0,0,1-.06-.17,1.27,1.27,0,0,1,0-.34l.36-5.05-1.38.13-1,.09-.18,4.5-2.88-1.67.1-2.56-1.49.12-.94.08v1l-1.5-.87-4,.36-10.23.91-1,.09.17.79.2.86.74,3.37L290,331.3a1.59,1.59,0,0,0,.79,1.39l.7.4,20.93,12.09-.36-5.6-.67-10.24-.2-3V326l.69-6.3.22-2,.27-2.34.23-2.17.57-5.25.05-.41ZM295.43,332.4a1.18,1.18,0,0,1-.7-.15l-1.08-.63a2.1,2.1,0,0,1-1-1.6l-2.08-11.46a1.14,1.14,0,0,1,.1-.64,1.18,1.18,0,0,1,.72.15l1.07.63a2.07,2.07,0,0,1,1,1.59l2.08,11.47A1.07,1.07,0,0,1,295.43,332.4Zm5.31,3a1.19,1.19,0,0,1-.7-.15l-1.13-.66a2.07,2.07,0,0,1-1-1.68l-1.6-11.14a.46.46,0,1,1,.82-.43l1.13.65a2.08,2.08,0,0,1,1,1.68l1.61,11.14A1.14,1.14,0,0,1,300.74,335.44Zm5.31,3a1,1,0,0,1-.71-.15l-1.16-.66a2.07,2.07,0,0,1-1-1.77L302,325.07a1,1,0,0,1,.13-.53,1.19,1.19,0,0,1,.7.15l1.17.68a2.1,2.1,0,0,1,1,1.77l1.12,10.8A1.12,1.12,0,0,1,306.05,338.47Zm5.42,2.56a1.11,1.11,0,0,1-.13.49,1.08,1.08,0,0,1-.69-.15l-1.21-.7a2.07,2.07,0,0,1-1-1.85l-.63-10.48a1.11,1.11,0,0,1,.12-.49,1.22,1.22,0,0,1,.71.15l1.21.71a2.08,2.08,0,0,1,1,1.85Z"/><path class="cls-22" d="M291.5,333.09l-.69-.4a1.61,1.61,0,0,1-.8-1.39L286.4,315l-1.1-5,1-.1.8.6,1.07,5.55Z"/><path class="cls-23" d="M323,338.51l-.22-9.95a2.07,2.07,0,0,1,1-1.85l1.21-.7a1,1,0,0,1,.29-.11.58.58,0,0,1,.26,0,1.06,1.06,0,0,1,.24,0,1.36,1.36,0,0,1,.08.39l.22,10a2.11,2.11,0,0,1-1,1.85l-1.21.71a1.31,1.31,0,0,1-.79.14A.91.91,0,0,1,323,338.51Zm5.27-3.09.12-10.18a2.08,2.08,0,0,1,1-1.79l1.18-.68a.82.82,0,0,1,.28-.11.79.79,0,0,1,.25-.05.76.76,0,0,1,.26,0,1.49,1.49,0,0,1,.08.43l-.12,10.19a2.06,2.06,0,0,1-1,1.78l-1.17.69a1.32,1.32,0,0,1-.79.14A1.23,1.23,0,0,1,328.3,335.42Zm5.35-2.65a1.36,1.36,0,0,1,0-.17.8.8,0,0,1,0-.27l.44-10.41a2.09,2.09,0,0,1,1-1.73l1.14-.66a1.48,1.48,0,0,1,.29-.12,1,1,0,0,1,.24,0,1.14,1.14,0,0,1,.26,0,1.39,1.39,0,0,1,.08.46l-.44,10.43a2.09,2.09,0,0,1-1,1.72l-1.14.67a1.23,1.23,0,0,1-.79.13A0,0,0,0,1,333.65,332.77Zm5.28-3.06a.85.85,0,0,1,0-.17.75.75,0,0,1,0-.3l.76-10.66a2,2,0,0,1,1-1.64l1.11-.65a1,1,0,0,1,.29-.12.75.75,0,0,1,.26,0,.9.9,0,0,1,.24,0,1.37,1.37,0,0,1,.08.51l-.78,10.64a2,2,0,0,1-1,1.66l-1.11.65a1.24,1.24,0,0,1-.78.14A0,0,0,0,1,338.93,329.71Zm5.27-3a1.29,1.29,0,0,1,0-.19.58.58,0,0,1,0-.32l1.09-10.89a2.07,2.07,0,0,1,1-1.59l1.07-.62a1.07,1.07,0,0,1,.79-.14,1.33,1.33,0,0,1,.08.54l-1.1,10.88a2.08,2.08,0,0,1-1,1.6l-1.08.62a1.1,1.1,0,0,1-.78.14S344.2,326.67,344.2,326.66Zm-3.73-21.57-5.42.49L320,306.91l-1.19.12-.43,0,0,.87,0,1.41.24,5.69,0,.73h0l.07,1.72.34,8.53v.28l0,2.93.13,13.64,0,2.3,30.89-17.93a1.56,1.56,0,0,0,.8-1.38l3.64-17.12.72-3.37.2-.88.16-.77Z"/><path class="cls-24" d="M354.81,302.13l-4.63-2.68-2.3-1.32-18-10.43a8.05,8.05,0,0,0-4-1.06,8,8,0,0,0-4,1.07l-1.9,1.11-26.84,15.57-2.31,1.34-4.63,2.68a1.88,1.88,0,0,0-.74,2.39,1.69,1.69,0,0,0,.75.81l19.88,11.48,4.25,2.46.84.48a7.55,7.55,0,0,0,2.85,1,2.82,2.82,0,0,0,.43.05H316l.13,0a.12.12,0,0,0,.08,0,8,8,0,0,0,2.91-1l.85-.48L336,316.22l18.79-10.9a1.77,1.77,0,0,0,.75-.83,2.06,2.06,0,0,0,.16-.77A1.82,1.82,0,0,0,354.81,302.13Zm-55.57,5.78a2,2,0,0,1,.8-.82l1.17-.68a1,1,0,0,1,.29-.12,1,1,0,0,1,.24-.05l.26,0a1.36,1.36,0,0,1,.08.42l0,1.83v1l-1.5-.87Zm5.25.4.11-2.76a2.11,2.11,0,0,1,1-1.73l1.14-.65a.85.85,0,0,1,.28-.12,1,1,0,0,1,.29-.05,1.46,1.46,0,0,1,.22,0h0a1.33,1.33,0,0,1,.08.45l-.2,4.55-.18,4.5-2.89-1.67Zm14.3-11.23-1.1,10.85v0a2.15,2.15,0,0,1-1,1.61l-1.09.62a1.21,1.21,0,0,1-.78.14v0a.61.61,0,0,1-.05-.18,1.15,1.15,0,0,1,0-.32l.18-1.86.91-9a2.05,2.05,0,0,1,1-1.59l1.07-.63a1.18,1.18,0,0,1,.46-.15h.33A1.44,1.44,0,0,1,318.79,297.08Zm-5.65,2.71a1.33,1.33,0,0,1,.08.49l-.53,7.29,0,.36-.22,3a2.05,2.05,0,0,1-1,1.66l-1.07.62-.05,0a1.13,1.13,0,0,1-.77.14.49.49,0,0,1-.06-.17.91.91,0,0,1,0-.33l.35-5.06.41-5.6a2.07,2.07,0,0,1,1-1.65l1.1-.64a1.17,1.17,0,0,1,.6-.17s.07,0,.09,0,0,0,0,0Z"/><path class="cls-25" d="M355.74,303.72l-.16.77-.2.88-.72,3.37-15.76,9.14-18.6,10.78a10.73,10.73,0,0,1-1.12.57,10.25,10.25,0,0,1-7.77.11,8.79,8.79,0,0,1-1.38-.67l-6.79-3.92-15.05-8.68-1.79-1-.73-3.37-.2-.86-.17-.78,1-.1,10.23-.91,4-.36,1.5.87v-1l.95-.08,1.49-.13-.11,2.56,2.89,1.67.18-4.5,1-.09,1.37-.13-.35,5.06a.91.91,0,0,0,0,.33.49.49,0,0,0,.06.17,1.13,1.13,0,0,0,.77-.14l.05,0,1.07-.62a2.05,2.05,0,0,0,1-1.66l.22-3,0-.36.53-.05-.05.41-.58,5.26-.23,2.17-.26,2.34-.22,2-.69,6.29h7.95l-.34-8.53-.07-1.72h0l0-.73-.24-5.69,0-1.41,0-.87.43,0,1.19-.12,15.06-1.33,5.42-.49Z"/><path class="cls-26" d="M355.73,292.67l-7.56.67L331,283.42a10.23,10.23,0,0,0-10.26,0L315,286.79h0L295.68,298l-10.37.92-2.31.2h0v8.46h0a4.08,4.08,0,0,0,2.06,3.78l.6.34,20.11,11.62,4.25,2.45.32.17a6.13,6.13,0,0,0,.86.41l.2.07a.73.73,0,0,0,.19.07c.21.08.42.15.64.21,0,0,0,0,.05,0l.24.08.09,0s0,0,.08,0l.46.11a8,8,0,0,0,1.38.16h1.21l.25,0h0a4.39,4.39,0,0,0,.61-.07,2.38,2.38,0,0,0,.37-.06h0a8.28,8.28,0,0,0,1.81-.51,1.63,1.63,0,0,0,.31-.11l.14-.07a5.85,5.85,0,0,0,.71-.35,3.07,3.07,0,0,0,.31-.16l16.05-9.32,19-11,.6-.35a4.06,4.06,0,0,0,2-3.3h0v-9.26Zm-56.49,15.24a2,2,0,0,1,.8-.82l1.17-.68a1,1,0,0,1,.29-.12,1,1,0,0,1,.24-.05l.26,0a1.36,1.36,0,0,1,.08.42l0,1.83v1l-1.5-.87Zm10.56-.09.41-5.6a2.07,2.07,0,0,1,1-1.65l1.1-.64a1.17,1.17,0,0,1,.6-.17s.07,0,.09,0,0,0,0,0h.07a1.33,1.33,0,0,1,.08.49l-.53,7.29,0,.36-.22,3a2.05,2.05,0,0,1-1,1.66l-1.07.62-.05,0a1.13,1.13,0,0,1-.77.14.49.49,0,0,1-.06-.17.91.91,0,0,1,0-.33Zm9-10.74-1.1,10.85v0a2.15,2.15,0,0,1-1,1.61l-1.09.62a1.21,1.21,0,0,1-.78.14v0a.61.61,0,0,1-.05-.18,1.15,1.15,0,0,1,0-.32l.18-1.86.91-9a2.05,2.05,0,0,1,1-1.59l1.07-.63a1.18,1.18,0,0,1,.46-.15h.33A1.44,1.44,0,0,1,318.79,297.08Zm-14.3,11.23.11-2.76a2.11,2.11,0,0,1,1-1.73l1.14-.65a.85.85,0,0,1,.28-.12,1,1,0,0,1,.29-.05,1.46,1.46,0,0,1,.22,0h0a1.33,1.33,0,0,1,.08.45l-.2,4.55-.18,4.5-2.89-1.67Z"/><path class="cls-27" d="M314.94,286.79,295.68,298l-10.37.92-2.31.2h0v8.46h0a4.08,4.08,0,0,0,2.06,3.78l.6.34,20.11,11.62,4.25,2.45.32.17a6.13,6.13,0,0,0,.86.41l.2.07a.73.73,0,0,0,.19.07c.21.08.42.15.64.21,0,0,0,0,.05,0l.24.08.09,0a5.29,5.29,0,0,0,.54.13,8,8,0,0,0,1.38.16h1.21l.25,0h0a4.39,4.39,0,0,0,.61-.07,2.38,2.38,0,0,0,.37-.06h0a8.28,8.28,0,0,0,1.81-.51l.31-.12h0l.14,0a5.85,5.85,0,0,0,.71-.35V286.79Zm3.85,10.29-1.1,10.85v0a2.15,2.15,0,0,1-1,1.61l-1.09.62a1.21,1.21,0,0,1-.78.14v0a.61.61,0,0,1-.05-.18,1.15,1.15,0,0,1,0-.32l.18-1.86.91-9a2.05,2.05,0,0,1,1-1.59l1.07-.63a1.18,1.18,0,0,1,.46-.15h.33A1.44,1.44,0,0,1,318.79,297.08Zm-5.65,2.71a1.33,1.33,0,0,1,.08.49l-.53,7.29,0,.36-.22,3a2.05,2.05,0,0,1-1,1.66l-1.07.62-.05,0a1.13,1.13,0,0,1-.77.14.49.49,0,0,1-.06-.17.91.91,0,0,1,0-.33l.35-5.06.41-5.6a2.07,2.07,0,0,1,1-1.65l1.1-.64a1.17,1.17,0,0,1,.6-.17s.07,0,.09,0,0,0,0,0ZM307.57,303a1.33,1.33,0,0,1,.08.45l-.2,4.55-.18,4.5-2.89-1.67.11-2.56.11-2.76a2.11,2.11,0,0,1,1-1.73l1.14-.65a.85.85,0,0,1,.28-.12,1,1,0,0,1,.29-.05,1.46,1.46,0,0,1,.22,0Zm-5.49,3.65,0,1.83v1l-1.5-.87-1.3-.74a2,2,0,0,1,.8-.82l1.17-.68a1,1,0,0,1,.29-.12,1,1,0,0,1,.24-.05l.26,0A1.36,1.36,0,0,1,302.08,306.69Z"/><path class="cls-28" d="M320,307.93v17.95a5.85,5.85,0,0,1-.71.35l-.14,0h0l-.31.12a8.28,8.28,0,0,1-1.81.51l-.39.07c-.14,0-.28,0-.4,0a.12.12,0,0,1-.08,0,2.07,2.07,0,0,1-.35,0h0l-.59,0h0l-.61,0h-.07A2.82,2.82,0,0,1,314,327a8.69,8.69,0,0,1-1.34-.21l-.41-.12s0,0-.05,0c-.22-.06-.43-.13-.64-.21a.73.73,0,0,1-.19-.07,1.89,1.89,0,0,1-.21-.09,8.19,8.19,0,0,1-.85-.39V313.22l1.07-.62a2.05,2.05,0,0,0,1-1.66l.22-3h2.24l-.18,1.86a1.15,1.15,0,0,0,0,.32.61.61,0,0,0,.05.18v0a1.21,1.21,0,0,0,.78-.14l1.09-.62a2.15,2.15,0,0,0,1-1.61v0Z"/><path class="cls-29" d="M356,288.9l-25-14.42a10.23,10.23,0,0,0-10.26,0l-35.68,20.69a4.15,4.15,0,0,0,0,7.19l5.77,3.35,5.71,3.28L310,316.8l.32.17a10.27,10.27,0,0,0,1.75.73,9.81,9.81,0,0,0,2.51.45h0a9.85,9.85,0,0,0,4.18-.66A8.86,8.86,0,0,0,320,317a3.07,3.07,0,0,1,.31-.17l7.93-4.61h0l12.23-7.09,9.71-5.64,5.8-3.37A4.1,4.1,0,0,0,358,292.5v0A4.09,4.09,0,0,0,356,288.9Zm-44.55,23.7-1.07.62-.05,0a1.13,1.13,0,0,1-.77.14.49.49,0,0,1-.06-.17.91.91,0,0,1,0-.33l.35-5.06.41-5.6a2.07,2.07,0,0,1,1-1.65l1.1-.64a1.17,1.17,0,0,1,.6-.17s.07,0,.09,0,0,0,0,0h.07a1.33,1.33,0,0,1,.08.49l-.53,7.29,0,.36-.22,3A2.05,2.05,0,0,1,311.42,312.6Zm3.48-4.67.91-9a2.05,2.05,0,0,1,1-1.59l1.07-.63a1.18,1.18,0,0,1,.46-.15h.33a1.44,1.44,0,0,1,.08.55l-1.1,10.85v0a2.15,2.15,0,0,1-1,1.61l-1.09.62a1.21,1.21,0,0,1-.78.14v0a.61.61,0,0,1-.05-.18,1.15,1.15,0,0,1,0-.32Zm-14.36.72-1.3-.74a2,2,0,0,1,.8-.82l1.17-.68a1,1,0,0,1,.29-.12,1,1,0,0,1,.24-.05l.26,0a1.36,1.36,0,0,1,.08.42l0,1.83v1Zm3.84,2.22.11-2.56.11-2.76a2.11,2.11,0,0,1,1-1.73l1.14-.65a.85.85,0,0,1,.28-.12,1,1,0,0,1,.29-.05,1.46,1.46,0,0,1,.22,0h0a1.33,1.33,0,0,1,.08.45l-.2,4.55-.18,4.5Z"/><path class="cls-18" d="M355.52,291.62l-.1-.16a.84.84,0,0,0-.15-.18,1.66,1.66,0,0,0-.46-.39l-25-14.41a8,8,0,0,0-8,0l-35.68,20.7a1.78,1.78,0,0,0-.91,1.6.38.38,0,0,0,0,.1.34.34,0,0,0,0,.14,1.1,1.1,0,0,0,0,.18.23.23,0,0,0,0,.11,1.28,1.28,0,0,0,.19.44,1.12,1.12,0,0,0,.16.22,1.92,1.92,0,0,0,.5.42l6.93,4,.07,0,2.87,1.66,3.15,1.82a2.12,2.12,0,0,1,.79-.81l1.18-.68a1,1,0,0,1,.29-.12,1,1,0,0,1,.24-.05l.26,0a1.36,1.36,0,0,1,.08.42l0,1.83v1l.95.54,1.39.81.11-2.56.11-2.76a2.09,2.09,0,0,1,1-1.73l1.14-.66a1.08,1.08,0,0,1,.28-.11,1,1,0,0,1,.29-.05,1.46,1.46,0,0,1,.22,0h0a1.33,1.33,0,0,1,.08.45l-.2,4.55-.18,4.5.94.54,2.13,1.24.85.48a8,8,0,0,0,4,1.06,8,8,0,0,0,3.54-.83l.45-.24.85-.48,15.06-8.73,12.76-7.42.07,0,6.94-4a1.55,1.55,0,0,0,.28-.2,1.71,1.71,0,0,0,.2-.18,1.74,1.74,0,0,0,.2-.3c0-.06.06-.13.09-.18a1.34,1.34,0,0,0,.11-.4.45.45,0,0,0,0-.11.15.15,0,0,0,0-.06.59.59,0,0,0,0-.17A2,2,0,0,0,355.52,291.62Zm-42.83,15.95,0,.36-.22,3a2.05,2.05,0,0,1-1,1.66l-1.08.62,0,0a1.14,1.14,0,0,1-.77.14.58.58,0,0,1-.06-.17.91.91,0,0,1,0-.33l.35-5.06.41-5.6a2.06,2.06,0,0,1,1-1.65l1.11-.65a1.26,1.26,0,0,1,.6-.16h.12a.11.11,0,0,1,.07,0,1.33,1.33,0,0,1,.08.49Zm5,.36v0a2.14,2.14,0,0,1-1,1.61l-1.08.62a1.21,1.21,0,0,1-.78.14s0,0,0,0a1.16,1.16,0,0,1,0-.18.91.91,0,0,1,0-.33l.18-1.85.91-9a2.05,2.05,0,0,1,1-1.59l1.07-.63a1.18,1.18,0,0,1,.46-.15h.33a1.44,1.44,0,0,1,.08.55Z"/><path class="cls-20" d="M336.64,280.4l-8.3-1.5.59,12.46.64,17.39,25-14.53L355,291l-.14-.09Z"/><path class="cls-28" d="M286.22,300.38l7,4.05,28.67-16.64a8,8,0,0,1,8,0l18,10.38,7-4.06a1.83,1.83,0,0,0,.92-1.6,1.81,1.81,0,0,0-.92-1.6l-25-14.42a7.91,7.91,0,0,0-8,0l-35.68,20.7a1.82,1.82,0,0,0-.92,1.6A1.8,1.8,0,0,0,286.22,300.38Z"/><path class="cls-30" d="M355.52,291.62l-.1-.16a.84.84,0,0,0-.15-.18l-20.06-3.71a14.08,14.08,0,0,0-9.51,1.61l-29.61,16.9,3.15,1.82a2.12,2.12,0,0,1,.79-.81l1.18-.68a1,1,0,0,1,.29-.12,1,1,0,0,1,.24-.05l.26,0a1.36,1.36,0,0,1,.08.42l0,1.83v1l.95.54,1.39.81.11-2.56.11-2.76a2.09,2.09,0,0,1,1-1.73l1.14-.66a1.08,1.08,0,0,1,.28-.11,1,1,0,0,1,.29-.05,1.46,1.46,0,0,1,.22,0h0a1.33,1.33,0,0,1,.08.45l-.2,4.55-.18,4.5.94.54,2.13,1.24.85.48a8,8,0,0,0,4,1.06,8,8,0,0,0,3.54-.83l.45-.24.85-.48,15.06-8.73,12.76-7.42.07,0,6.94-4a1.55,1.55,0,0,0,.28-.2,1.71,1.71,0,0,0,.2-.18,1.74,1.74,0,0,0,.2-.3c0-.06.06-.13.09-.18a1.34,1.34,0,0,0,.11-.4.45.45,0,0,0,0-.11.15.15,0,0,0,0-.06.59.59,0,0,0,0-.17A2,2,0,0,0,355.52,291.62Zm-42.83,15.95,0,.36-.22,3a2.05,2.05,0,0,1-1,1.66l-1.08.62,0,0a1.14,1.14,0,0,1-.77.14.58.58,0,0,1-.06-.17.91.91,0,0,1,0-.33l.35-5.06.41-5.6a2.06,2.06,0,0,1,1-1.65l1.11-.65a1.26,1.26,0,0,1,.6-.16h.12a.11.11,0,0,1,.07,0,1.33,1.33,0,0,1,.08.49Zm5,.36v0a2.14,2.14,0,0,1-1,1.61l-1.08.62a1.21,1.21,0,0,1-.78.14s0,0,0,0a1.16,1.16,0,0,1,0-.18.91.91,0,0,1,0-.33l.18-1.85.91-9a2.05,2.05,0,0,1,1-1.59l1.07-.63a1.18,1.18,0,0,1,.46-.15h.33a1.44,1.44,0,0,1,.08.55Z"/><path class="cls-29" d="M348.13,312.91a1.33,1.33,0,0,1,.08.54l-1.1,10.88a2.08,2.08,0,0,1-1,1.6l-1.08.62a1.1,1.1,0,0,1-.78.14,1.18,1.18,0,0,0,1.71.62l1.09-.63a2.06,2.06,0,0,0,1-1.59l1.1-10.89A1.17,1.17,0,0,0,348.13,312.91Zm-5.57,3.24a1.37,1.37,0,0,1,.08.51l-.78,10.64a2,2,0,0,1-1,1.66l-1.11.65a1.24,1.24,0,0,1-.78.14,1.19,1.19,0,0,0,1.71.61l1.11-.64a2.11,2.11,0,0,0,1-1.66l.76-10.65A1.18,1.18,0,0,0,342.56,316.15ZM337,319.39a1.39,1.39,0,0,1,.08.46l-.44,10.43a2.09,2.09,0,0,1-1,1.72l-1.14.67a1.23,1.23,0,0,1-.79.13,1.19,1.19,0,0,0,1.72.61l1.14-.65a2.06,2.06,0,0,0,1-1.73l.44-10.42A1.18,1.18,0,0,0,337,319.39Zm-5.57,3.24a1.49,1.49,0,0,1,.08.43l-.12,10.19a2.06,2.06,0,0,1-1,1.78l-1.17.69a1.32,1.32,0,0,1-.79.14,1.19,1.19,0,0,0,1.72.61l1.18-.68a2.14,2.14,0,0,0,1-1.79l.1-10.18A1.18,1.18,0,0,0,331.42,322.63Zm-4.56,4.4a1.18,1.18,0,0,0-1-1.16,1.36,1.36,0,0,1,.08.39l.22,10a2.11,2.11,0,0,1-1,1.85l-1.21.71a1.31,1.31,0,0,1-.79.14,1.19,1.19,0,0,0,1.72.61l1.21-.71a2.06,2.06,0,0,0,1-1.84Z"/><path class="cls-29" d="M318.71,296.53a1.44,1.44,0,0,1,.08.55l-1.1,10.85v0a2.15,2.15,0,0,1-1,1.61l-1.09.62a1.21,1.21,0,0,1-.78.14,1.2,1.2,0,0,0,1.72.61l1.08-.62a2.14,2.14,0,0,0,.86-1,2.29,2.29,0,0,0,.17-.62l.08-.79.09-.9.92-9.19A1.19,1.19,0,0,0,318.71,296.53Zm-5.57,3.26a1.33,1.33,0,0,1,.08.49l-.53,7.29,0,.36-.22,3a2.05,2.05,0,0,1-1,1.66l-1.07.62-.05,0a1.13,1.13,0,0,1-.77.14,1.18,1.18,0,0,0,.82.73,1.09,1.09,0,0,0,.9-.12l1.1-.64.24-.16a2,2,0,0,0,.79-1.49l.28-3.77.49-6.89A1.18,1.18,0,0,0,313.14,299.79ZM307.57,303a1.33,1.33,0,0,1,.08.45l-.2,4.55-.18,4.5.94.54.22-5.13.15-3.7A1.16,1.16,0,0,0,307.57,303ZM302,306.27a1.36,1.36,0,0,1,.08.42l0,1.83v1l.95.54v-2.6A1.17,1.17,0,0,0,302,306.27Z"/><path class="cls-31" d="M313.07,299.78h.07S313.09,299.76,313.07,299.78Z"/><path class="cls-29" d="M311.34,341.52a1.18,1.18,0,0,1-1.67.53l-1.21-.7a2.07,2.07,0,0,1-1-1.85L306.79,329a1.2,1.2,0,0,1,1.1-1.17,1.11,1.11,0,0,0-.12.49l.63,10.48a2.07,2.07,0,0,0,1,1.85l1.21.7A1.08,1.08,0,0,0,311.34,341.52Z"/><path class="cls-29" d="M306.05,338.47a1.2,1.2,0,0,1-1.69.54l-1.16-.67a2.07,2.07,0,0,1-1-1.77L301,325.75a1.2,1.2,0,0,1,1.11-1.21,1,1,0,0,0-.13.53l1.12,10.82a2.07,2.07,0,0,0,1,1.77l1.16.66A1,1,0,0,0,306.05,338.47Z"/><path class="cls-29" d="M300.74,335.44a1.19,1.19,0,0,1-1.68.53l-1.13-.66a2.07,2.07,0,0,1-1-1.68l-1.6-11.14a1.19,1.19,0,0,1,1.09-1.26,1.14,1.14,0,0,0-.11.58l1.6,11.14a2.07,2.07,0,0,0,1,1.68l1.13.66A1.19,1.19,0,0,0,300.74,335.44Z"/><path class="cls-29" d="M295.43,332.4a1.19,1.19,0,0,1-1.68.53l-1.08-.64a2.07,2.07,0,0,1-1-1.59l-2.08-11.47a1.18,1.18,0,0,1,1.08-1.31,1.14,1.14,0,0,0-.1.64L292.62,330a2.1,2.1,0,0,0,1,1.6l1.08.63A1.18,1.18,0,0,0,295.43,332.4Z"/><path class="cls-32" d="M298.42,289.51l5.77-6.07c0-.78,1.17-.66.69-1.14a20.38,20.38,0,0,0-2.29-1.37A2.74,2.74,0,0,0,300,281l-.27.16a6.19,6.19,0,0,0-3.08,5.36v1.91Z"/><path class="cls-26" d="M305.94,285.15v-.67a2.77,2.77,0,0,0-4.16-2.4l-.27.16a6.2,6.2,0,0,0-3.09,5.35v1.92Z"/><path class="cls-33" d="M335,307h-3.46V283.43a4.42,4.42,0,0,0-2.21-3.82l-23-13.21a2.71,2.71,0,0,0-4.06,2.36v21.32l-3.46-2v-19.3A6.18,6.18,0,0,1,308,263.4L331,276.61a7.88,7.88,0,0,1,3.95,6.82Z"/><path class="cls-34" d="M303.52,266.41a2.68,2.68,0,0,0-1.35,2.35v21.32l3.08-1.7V267.07a2.78,2.78,0,0,1,.19-1A2.66,2.66,0,0,0,303.52,266.41Z"/><path class="cls-35" d="M334.09,274.92l-23-13.21a6.11,6.11,0,0,0-6.17,0c-1.28.75-2.78,1.2-3.65,2.07a5.57,5.57,0,0,1,.57-.37,6.09,6.09,0,0,1,6.16,0L331,276.61a7.88,7.88,0,0,1,3.95,6.82v21.85H338V281.74A7.88,7.88,0,0,0,334.09,274.92Z"/><path class="cls-36" d="M333,309.46l5.77-6.07c0-.78,1.17-.65.69-1.14a20.25,20.25,0,0,0-2.28-1.37,2.76,2.76,0,0,0-2.57.12l-.27.15a6.19,6.19,0,0,0-3.08,5.36v1.92Z"/><path class="cls-26" d="M340.47,305.1v-.67a2.77,2.77,0,0,0-4.16-2.4l-.27.16a6.2,6.2,0,0,0-3.09,5.36v1.91Z"/><path class="cls-20" d="M335.72,307.05c-.54-.31-.54-1.3,0-2.22s1.39-1.41,1.92-1.1.54,1.3,0,2.22S336.25,307.36,335.72,307.05Z"/><path class="cls-33" d="M336.23,307.1a2,2,0,0,0,1.43-1.12c.49-.84.51-1.75,0-2a.6.6,0,0,0-.29-.08A2,2,0,0,0,336,305a2.61,2.61,0,0,0-.38,1.24.82.82,0,0,0,.33.77A.57.57,0,0,0,336.23,307.1Z"/><path class="cls-37" d="M249.68,262.68a56.52,56.52,0,0,0-18,2.7l-4.14-2.28,78.62-45.68L195,151.86,0,265.14,111.05,330.8l95.27-55.36,7.28,4.11a22,22,0,0,0-2.07,5.58c-2.64,12.15-10.53,21.77,11.34,29.48.39.13,65.81-28.09,65.81-40.53S271.55,262.68,249.68,262.68Z"/><path class="cls-38" d="M228.49,305.67c-14,0-23,.6-22.24-6.64-1.44,7.42-.9,14.74,15.87,14.74,23.86,0,72.3-27.89,72.3-41.37v-3.78C294.42,282.1,252.36,305.67,228.49,305.67Z"/><path class="cls-39" d="M294.42,269.16c0,13.48-48.44,41.37-72.3,41.37s-14.74-16.23-11.86-29.39c2.94-13.43,17.74-24.34,41.61-24.34S294.42,255.69,294.42,269.16Z"/><polygon class="cls-40" points="252.74 268.23 230.04 281.4 212.5 271.27 235.2 258.1 252.74 268.23"/><path class="cls-41" d="M260,269.35l-22.54,13.23L233.65,281l-3.44-9.24V241l23.17-9.85v29.61S253.1,268.21,260,269.35Z"/><polygon class="cls-42" points="230.21 242.3 230.21 270.06 251.91 257.53 253.38 256.68 253.38 232.44 230.21 242.3"/><path class="cls-43" d="M227.18,231.85l3.65-2.11.87,39.66c0,6.47,1.6,10.59,5.76,13.18l-.43,2.85-7.51-4.3c-1.27-2.43-1.35-6-1.46-10.88l-.89-38.39Z"/><polygon class="cls-44" points="237.02 285.42 257.98 273.15 259.58 272.21 260 269.35 237.47 282.59 237.02 285.42"/><polygon class="cls-39" points="343.94 0.9 143.39 318.18 141.06 317.28 128.9 122.8 341.6 0 343.94 0.9"/><polygon class="cls-44" points="356.25 195.29 258.2 251.91 143.39 318.17 131.24 123.68 235.84 63.28 343.93 0.88 356.25 195.29"/><polygon class="cls-45" points="258.2 251.91 143.39 318.17 131.24 123.68 235.84 63.28 258.2 251.91"/><polygon class="cls-33" points="349.72 179.66 255.64 233.95 147.53 296.38 136.87 125.48 236.4 68 338.91 8.81 349.72 179.66"/><polygon class="cls-46" points="255.64 233.95 147.53 296.38 136.87 125.48 236.4 68 255.64 233.95"/><polygon class="cls-47" points="345.06 166.68 150.28 279.14 140.88 128.43 335.54 16.06 345.06 166.68"/><polygon class="cls-48" points="342.96 166.36 152.19 276.5 142.97 128.75 333.63 18.7 342.96 166.36"/><polygon class="cls-49" points="152.19 276.5 253.74 217.87 237.16 74.39 142.97 128.75 152.19 276.5"/><polygon class="cls-50" points="199.76 200.09 160.14 222.96 158.22 192.28 197.82 169.42 199.76 200.09"/><polygon class="cls-51" points="202.88 238.63 163.25 261.5 161.34 230.81 200.94 207.96 202.88 238.63"/><polygon class="cls-52" points="331.2 124.22 291.57 147.1 289.66 116.41 329.26 93.56 331.2 124.22"/><polygon class="cls-53" points="334.31 162.76 294.69 185.64 292.78 154.95 332.38 132.09 334.31 162.76"/><polygon class="cls-54" points="265.31 162.16 225.69 185.04 223.78 154.36 263.37 131.5 265.31 162.16"/><polygon class="cls-55" points="268.43 200.7 228.81 223.58 226.9 192.89 266.49 170.04 268.43 200.7"/><path class="cls-43" d="M131.23,123.7l12.16,194.48a1.77,1.77,0,0,1-2.33-.9C120.85,283.39,128.9,122.8,128.9,122.8Z"/><path class="cls-56" d="M128.88,123.06c-.54,6.73-4.52,159.52,11.44,193.16C130.68,263.59,128.69,138.6,128.88,123.06Z"/><polygon id="_Path_" data-name="&lt;Path&gt;" class="cls-57" points="137.27 131.82 133.61 158.2 135.72 190.73 337.68 78.6 337.32 43.28 334.66 16.8 137.27 131.82"/><g id="_Group_" data-name="&lt;Group&gt;"><polygon id="_Path_2" data-name="&lt;Path&gt;" class="cls-58" points="334.84 16.8 142.98 128.57 187.39 164.1 379.25 52.33 334.84 16.8"/><polygon id="_Path_3" data-name="&lt;Path&gt;" class="cls-59" points="372.35 67.27 192.26 172.06 192.26 161.08 372.35 56.29 372.35 67.27"/><g id="_Group_2" data-name="&lt;Group&gt;"><g id="_Group_3" data-name="&lt;Group&gt;"><polygon id="_Path_4" data-name="&lt;Path&gt;" class="cls-60" points="171.12 111.86 159.88 118.45 205.16 153.87 216.39 147.28 171.12 111.86"/></g><g id="_Group_4" data-name="&lt;Group&gt;"><polygon id="_Path_5" data-name="&lt;Path&gt;" class="cls-60" points="200.1 94.98 188.86 101.56 234.14 136.98 245.37 130.4 200.1 94.98"/></g><g id="_Group_5" data-name="&lt;Group&gt;"><polygon id="_Path_6" data-name="&lt;Path&gt;" class="cls-60" points="229.08 78.09 217.85 84.68 263.13 120.1 274.36 113.51 229.08 78.09"/></g><g id="_Group_6" data-name="&lt;Group&gt;"><polygon id="_Path_7" data-name="&lt;Path&gt;" class="cls-60" points="258.06 61.21 246.83 67.79 292.11 103.21 303.34 96.63 258.06 61.21"/></g><g id="_Group_7" data-name="&lt;Group&gt;"><polygon id="_Path_8" data-name="&lt;Path&gt;" class="cls-60" points="287.05 44.32 275.81 50.91 321.09 86.33 332.33 79.74 287.05 44.32"/></g><g id="_Group_8" data-name="&lt;Group&gt;"><polygon id="_Path_9" data-name="&lt;Path&gt;" class="cls-60" points="316.03 27.44 304.8 34.02 350.08 69.44 361.31 62.85 316.03 27.44"/></g></g><polygon id="_Path_10" data-name="&lt;Path&gt;" class="cls-61" points="142.97 128.57 144.35 152.1 189.76 177.01 187.39 164.1 142.97 128.57"/></g><path id="_Path_11" data-name="&lt;Path&gt;" class="cls-62" d="M211.2,168.23h0A4.13,4.13,0,0,1,205,164.6l.15-10.73,11.23-6.59-.17,12.37A10,10,0,0,1,211.2,168.23Z"/><path id="_Path_12" data-name="&lt;Path&gt;" class="cls-62" d="M240.2,151.29h0a4.12,4.12,0,0,1-6.19-3.62l.14-10.7,11.23-6.58-.16,12.33A10,10,0,0,1,240.2,151.29Z"/><path id="_Path_13" data-name="&lt;Path&gt;" class="cls-59" d="M226,159.36h0c-4.42,2.63-10,1.89-9.88-1.33l.23-10.51,17.94-10.77L234,148.93C234,152.49,230.92,156.45,226,159.36Z"/><path id="_Path_14" data-name="&lt;Path&gt;" class="cls-59" d="M197,176.31h0c-4.43,2.64-10,.67-9.89-2.55l.25-9.66,17.92-10.39-.26,12.17C205,169.44,201.93,173.4,197,176.31Z"/><path id="_Path_15" data-name="&lt;Path&gt;" class="cls-59" d="M341.82,92h0c-4.43,2.64-10,1.9-9.89-1.32l.23-10.51,17.94-10.77-.26,12.17C349.75,85.08,346.71,89,341.82,92Z"/><path id="_Path_16" data-name="&lt;Path&gt;" class="cls-59" d="M371,74.57h0c-4.43,2.64-10,1.9-9.89-1.32l.23-10.51L379.25,52,379,64.14C378.91,67.7,375.87,71.66,371,74.57Z"/><path id="_Path_17" data-name="&lt;Path&gt;" class="cls-59" d="M312.8,109h0c-4.42,2.63-10,1.89-9.89-1.33l.23-10.5,17.94-10.78-.26,12.18C320.73,102.15,317.69,106.11,312.8,109Z"/><path id="_Path_18" data-name="&lt;Path&gt;" class="cls-59" d="M283.89,125.78h0c-4.43,2.63-10,1.89-9.89-1.33l.23-10.51,17.94-10.77-.26,12.17C291.82,118.91,288.78,122.87,283.89,125.78Z"/><path id="_Path_19" data-name="&lt;Path&gt;" class="cls-59" d="M255,142.33h0c-4.43,2.63-10,1.89-9.89-1.33l.23-10.51,17.94-10.77L263,131.9C263,135.46,259.91,139.42,255,142.33Z"/><path id="_Path_20" data-name="&lt;Path&gt;" class="cls-62" d="M269.19,134.36h0a4.13,4.13,0,0,1-6.2-3.62l.15-10.65,11.23-6.59-.17,12.3A10,10,0,0,1,269.19,134.36Z"/><path id="_Path_21" data-name="&lt;Path&gt;" class="cls-62" d="M298.19,117.43l0,0a4.12,4.12,0,0,1-6.2-3.62l.14-10.62,11.23-6.58-.16,12.26A10.05,10.05,0,0,1,298.19,117.43Z"/><path id="_Path_22" data-name="&lt;Path&gt;" class="cls-62" d="M327.19,100.5l0,0A4.13,4.13,0,0,1,321,96.91l.14-10.59,11.24-6.58L332.16,92A10.06,10.06,0,0,1,327.19,100.5Z"/><path id="_Path_23" data-name="&lt;Path&gt;" class="cls-62" d="M356.19,83.57l0,0A4.13,4.13,0,0,1,349.93,80l.15-10.49,11.23-6.61L361.14,75A10.06,10.06,0,0,1,356.19,83.57Z"/><path class="cls-63" d="M117.67,337.88l44.54-25.73a3.18,3.18,0,0,1,3.17,0l82.12,60.3a1.33,1.33,0,0,1,0,2.31l-26.3,14.42a3.16,3.16,0,0,1-3.16,0l-100.38-49A1.34,1.34,0,0,1,117.67,337.88Z"/><path d="M219.49,388.39l-7.64-12.47,1.75-1h0a3.74,3.74,0,0,1,3.67.35,11.42,11.42,0,0,1,5.32,8.87,3.62,3.62,0,0,1-1.38,3.25h0l-.08.05-.06,0Z"/><path class="cls-64" d="M213.21,376.69l3.13-1.85a7.47,7.47,0,0,1,.93.42,11.42,11.42,0,0,1,5.32,8.87,5.26,5.26,0,0,1-.21,1.6l-1.92,1.12a6.09,6.09,0,0,1-1.4-.59,9,9,0,0,1-1.55-1.1l-4-6.56A9.18,9.18,0,0,1,213.21,376.69Z"/><path class="cls-65" d="M210.46,379.2a11.42,11.42,0,0,0,5.32,8.86c2.9,1.62,5.22.29,5.18-3a11.4,11.4,0,0,0-5.32-8.86C212.74,374.59,210.42,375.92,210.46,379.2Z"/><path class="cls-66" d="M210.66,379.31a11,11,0,0,0,5.12,8.52c2.79,1.56,5,.28,5-2.87a11,11,0,0,0-5.12-8.52C212.85,374.88,210.62,376.16,210.66,379.31Z"/><path class="cls-67" d="M211.79,379.94a8.55,8.55,0,0,0,4,6.62c2.17,1.21,3.9.21,3.87-2.23a8.54,8.54,0,0,0-4-6.62C213.49,376.5,211.76,377.5,211.79,379.94Z"/><path class="cls-68" d="M212.06,380.09a7.91,7.91,0,0,0,3.7,6.17c2,1.13,3.63.2,3.6-2.08a7.91,7.91,0,0,0-3.7-6.17C213.64,376.88,212,377.81,212.06,380.09Z"/><path class="cls-69" d="M215.71,378a8,8,0,0,1,3.65,6.14,4,4,0,0,1-.08.88l-2.63,1.57a4.11,4.11,0,0,1-.89-.37,8,8,0,0,1-3.7-6.05Z"/><path class="cls-70" d="M217.71,379.86a8.2,8.2,0,0,1,1.51,3.17l-4.36,2.59a8.38,8.38,0,0,1-2.12-2.81Z"/><path class="cls-71" d="M217.71,379.86a8.2,8.2,0,0,1,1.51,3.17l-4.36,2.59a8.38,8.38,0,0,1-2.12-2.81Z"/><path class="cls-72" d="M212.74,380.21a6.82,6.82,0,0,0,3.19,5.31c1.74,1,3.13.18,3.1-1.78a6.84,6.84,0,0,0-3.19-5.32C214.1,377.45,212.71,378.25,212.74,380.21Z"/><path class="cls-73" d="M212.74,381.05a5.42,5.42,0,0,0,2.52,4.2c1.38.77,2.48.14,2.46-1.41a5.41,5.41,0,0,0-2.53-4.21C213.82,378.86,212.72,379.49,212.74,381.05Z"/><polygon class="cls-74" points="217.11 373.6 216.18 384.02 218.17 382.61 222.6 376.55 217.11 373.6"/><polygon class="cls-75" points="215.12 375.01 214.13 382.29 216.18 384.02 220.61 377.96 215.12 375.01"/><path d="M247.39,372.24l-7.64-12.47,1.75-1h0a3.73,3.73,0,0,1,3.66.36,11.4,11.4,0,0,1,5.32,8.86,3.6,3.6,0,0,1-1.37,3.25h0l-.08,0-.06,0Z"/><path class="cls-64" d="M241.11,360.54l3.14-1.84a5.29,5.29,0,0,1,.92.42,11.4,11.4,0,0,1,5.32,8.86,5,5,0,0,1-.21,1.6l-1.92,1.12a6.41,6.41,0,0,1-1.4-.58,9.86,9.86,0,0,1-1.55-1.11l-4-6.55A8.76,8.76,0,0,1,241.11,360.54Z"/><path class="cls-65" d="M238.36,363.05a11.41,11.41,0,0,0,5.33,8.86c2.9,1.62,5.21.29,5.17-3a11.44,11.44,0,0,0-5.32-8.87C240.64,358.44,238.32,359.78,238.36,363.05Z"/><path class="cls-66" d="M238.57,363.16a11,11,0,0,0,5.11,8.52c2.79,1.56,5,.28,5-2.87a11,11,0,0,0-5.12-8.52C240.76,358.73,238.53,360,238.57,363.16Z"/><path class="cls-67" d="M239.69,363.79a8.51,8.51,0,0,0,4,6.62c2.16,1.21,3.89.21,3.86-2.23a8.52,8.52,0,0,0-4-6.61C241.39,360.35,239.66,361.35,239.69,363.79Z"/><path class="cls-76" d="M240,363.94a8,8,0,0,0,3.7,6.17c2,1.13,3.63.2,3.61-2.08a8,8,0,0,0-3.71-6.16C241.55,360.74,239.93,361.67,240,363.94Z"/><path class="cls-77" d="M243.61,361.89a8,8,0,0,1,3.66,6.14,4.06,4.06,0,0,1-.09.89l-2.63,1.56a4.33,4.33,0,0,1-.89-.37,8,8,0,0,1-3.69-6.05Z"/><path class="cls-70" d="M245.62,363.72a8.28,8.28,0,0,1,1.5,3.16l-4.36,2.59a8.42,8.42,0,0,1-2.11-2.8Z"/><path class="cls-71" d="M245.62,363.72a8.28,8.28,0,0,1,1.5,3.16l-4.36,2.59a8.42,8.42,0,0,1-2.11-2.8Z"/><path class="cls-72" d="M240.64,364.06a6.84,6.84,0,0,0,3.19,5.32c1.74,1,3.13.17,3.11-1.79a6.86,6.86,0,0,0-3.2-5.31C242,361.3,240.62,362.1,240.64,364.06Z"/><path class="cls-73" d="M240.64,364.9a5.41,5.41,0,0,0,2.53,4.2c1.37.77,2.47.14,2.45-1.41a5.44,5.44,0,0,0-2.52-4.21C241.72,362.71,240.62,363.35,240.64,364.9Z"/><path d="M201.26,340.58l-7.64-12.47,1.75-1h0a3.74,3.74,0,0,1,3.67.35,11.44,11.44,0,0,1,5.32,8.87,3.62,3.62,0,0,1-1.38,3.25h0l-.08,0-.06,0Z"/><path class="cls-64" d="M195,328.88l3.13-1.85a7.47,7.47,0,0,1,.93.42,11.44,11.44,0,0,1,5.32,8.87,5.26,5.26,0,0,1-.21,1.6L202.23,339a6.51,6.51,0,0,1-1.4-.58,9,9,0,0,1-1.55-1.11l-4-6.55A9.37,9.37,0,0,1,195,328.88Z"/><path class="cls-65" d="M192.23,331.39a11.4,11.4,0,0,0,5.32,8.86c2.9,1.62,5.22.29,5.18-3a11.42,11.42,0,0,0-5.32-8.87C194.51,326.78,192.19,328.11,192.23,331.39Z"/><path class="cls-66" d="M192.43,331.5a11,11,0,0,0,5.12,8.52c2.79,1.56,5,.28,5-2.87a11,11,0,0,0-5.12-8.52C194.62,327.07,192.39,328.36,192.43,331.5Z"/><path class="cls-67" d="M193.56,332.13a8.54,8.54,0,0,0,4,6.62c2.17,1.21,3.9.21,3.87-2.23a8.55,8.55,0,0,0-4-6.62C195.26,328.69,193.53,329.69,193.56,332.13Z"/><path class="cls-68" d="M193.83,332.28a7.91,7.91,0,0,0,3.7,6.17c2,1.13,3.63.2,3.6-2.08a7.94,7.94,0,0,0-3.7-6.17C195.41,329.07,193.8,330,193.83,332.28Z"/><path class="cls-69" d="M197.48,330.23a8,8,0,0,1,3.65,6.14,4.15,4.15,0,0,1-.08.89l-2.63,1.56a4.11,4.11,0,0,1-.89-.37,8,8,0,0,1-3.7-6.05Z"/><path class="cls-70" d="M199.48,332.05a8.42,8.42,0,0,1,1.51,3.17l-4.36,2.59a8.38,8.38,0,0,1-2.12-2.81Z"/><path class="cls-78" d="M199.48,332.05a8.42,8.42,0,0,1,1.51,3.17l-4.36,2.59a8.38,8.38,0,0,1-2.12-2.81Z"/><path class="cls-72" d="M194.51,332.4a6.85,6.85,0,0,0,3.19,5.32c1.74,1,3.13.17,3.1-1.79a6.85,6.85,0,0,0-3.19-5.32C195.87,329.64,194.48,330.44,194.51,332.4Z"/><path class="cls-79" d="M194.51,333.24a5.42,5.42,0,0,0,2.52,4.2c1.38.77,2.48.14,2.46-1.41a5.41,5.41,0,0,0-2.53-4.21C195.59,331.05,194.49,331.68,194.51,333.24Z"/><path d="M164.49,361.53l-7.64-12.47,1.75-1v0a3.74,3.74,0,0,1,3.67.35,11.42,11.42,0,0,1,5.32,8.86,3.64,3.64,0,0,1-1.38,3.26h0l-.08.05-.06,0Z"/><path class="cls-64" d="M158.21,349.83l3.14-1.85a6.16,6.16,0,0,1,.92.42,11.42,11.42,0,0,1,5.32,8.86,4.89,4.89,0,0,1-.21,1.6L165.46,360a6.79,6.79,0,0,1-1.4-.59,9.41,9.41,0,0,1-1.55-1.11l-4-6.55A8.67,8.67,0,0,1,158.21,349.83Z"/><path class="cls-65" d="M155.46,352.33a11.42,11.42,0,0,0,5.32,8.87c2.9,1.62,5.22.28,5.18-3a11.4,11.4,0,0,0-5.32-8.86C157.74,347.73,155.42,349.06,155.46,352.33Z"/><path class="cls-66" d="M155.66,352.45a11,11,0,0,0,5.12,8.52c2.79,1.56,5,.27,5-2.87a11,11,0,0,0-5.12-8.52C157.85,348,155.63,349.3,155.66,352.45Z"/><path class="cls-67" d="M156.79,353.08a8.5,8.5,0,0,0,4,6.61c2.16,1.22,3.89.22,3.86-2.22a8.54,8.54,0,0,0-4-6.62C158.49,349.64,156.76,350.64,156.79,353.08Z"/><path class="cls-76" d="M157.06,353.23a7.94,7.94,0,0,0,3.7,6.16c2,1.13,3.63.2,3.61-2.07a8,8,0,0,0-3.71-6.17C158.64,350,157,351,157.06,353.23Z"/><path class="cls-77" d="M160.71,351.18a8,8,0,0,1,3.66,6.14,4,4,0,0,1-.09.88l-2.63,1.56a3.67,3.67,0,0,1-.89-.37,8,8,0,0,1-3.7-6.05Z"/><path class="cls-70" d="M162.71,353a8.2,8.2,0,0,1,1.51,3.17l-4.36,2.59a8.36,8.36,0,0,1-2.11-2.81Z"/><path class="cls-71" d="M162.71,353a8.2,8.2,0,0,1,1.51,3.17l-4.36,2.59a8.36,8.36,0,0,1-2.11-2.81Z"/><path class="cls-72" d="M157.74,353.35a6.82,6.82,0,0,0,3.19,5.31c1.74,1,3.13.18,3.1-1.79a6.82,6.82,0,0,0-3.19-5.31C159.1,350.59,157.71,351.39,157.74,353.35Z"/><path class="cls-73" d="M157.74,354.18a5.42,5.42,0,0,0,2.52,4.21c1.38.77,2.48.14,2.46-1.42a5.42,5.42,0,0,0-2.52-4.2C158.82,352,157.72,352.63,157.74,354.18Z"/><polygon class="cls-74" points="161.92 346.79 160.98 357.21 162.97 355.8 167.4 349.74 161.92 346.79"/><polygon class="cls-75" points="159.93 348.2 158.93 355.47 160.98 357.21 165.41 351.15 159.93 348.2"/><polygon class="cls-74" points="244.99 355.73 243.13 356.43 245.92 365.75 250.35 359.69 244.99 355.73"/><polygon class="cls-75" points="243 357.14 241.88 365.42 243.93 367.16 248.36 361.1 243 357.14"/><path class="cls-74" d="M222.26,378.38a8.17,8.17,0,0,1-3.51-.79l-58-27.29a3.15,3.15,0,0,1-.23-5.59l32.17-18.57a8.27,8.27,0,0,1,8.76.32L249.06,359a3.17,3.17,0,0,1-.2,5.35l-22.48,13A8.17,8.17,0,0,1,222.26,378.38Zm-25.47-50.74a5.51,5.51,0,0,0-2.81.75L161.81,347a.56.56,0,0,0,0,1l58,27.29a5.64,5.64,0,0,0,5.22-.22l22.48-13a.58.58,0,0,0,.28-.47.54.54,0,0,0-.25-.48L200,328.61A5.65,5.65,0,0,0,196.79,327.64Z"/><path class="cls-80" d="M222.76,377.55a7.65,7.65,0,0,1-3.26-.73l-58-27.29a2.57,2.57,0,0,1-.19-4.56l32.17-18.57a7.67,7.67,0,0,1,8.14.31l47.62,32.48a2.59,2.59,0,0,1,1.12,2.23,2.55,2.55,0,0,1-1.29,2.13l-22.47,13A7.69,7.69,0,0,1,222.76,377.55Zm-25.47-50.74a6.17,6.17,0,0,0-3.11.83L162,346.21a1.14,1.14,0,0,0-.57,1,1.11,1.11,0,0,0,.66,1l58,27.3a6.37,6.37,0,0,0,2.65.59,6.24,6.24,0,0,0,3.11-.83l22.48-13a1.11,1.11,0,0,0,.57-.95,1.15,1.15,0,0,0-.5-1l-47.61-32.48A6.2,6.2,0,0,0,197.29,326.81Z"/><polygon class="cls-75" points="196.74 326.76 195.75 334.04 197.8 335.77 202.23 329.71 196.74 326.76"/><path class="cls-74" d="M225.56,377.48c-1.69,0-3.18-2.06-4.53-3.91a11.61,11.61,0,0,0-2.28-2.65l-54.22-25.51L161.81,347c-.75.43-1.88,2.92-2.35,2.21-2-3.06,2.71-7.58,3.53-7.19l1.42.48,28.27-16.33a12.92,12.92,0,0,0,2.46-2.77c1.75-2.32,3.92-5.22,6.3-3.59l47.62,32.49c1.72,1.17,1.56,6.9,1.54,7.56-.12,3.16-.78,4-1.4,4.32l-22.48,13A2.3,2.3,0,0,1,225.56,377.48Zm-58.29-33.65,52.59,24.74c1.14.54,2.18,2,3.27,3.47a13,13,0,0,0,2.41,2.79L247.71,362c.51-1.24.35-6.52-.25-7.68L200,321.94c-.55.07-2,2-2.77,3a13.1,13.1,0,0,1-3.23,3.45Z"/><path class="cls-80" d="M226,376.69c-1.39,0-2.81-1.95-4.06-3.67a10.51,10.51,0,0,0-2.5-2.83l-54.19-25.48a1.23,1.23,0,0,0-1.46.33l-1,1.17c-.2.11-1.23,2.7-1.44,2.7a1.74,1.74,0,0,1-1-.53c-.76-.85,3.15-6.17,3.33-6.09l1.21.65,28.53-16.47a12.7,12.7,0,0,0,2.64-2.93c1.28-1.71,2.88-3.83,4.42-3.83a1.91,1.91,0,0,1,1.09.37l47.62,32.49c1,.67,1.39,4.05,1.28,7.05-.12,3.27-.84,3.68-1.11,3.84l-22.48,13A1.67,1.67,0,0,1,226,376.69Zm-25.66-55.53c-.6.07-1.37.86-3.16,3.24a12.74,12.74,0,0,1-3.06,3.3l-27.67,16L220,368.9c1,.47,2,1.84,3.06,3.28a11.06,11.06,0,0,0,2.62,3l.28.13,22.6-13,.08-.18c.59-1.42.42-6.85-.26-8.17l-.07-.14-47.79-32.61Z"/><path class="cls-75" d="M169.87,345.15s-.44.6-1.5.22c-1.27-.46-1.1-.87-1.1-.87l3.32-14-4.21-1.82-3,13.93-1.33,1.68-1.67-.3,4.05-19.07,9.27,4Z"/><path class="cls-81" d="M169.39,345.37a.85.85,0,0,1-.33-.07.91.91,0,0,1-.68-1l3.3-13.9-5.22-2.26-3.1,14.45-1.06,1.33-.81-.14,3.81-17.89,8.25,3.57-3.74,15.77s0,0,0,0A.59.59,0,0,1,169.39,345.37Z"/><path class="cls-75" d="M204.52,328.86a1.1,1.1,0,0,1-1.46.49,1.47,1.47,0,0,1-1-1.66l3.2-13.47L201,312.4l-3,13.93L196.71,328l-1.67-.3,4.05-19.07,9.27,4Z"/><path class="cls-81" d="M198.29,271.62a9.53,9.53,0,0,0-2.75-1.07l-.63-10.46-.07-1.23,3.56-.21.19,3.34.61,10.15Z"/><path class="cls-81" d="M199.88,283.53l-1.41-.8a10,10,0,0,0-2.27-1l-.55-9.29a6.47,6.47,0,0,1,1.71.74l2,1.14Z"/><path class="cls-81" d="M200.56,295.22l-1.77-1c-.21-.12-.45-.21-.66-.32a7.32,7.32,0,0,0-1.25-.48l-.57-9.63a6.16,6.16,0,0,1,1.23.55l2.46,1.43Z"/><path class="cls-81" d="M201.17,305.33l-3.58.22-.6-10.24a7,7,0,0,1,.91.45l.34.19,2.46,1.43Z"/><path class="cls-75" d="M255.54,336.31l-.15.09h0l-.26.16-5.45,3.15s0,0,0,0l-.11,0-5.3,3.09L244,343l-.13.07-5,2.91c-.14.09-.3.16-.46.25l-.45.22a9.73,9.73,0,0,1-3.86.82,9.29,9.29,0,0,1-2.77-.41l-.59-.2-61.64-23.05a4.38,4.38,0,0,1-2.81-3.34,4.55,4.55,0,0,1-.05-1.23l.18-1.86c0-.39.07-.79.12-1.18l2.52-1.46c-.07,1-.18,1.92-.26,2.89l-.15,1.48,0,.36a2,2,0,0,0,1.3,2.11l61.66,23.05a7.1,7.1,0,0,0,3.25.41,7.18,7.18,0,0,0,2.32-.66l.27-.13a1.42,1.42,0,0,0,.25-.12l.47-.27,4.84-2.81.07,0,1-.59,4.68-2.7,1.23-.71,4.4-2.54,0,0v0Z"/><path class="cls-75" d="M256,336.06l-.12,0v0l-.22.16-.21.12-.15.09h0l0,0-.11.05-5.06,2.93s0,0-.07,0l-5.23,3-.59.3L244,343l-.13.07-.18.07-.23.09a9.9,9.9,0,0,1-3.43.62,10.14,10.14,0,0,1-1.91-.19,6.31,6.31,0,0,1-.88-.23,3.24,3.24,0,0,1-.53-.16L175,320.18a4.33,4.33,0,0,1-2.81-3.38,4.44,4.44,0,0,1-.05-1.21l.18-1.79c.05-.43.09-.86.12-1.27l2.54-1.46c-.09,1-.18,2-.29,3l-.14,1.39,0,.4a2,2,0,0,0,1.31,2.11L237.53,341a7.33,7.33,0,0,0,5.23-.09l.18-.09.07,0,.47-.22.14-.07.48-.28,5-2.88,0,0,.89-.52,4.35-2.52.53-.3,0,0h0l.16,0v1.08Z"/><path class="cls-75" d="M256.11,335.87l.09.14-.66.37,0,0h0l-.27.16-4.45,2.59a4.79,4.79,0,0,1-.68.34s0,0-.07,0-.25.12-.37.18,0,0,0,0l-.11,0-.12.05a.37.37,0,0,0-.14,0,9.86,9.86,0,0,1-3.26.57,8.62,8.62,0,0,1-1.89-.21.06.06,0,0,1-.07,0h0c-.25-.06-.48-.11-.71-.18a.22.22,0,0,1-.11,0l0,0-.48-.16L181,316.78a4.4,4.4,0,0,1-2.82-3.43,5.39,5.39,0,0,1,0-1.14l.22-2.13c0-.34.07-.67.09-1h0l2.51-1.45c-.07.91-.16,1.8-.25,2.7l-.16,1.66-.05.44a2,2,0,0,0,1.3,2.13l61.66,23.05a6.84,6.84,0,0,0,3.09.41,6.2,6.2,0,0,0,1.95-.43l.18-.07.18-.07a0,0,0,0,0,0,0l.18-.07,0,0a3.89,3.89,0,0,0,.5-.25l.43-.27h0l4.3-2.48.56-.32h0l.1-.07.5-.11V335l1.15.55Z"/><path class="cls-75" d="M256.11,335.87l.09.14-.54.37h-.12l0,0h-.15l-.07.09h0l0,0,0,.05h-.32A9.5,9.5,0,0,1,252,337a8.17,8.17,0,0,1-1.91-.22h-.13c-.28-.06-.57-.15-.85-.24a2.65,2.65,0,0,1-.45-.14L187,313.37a4.32,4.32,0,0,1-2.82-3.45h0a4.57,4.57,0,0,1,0-1.11l.18-1.79c0-.46.09-.93.14-1.39l2.52-1.45c-.09,1-.19,2.05-.28,3.07l-.13,1.29-.05.48a2,2,0,0,0,1.3,2.13l61.68,23.05a7.25,7.25,0,0,0,3,.43,7.34,7.34,0,0,0,1.63-.31l.14-.12.66-.2,0,0h0l.1-.07.09-.06.41-.05V335l1.15.55Z"/><path class="cls-75" d="M260,333.36a8.55,8.55,0,0,1-2.09.26,9.6,9.6,0,0,1-2.89-.47l-.41-.14L193,310a4.3,4.3,0,0,1-2.81-3.52,3.8,3.8,0,0,1,0-1.07l.13-1.13c.07-.62.14-1.25.2-1.86a9.5,9.5,0,0,1,2.41-.51c-.06.89-.16,1.76-.25,2.64l-.11,1,0,.09a2,2,0,0,0,1.31,2.11l61.66,23a6.74,6.74,0,0,0,2.8.43,5.59,5.59,0,0,0,1.22-.16l.26,0v1.24Z"/><path class="cls-80" d="M234.42,346.35a8.54,8.54,0,0,1-2.61-.38c-.2-.06-.39-.12-.57-.19l-61.64-23a3.85,3.85,0,0,1-2.46-2.93,4.36,4.36,0,0,1,0-1.09l.27-2.76,1.4-.81-.36,3.7a2.56,2.56,0,0,0,1.65,2.66l61.66,23.05a7.37,7.37,0,0,0,3.5.44,7.61,7.61,0,0,0,2.5-.71l.26-.12.3-.15,16.23-9.38.66,1.13-5.29,3.05h-.07l-.12.11-5.38,3.13-.26.11-.1.07-5,2.91-.46.24-.42.2A8.88,8.88,0,0,1,234.42,346.35Z"/><path class="cls-80" d="M240.37,342.94a9.57,9.57,0,0,1-1.81-.18,4.81,4.81,0,0,1-.79-.21,4.38,4.38,0,0,1-.53-.16l-61.67-23.07a3.81,3.81,0,0,1-2.46-3,3.92,3.92,0,0,1-.05-1.08l.18-1.78c0-.33.07-.67.1-1l1.4-.81c-.06.65-.12,1.3-.19,1.95l-.18,1.79a2.55,2.55,0,0,0,1.65,2.66l61.68,23.07a7.6,7.6,0,0,0,2.63.48c.25,0,.5,0,.75,0a7.63,7.63,0,0,0,2.24-.54l.74-.35.05,0,.62-.36,5-2.87,5.2-3V335l.59.62h-.08l-.18.16-5.07,2.91-.13.05-.07.09-5.1,2.93c-.16.1-.3.16-.43.23l-.27.13-.2.1-.38.15A9.36,9.36,0,0,1,240.37,342.94Z"/><path class="cls-80" d="M246.35,339.55a7.42,7.42,0,0,1-1.69-.19l0,0h-.17l-.05,0h0l-.57-.15-.11-.06h-.19l-.32-.13-61.63-23.05a3.82,3.82,0,0,1-2.48-3,4.94,4.94,0,0,1,0-1s.27-2.61.29-2.86l1.4-.8c0,.56-.32,3.33-.32,3.33l0,.43a2.58,2.58,0,0,0,1.64,2.7l61.66,23.05a7.6,7.6,0,0,0,2.6.47c.25,0,.49,0,.74,0a6.73,6.73,0,0,0,2.09-.47l.26-.1h.12l.1-.09.19-.08,0,0a4,4,0,0,0,.46-.24l.36-.22,4.77-2.75v.71l.56.27-.21.13.08.13-4.93,2.87a4.08,4.08,0,0,1-.6.3l-.14.06-.14.12s0,0,0,0l-.13,0-.26.12-.14,0A9.29,9.29,0,0,1,246.35,339.55Z"/><path class="cls-80" d="M252.34,336.13a7.62,7.62,0,0,1-1.79-.2,5.65,5.65,0,0,1-1-.24,2.49,2.49,0,0,1-.41-.13l-61.67-23.05a3.78,3.78,0,0,1-2.48-3,4.26,4.26,0,0,1,0-1l.3-2.9,1.38-.8-.31,3.33-.06.48a2.57,2.57,0,0,0,1.65,2.68l61.68,23.05a7.64,7.64,0,0,0,2.67.48,4.87,4.87,0,0,0,.54,0,7.61,7.61,0,0,0,1.75-.33l.1,0,.14-.12.44-.12h.08v.74l.56.27-.21.13.1.16h0l0,0h-.14l-.14.09h0l-.08.07h-.09A10.39,10.39,0,0,1,252.34,336.13Z"/><path class="cls-80" d="M258.27,332.72a9,9,0,0,1-2.73-.44l-.39-.13-61.64-23a3.77,3.77,0,0,1-2.46-3.08,3,3,0,0,1,0-1s.24-2.14.29-2.64a9.08,9.08,0,0,1,1.32-.3c0,.45-.08.9-.13,1.35l-.18,1.65a2.56,2.56,0,0,0,1.64,2.75l61.66,23.05a7.53,7.53,0,0,0,2.61.47h.41a5.31,5.31,0,0,0,.92-.09v.61l.16.69A8.06,8.06,0,0,1,258.27,332.72Z"/><rect class="cls-82" x="164.82" y="315.74" width="40.74" height="2.38" transform="translate(-137.46 141.9) rotate(-31.22)"/><rect class="cls-82" x="170.65" y="317.9" width="40.74" height="2.38" transform="translate(-137.75 145.25) rotate(-31.23)"/><rect class="cls-82" x="177.81" y="320.07" width="40.74" height="2.38" transform="translate(-137.83 149.26) rotate(-31.22)"/><rect class="cls-82" x="183.26" y="322.77" width="40.74" height="2.38" transform="translate(-138.43 152.46) rotate(-31.22)"/><rect class="cls-82" x="189.96" y="324.69" width="40.74" height="2.38" transform="translate(-138.47 156.24) rotate(-31.23)"/><rect class="cls-82" x="195.9" y="327.17" width="40.74" height="2.38" transform="translate(-138.88 159.66) rotate(-31.22)"/><rect class="cls-82" x="201.84" y="330.31" width="40.74" height="2.38" transform="translate(-139.66 163.21) rotate(-31.23)"/><rect class="cls-82" x="208.48" y="332.31" width="40.74" height="2.38" transform="matrix(0.86, -0.52, 0.52, 0.86, -139.73, 166.93)"/><rect class="cls-82" x="215.12" y="334.31" width="40.74" height="2.38" transform="translate(-139.81 170.68) rotate(-31.23)"/><rect class="cls-80" x="165.17" y="315.81" width="39.67" height="1.31" transform="translate(-137.2 141.64) rotate(-31.21)"/><rect class="cls-80" x="171" y="317.98" width="39.67" height="1.31" transform="translate(-137.48 144.98) rotate(-31.21)"/><rect class="cls-80" x="178.16" y="320.14" width="39.67" height="1.31" transform="translate(-137.57 149.01) rotate(-31.21)"/><rect class="cls-80" x="183.61" y="322.85" width="39.67" height="1.31" transform="translate(-138.18 152.23) rotate(-31.21)"/><rect class="cls-80" x="190.31" y="324.77" width="39.67" height="1.31" transform="translate(-138.2 155.97) rotate(-31.21)"/><rect class="cls-80" x="196.25" y="327.24" width="39.67" height="1.31" transform="translate(-138.62 159.4) rotate(-31.21)"/><rect class="cls-80" x="202.19" y="330.39" width="39.67" height="1.31" transform="translate(-139.4 162.94) rotate(-31.21)"/><rect class="cls-80" x="208.83" y="332.39" width="39.67" height="1.31" transform="translate(-139.47 166.67) rotate(-31.21)"/><rect class="cls-80" x="215.47" y="334.39" width="39.67" height="1.31" transform="translate(-139.54 170.39) rotate(-31.21)"/><polygon class="cls-75" points="209.33 308.62 207.55 308.49 210.46 267.81 212.24 267.94 209.33 308.62"/><rect class="cls-75" x="196.65" y="290.53" width="39.09" height="1.79" transform="translate(-90.47 485.4) rotate(-85.74)"/><rect class="cls-75" x="203.81" y="293.75" width="37.4" height="1.79" transform="translate(-88.61 493.45) rotate(-85.52)"/><rect class="cls-75" x="210.96" y="296.96" width="35.71" height="1.79" transform="translate(-86.79 501.49) rotate(-85.3)"/><rect class="cls-75" x="218.11" y="300.17" width="34.03" height="1.79" transform="translate(-85.04 509.45) rotate(-85.07)"/><rect class="cls-75" x="225.26" y="303.39" width="32.34" height="1.79" transform="translate(-83.31 517.4) rotate(-84.85)"/><rect class="cls-75" x="232.42" y="306.6" width="30.65" height="1.79" transform="translate(-82.06 524.65) rotate(-84.51)"/><rect class="cls-75" x="239.57" y="309.81" width="28.96" height="1.79" transform="translate(-80.41 532.56) rotate(-84.29)"/><rect class="cls-75" x="246.72" y="313.03" width="27.28" height="1.79" transform="translate(-79.72 539.04) rotate(-83.83)"/><rect class="cls-75" x="182.35" y="284.23" width="42.56" height="1.79" transform="translate(-90.72 475.17) rotate(-87.31)"/><rect class="cls-81" x="190.48" y="287.94" width="39.71" height="0.71" transform="translate(-92.22 477.54) rotate(-85.91)"/><polygon class="cls-81" points="214.87 310.44 217.7 272.52 218.41 272.58 215.59 310.5 214.87 310.44"/><rect class="cls-81" x="204.78" y="294.37" width="36.33" height="0.71" transform="translate(-88.22 494.08) rotate(-85.54)"/><polygon class="cls-81" points="227.49 315.17 230.31 280.64 231.03 280.7 228.21 315.23 227.49 315.17"/><polygon class="cls-81" points="233.8 317.54 236.62 284.7 237.33 284.76 234.51 317.6 233.8 317.54"/><polygon class="cls-81" points="240.11 319.9 242.93 288.76 243.64 288.83 240.82 319.96 240.11 319.9"/><rect class="cls-81" x="233.39" y="307.22" width="29.58" height="0.71" transform="translate(-81.56 525.46) rotate(-84.56)"/><rect class="cls-81" x="240.55" y="310.43" width="27.89" height="0.71" transform="translate(-80.29 532.78) rotate(-84.24)"/><rect class="cls-81" x="247.7" y="313.65" width="26.2" height="0.72" transform="translate(-79.23 539.84) rotate(-83.88)"/><polygon class="cls-81" points="202.72 305.91 204.71 264.47 205.42 264.5 203.44 305.94 202.72 305.91"/><polygon class="cls-74" points="238.78 317.98 234.77 320.3 211.3 311.51 197.59 302.6 238.78 317.98"/><path class="cls-74" d="M258.61,325.4l-.05.69-.22,2.24-.09.91a1.22,1.22,0,0,0-.55-.38l-18.58-6.95,4-2.3Z"/><path class="cls-75" d="M195.79,294.59a7.47,7.47,0,0,0-6.56.43l-25.48,14.72-1.39.81a2.28,2.28,0,0,0-1.11,1.48,5.45,5.45,0,0,0,0-1.27c-.09-1-1-.64-1-.64a4.31,4.31,0,0,1,1.27-1.13l2.1-1.21,24.77-14.31a9.18,9.18,0,0,1,7.34-.79Z"/><path class="cls-74" d="M162.31,309.89a1.24,1.24,0,0,0-.4-.59,4.27,4.27,0,0,1,.44-.3l26.87-15.52a8.69,8.69,0,0,1,4.31-1.15,8.48,8.48,0,0,1,2.25.3l0,.73a8.1,8.1,0,0,0-2.25-.32,8,8,0,0,0-4,1.06l-26.87,15.53C162.57,309.71,162.44,309.8,162.31,309.89Z"/><path class="cls-75" d="M195.2,283.12a7.44,7.44,0,0,0-6.56.43l-25.48,14.72-1.39.8a2.33,2.33,0,0,0-1.11,1.49,5.45,5.45,0,0,0,0-1.27c-.09-1-1-.64-1-.64a4.31,4.31,0,0,1,1.27-1.13l2.1-1.21L187.75,282a9.22,9.22,0,0,1,7.34-.78Z"/><path class="cls-74" d="M161.72,298.42a1.2,1.2,0,0,0-.4-.59,4.27,4.27,0,0,1,.44-.3L188.63,282a8.79,8.79,0,0,1,4.31-1.14,8.48,8.48,0,0,1,2.25.3l0,.73a7.76,7.76,0,0,0-2.25-.33,8,8,0,0,0-4,1.07l-26.87,15.52A3.51,3.51,0,0,0,161.72,298.42Z"/><path class="cls-75" d="M194.91,272.17a7.42,7.42,0,0,0-6.55.43l-25.48,14.72-1.4.8a2.28,2.28,0,0,0-1.1,1.49,6.91,6.91,0,0,0,0-1.27c-.09-1-1-.64-1-.64a4.31,4.31,0,0,1,1.27-1.13l2.11-1.21L187.46,271a9.24,9.24,0,0,1,7.35-.78Z"/><path class="cls-74" d="M161.44,287.47a1.15,1.15,0,0,0-.41-.59,4.27,4.27,0,0,1,.44-.3l26.88-15.53a8.67,8.67,0,0,1,6.56-.84l0,.73a7.82,7.82,0,0,0-2.26-.33,8,8,0,0,0-4,1.07l-26.87,15.53A2,2,0,0,0,161.44,287.47Z"/><path class="cls-74" d="M243.3,340a.22.22,0,0,1-.11,0l0,0-2.48,1.43a6.87,6.87,0,0,0,2.09-.5l.18-.09.07,0,1-.59C243.76,340.15,243.53,340.1,243.3,340Zm0,0a.22.22,0,0,1-.11,0l0,0-2.48,1.43a6.87,6.87,0,0,0,2.09-.5l.18-.09.07,0,1-.59A5.27,5.27,0,0,1,243.3,340Zm0,0a.22.22,0,0,1-.11,0l0,0-2.48,1.43a6.87,6.87,0,0,0,2.09-.5l.18-.09.07,0,1-.59A5.27,5.27,0,0,1,243.3,340Zm0,0a.22.22,0,0,1-.11,0l0,0-2.48,1.43a6.87,6.87,0,0,0,2.09-.5l.18-.09.07,0,1-.59A5.27,5.27,0,0,1,243.3,340Zm0,0a.22.22,0,0,1-.11,0l0,0-2.48,1.43a6.87,6.87,0,0,0,2.09-.5l.18-.09.07,0,1-.59A5.27,5.27,0,0,1,243.3,340Zm0,0a.22.22,0,0,1-.11,0l0,0-2.48,1.43a6.87,6.87,0,0,0,2.09-.5l.18-.09.07,0,1-.59C243.76,340.15,243.53,340.1,243.3,340Zm-4.52-22-4,2.32,4.35,1.61,4-2.3Zm4.52,22a.22.22,0,0,1-.11,0l0,0-2.48,1.43a6.87,6.87,0,0,0,2.09-.5l.18-.09.07,0,1-.59A5.27,5.27,0,0,1,243.3,340Zm0,0a.22.22,0,0,1-.11,0l0,0-2.48,1.43a6.87,6.87,0,0,0,2.09-.5l.18-.09.07,0,1-.59A5.27,5.27,0,0,1,243.3,340Zm0,0a.22.22,0,0,1-.11,0l0,0-2.48,1.43a6.87,6.87,0,0,0,2.09-.5l.18-.09.07,0,1-.59A5.27,5.27,0,0,1,243.3,340Zm0,0a.22.22,0,0,1-.11,0l0,0-2.48,1.43a6.87,6.87,0,0,0,2.09-.5l.18-.09.07,0,1-.59C243.76,340.15,243.53,340.1,243.3,340Z"/><path class="cls-74" d="M259.7,334.56l-26.55,15.33a10.12,10.12,0,0,1-8.61.72l-61.68-23.05a5,5,0,0,1-.75-9L166.5,316l2.52-1.46,3.45-2,2.54-1.46,3.45-2h0l2.51-1.45,3.45-2,2.52-1.45,1.7-1a8.48,8.48,0,0,1,1.79-.81l.17-.05,5.31,3.47a6.28,6.28,0,0,0-3.43-.27,6,6,0,0,0-2.05.75l-.29.16-3.61,2.09-2.39,1.38h0L180.58,312l-2.39,1.37-3.61,2.09-2.36,1.36-3.61,2.09-2.36,1.36-2.35,1.36a1.4,1.4,0,0,0-.72,1.37,1.41,1.41,0,0,0,.93,1.24l61.68,23a6.62,6.62,0,0,0,5.5-.43.13.13,0,0,0,.07,0l3.43-2,2.43-1.41,3.45-2a6.87,6.87,0,0,0,2.09-.5l.18-.09.07,0,1-.59c-.25-.06-.48-.11-.71-.18a.22.22,0,0,1-.11,0l0,0,3.43-2,2.51-1.45,3.37-1.94,2.56-1.47,2.89-1.68a.42.42,0,0,0,.16-.11.46.46,0,0,0,.18-.16,1.35,1.35,0,0,0,.38-1.1,1.48,1.48,0,0,0-.38-.86l.09-.91.22-2.24.05-.69.34.12a4.89,4.89,0,0,1,3,3,4.8,4.8,0,0,1,.29,1.27A5,5,0,0,1,259.7,334.56Z"/><path class="cls-75" d="M242.68,321.62,199.5,296.67,197,295.24l-.34-.2a7.67,7.67,0,0,0-.91-.45l-.11-1.91a9.47,9.47,0,0,1,1.25.48c.22.11.45.2.66.33l1.77,1,44.36,25.65C244,320.27,242.81,321.69,242.68,321.62Z"/><path class="cls-74" d="M197,294.21c-.22-.13-1-.64-1.21-.74l0-.78c.15.06,1.24.7,1.24.7l.37.19L243.08,320a6.17,6.17,0,0,1-.44.57Z"/><path class="cls-75" d="M197.09,270.9a9.31,9.31,0,0,0-2.75-1.07l-.62-10.45-.08-1.24,3.56-.21.2,3.34.6,10.15Z"/><path class="cls-83" d="M198,271.42l-.91-.52a8.82,8.82,0,0,0-1.59-.73l-.6-10.08-.08-1.23,2.43-.14.15,2.55Z"/><path class="cls-75" d="M198.68,282.82l-1.41-.8a9,9,0,0,0-2.27-.95l-.55-9.29a6.49,6.49,0,0,1,1.71.73l2,1.14Z"/><path class="cls-83" d="M198.68,282.82l-1.41-.8a11.53,11.53,0,0,0-1.11-.56l-.53-9a6.49,6.49,0,0,1,1.71.73l.79.47Z"/><path class="cls-75" d="M199.36,294.5l-1.77-1c-.21-.13-.44-.22-.66-.33a9.47,9.47,0,0,0-1.25-.48l-.57-9.63a5.68,5.68,0,0,1,1.23.56l2.47,1.42Z"/><path class="cls-83" d="M199.36,294.5l-1.77-1c-.21-.13-.44-.22-.66-.33a.24.24,0,0,0-.09,0l-.55-9.36a6.16,6.16,0,0,1,1.23.55l1.29.75Z"/><path class="cls-75" d="M200,304.62l-3.57.21-.61-10.24a7.67,7.67,0,0,1,.91.45l.34.2,2.46,1.43Z"/><path class="cls-83" d="M200,304.62l-2.45.14-.55-9.45a7.57,7.57,0,0,1,.91.44l.34.2,1.28.75Z"/><path class="cls-83" d="M169,314.52,166.5,316a48.74,48.74,0,0,0,.25-9.79l-3.35-34.11,2.37-.23L169.13,306A45.28,45.28,0,0,1,169,314.52Z"/><path class="cls-83" d="M175,311.07l-2.54,1.46a51.66,51.66,0,0,0,.34-10l-3.05-34.16,2.37-.21,3,34.16A47.2,47.2,0,0,1,175,311.07Z"/><path class="cls-83" d="M181,307.62l-2.51,1.45a55.6,55.6,0,0,0,.3-10L175.72,265l2.38-.21,3.06,34.16A48.74,48.74,0,0,1,181,307.62Z"/><path class="cls-83" d="M187,304.17l-2.52,1.45a48.7,48.7,0,0,0,.22-9.56l-3.47-34.25,2.38-.25L187,295.83A44.67,44.67,0,0,1,187,304.17Z"/><path class="cls-83" d="M192.86,301.87a9.5,9.5,0,0,0-2.41.51,21.38,21.38,0,0,0,.05-2.77l-3.86-41,2.38-.22,3.86,41A19.65,19.65,0,0,1,192.86,301.87Z"/><path class="cls-84" d="M167.67,315.08a46,46,0,0,0,.15-8.86l-3.3-33.57,1.31-.13,3.3,33.57a44.32,44.32,0,0,1-.08,8.19Z"/><path class="cls-84" d="M173.65,311.63a48.5,48.5,0,0,0,.23-9.05l-3-33.63,1.31-.12,3,33.63a47,47,0,0,1-.13,8.37Z"/><path class="cls-84" d="M179.64,308.17a50.74,50.74,0,0,0,.21-9l-3-33.63,1.31-.12,3,33.63a47.72,47.72,0,0,1-.14,8.35Z"/><path class="cls-84" d="M185.61,304.72a46.06,46.06,0,0,0,.12-8.63l-3.42-33.72,1.31-.14L187,296a44.54,44.54,0,0,1,0,8Z"/><path class="cls-84" d="M191.57,301.72a17.48,17.48,0,0,0,0-2.05l-3.81-40.46,1.31-.11,3.81,40.47a16.87,16.87,0,0,1,0,1.89A10.63,10.63,0,0,0,191.57,301.72Z"/><rect class="cls-83" x="227.96" y="330.61" width="25.87" height="1.79" transform="translate(-110.91 541.64) rotate(-84.85)"/><rect class="cls-83" x="236.25" y="325.65" width="25.87" height="1.79" transform="translate(-98.43 545.38) rotate(-84.85)"/><rect class="cls-83" x="243.17" y="322.06" width="25.87" height="1.79" transform="translate(-88.55 549) rotate(-84.85)"/><path class="cls-83" d="M234.92,323.4l-.57,6.44-.22,2.26-.77,8.55-.18,2.17-.35,3.95a2.38,2.38,0,0,1-2,2.14,1.37,1.37,0,0,1-1.75-1l.37-4.21.18-1.88.77-8.54.16-1.89.75-8.28Z"/><path class="cls-83" d="M263.84,307.14l-1.16,13-.53,5.92-.24,2.46-.17,2s-.11,1.93-1.7,1.93a2.16,2.16,0,0,1-2-1.13l.18-2.12.09-.91.22-2.24.05-.69.5-5.52.18-2,1-11.06Z"/><path class="cls-75" d="M259.29,317.87l-.18,2L198.81,285l-2.47-1.42a5.68,5.68,0,0,0-1.23-.56l-.11-2a9,9,0,0,1,2.27.95l1.41.8Z"/><path class="cls-74" d="M196.61,282.77c-.3-.18-1.48-.76-1.83-.9l-.05-.85a23.65,23.65,0,0,1,2.27,1.09l1.42.8,60.3,34.89-.07.82Z"/><path class="cls-75" d="M258.66,306.49l-1.86,1.07-58.67-33.91-2-1.14a6.49,6.49,0,0,0-1.71-.73l-.11-1.95a9.31,9.31,0,0,1,2.75,1.07l.91.52Z"/><path class="cls-74" d="M198.4,272.82l-2-1.14a12.12,12.12,0,0,0-2.07-.8l0-.84a15,15,0,0,1,2.5.95l.92.53,59.85,34.6-.79.45Z"/><path class="cls-83" d="M263.63,309.32l-.05.53v0a3.87,3.87,0,0,0-1.13,2.27v.07c0,1.12-2.43-2.57-2.43-2.57l0-.22.19-2,0-.32Z"/><path class="cls-75" d="M173.64,329c-.86.19-1-.93-1-.93l2.74-38.28,1.78.13-2.74,38.22S174.48,328.81,173.64,329Z"/><path class="cls-75" d="M179.9,331.12a1.19,1.19,0,0,1-1-.87l2.71-36.4,1.78.13-2.71,36.44A.65.65,0,0,1,179.9,331.12Z"/><path class="cls-75" d="M186.27,333.5c-.66.15-1-.88-1-.88L188,297.91l1.78.14L187,332.83S187,333.34,186.27,333.5Z"/><path class="cls-75" d="M192.62,336.06c-.86.32-1.09-.72-1.09-.72L194.26,302l1.78.14-2.7,33S193.48,335.75,192.62,336.06Z"/><path class="cls-75" d="M199,338.52c-1.26.3-1.17-.71-1.17-.71L200.57,306l1.78.16-2.7,31.46S199.61,338.38,199,338.52Z"/><path class="cls-75" d="M205.19,340.79c-.66.08-1-.72-1-.72l2.71-30,1.78.16L206,340.18S205.93,340.71,205.19,340.79Z"/><path class="cls-75" d="M211.37,343a.75.75,0,0,1-.85-.87l2.67-27.95,1.77.17-2.66,27.92A.88.88,0,0,1,211.37,343Z"/><path class="cls-75" d="M218,345.46a.9.9,0,0,1-1.13-1l2.65-26.26,1.78.17-2.65,26.22S218.62,345.38,218,345.46Z"/><path class="cls-75" d="M224.23,348a.9.9,0,0,1-1.1-.81l2.67-24.94,1.78.19-2.64,24.64S224.9,347.93,224.23,348Z"/><path class="cls-75" d="M167.31,326.54c-.45,0-.59-.79-.59-.79l1.91-39.94,1.79.08-1.93,40.17A1.36,1.36,0,0,1,167.31,326.54Z"/><path class="cls-81" d="M173.72,328.51c-.2,0-.31-.43-.32-.5l2.71-37.62.71.05-2.7,37.68c0,.23-.1.33-.33.38Z"/><path class="cls-81" d="M180.24,330.61a.65.65,0,0,1-.52-.47l2.69-35.69.71.05-2.68,35.9,0,.21h-.17Z"/><path class="cls-81" d="M186.42,333c-.08,0-.25-.2-.36-.44l2.66-34.06.71.06-2.67,34.25c0,.05-.09.14-.33.19Z"/><path class="cls-81" d="M192.58,335.61c-.12,0-.23-.27-.25-.37L195,302.56l.72.06-2.66,32.5c0,.22-.08.35-.37.46Z"/><path class="cls-81" d="M198.86,338.06c-.1,0-.16,0-.17,0l2.64-31.39.71.06-2.65,30.92s0,.37-.23.41A1.13,1.13,0,0,1,198.86,338.06Z"/><path class="cls-81" d="M205.38,340.28c-.15,0-.3-.17-.39-.3l2.65-29.29.71.06-2.66,29.41s-.09.1-.29.12Z"/><path class="cls-81" d="M211.64,342.44c-.16,0-.25,0-.28-.07a.33.33,0,0,1,0-.17l2.62-27.46.71.07L212,342.2C212,342.35,211.88,342.44,211.64,342.44Z"/><path class="cls-81" d="M218,345a.42.42,0,0,1-.29-.08.5.5,0,0,1-.08-.34l2.6-25.74.71.07-2.59,25.68c0,.05,0,.37-.2.4Z"/><path class="cls-81" d="M224.35,347.5c-.35,0-.41-.23-.41-.33l2.61-24.31.71.08L224.68,347s0,.43-.23.45Z"/><path class="cls-81" d="M167.59,326s-.05-.21-.07-.34l1.9-39.29.71,0-1.89,39.43a1.08,1.08,0,0,1-.63.17Z"/><path class="cls-74" d="M262.84,299.63l-65-42.34a10.34,10.34,0,0,0-10.87-.31l-27.73,16a5.12,5.12,0,0,0-.23,8.72l4.61,3,1.74,1.13,25.29,16.49,5.31,3.47L224,324.07a10.43,10.43,0,0,0,10.88.29l4.24-2.45,4-2.3,17.28-10,1.84-1.07.37-.22a5.18,5.18,0,0,0,2.56-4.3A5.12,5.12,0,0,0,262.84,299.63Zm-2,5.61-2.16,1.25-1.86,1.07-18,10.42-4,2.32-1.68,1a6.8,6.8,0,0,1-7.14-.2l-14.65-9.56-13.71-8.91-28.78-18.76-1.75-1.13-6.13-4a1.47,1.47,0,0,1-.7-1.32,1.51,1.51,0,0,1,.77-1.31l27.73-16a6.63,6.63,0,0,1,5-.69,6.53,6.53,0,0,1,2.14.89l1.54,1,63.48,41.35a1.53,1.53,0,0,1-.06,2.62Z"/><path class="cls-74" d="M263.65,322.82a4.23,4.23,0,0,1-1.5,3.24,4.45,4.45,0,0,1-.61.43l-3.2,1.84L234,342.39a7.36,7.36,0,0,1-.84.43,9.93,9.93,0,0,1-3.68.84l.18-1.88a7.31,7.31,0,0,0,3.43-1l.25-.15,25.2-14.56,2.07-1.19a2.35,2.35,0,0,0,1.19-2.08,2.51,2.51,0,0,0-.08-.62v0a3,3,0,0,1,.94-2A4.1,4.1,0,0,1,263.65,322.82Z"/><path class="cls-80" d="M230.17,341.74a7.85,7.85,0,0,0,3.21-1l27.52-15.91a2.89,2.89,0,0,0,1.46-2.53,3,3,0,0,0-.11-.77,2,2,0,0,1,.39-1,3.59,3.59,0,0,1,.47,1.81,3.67,3.67,0,0,1-1.31,2.82,2.88,2.88,0,0,1-.53.37l-3.2,1.85-24.31,14.06c-.26.15-.53.28-.79.4a9.39,9.39,0,0,1-2.87.76Z"/><path class="cls-74" d="M264.29,312.21a4.21,4.21,0,0,1-2.13,3.7L234.31,332a.76.76,0,0,1-.18.09,9.51,9.51,0,0,1-3.68,1.14l.16-1.89a7.48,7.48,0,0,0,2.77-1l1-.56,26.89-15.54a2.37,2.37,0,0,0,1.21-2.07v-.07a3.87,3.87,0,0,1,1.13-2.27v0A4.2,4.2,0,0,1,264.29,312.21Z"/><path class="cls-80" d="M231.11,331.26a7.94,7.94,0,0,0,2.54-.94l27.85-16.1a2.9,2.9,0,0,0,1.49-2.54,2.69,2.69,0,0,1,.5-1.39,3.52,3.52,0,0,1,.26,1.37,3.69,3.69,0,0,1-1.85,3.24L234,331H234l-.11.07a8.82,8.82,0,0,1-2.83,1Z"/><path class="cls-75" d="M164.32,315.71l-.57-6-.18-2-.07-.7-.21-2.23-.59-6.24-.2-2-.05-.61-.22-2.25-.55-5.8-.18-2-.26-2.73L159,281.71a5.2,5.2,0,0,1-1.64-1.76l.8,8.5.49,5.11.5,5.3.57,5.95.5,5.31.52,5.45.88,7.93s.49,2.25,2,2.25a1.72,1.72,0,0,0,1.54-1.14l-.63-6.7Z"/><path class="cls-81" d="M163.94,325.39c-1.07,0-1.5-1.82-1.51-1.83l-.87-7.88-3.21-33.85a5.34,5.34,0,0,0,.65.5l2,1.33.23,2.47.18,2,.83,8.67.19,2,.88,9.17.18,2,.78,8.17.62,6.57A1.15,1.15,0,0,1,163.94,325.39Z"/><path class="cls-75" d="M206.71,340.21a3.62,3.62,0,0,0-2-.2,1.33,1.33,0,0,0-.71.7l-39.45-22.8-3.07-1.77a3.37,3.37,0,0,1-.75-.57,4.13,4.13,0,0,1-.52-5.45s.94-.34,1,.64a5.45,5.45,0,0,1,0,1.27v0a.74.74,0,0,0,0,.18,1.42,1.42,0,0,0,0,.3,2.33,2.33,0,0,0,1.16,2l2,1.12Z"/><path class="cls-74" d="M161.87,315.31a3,3,0,0,1-.64-.48,3.6,3.6,0,0,1-1.14-2.64,3.54,3.54,0,0,1,.56-1.94h0c.12,0,.15,0,.16.2a5.78,5.78,0,0,1,0,1.16,2.61,2.61,0,0,0-.06.58,2.89,2.89,0,0,0,1.43,2.5l2,1.12,40.4,23.36a2.19,2.19,0,0,0-.63.46Z"/><path class="cls-75" d="M229.68,341.78l-.18,1.88h-.21a9.49,9.49,0,0,1-4.74-1.27L163.5,307.08l-3.23-1.87a4.22,4.22,0,0,1-1.14-6.35.72.72,0,0,1,1,.65,4.05,4.05,0,0,1,0,1.09,2.32,2.32,0,0,0-.2,1,2.36,2.36,0,0,0,1.2,2.07l2.11,1.22,62.18,35.95A7.31,7.31,0,0,0,229.68,341.78Z"/><path class="cls-74" d="M230.1,342.54c-1.48-.05-3.87-.24-5.14-1l-64.28-37.18a3.82,3.82,0,0,1-.51-.35,3.59,3.59,0,0,1-1.33-2.83,3.69,3.69,0,0,1,.71-2.21h.06c.12,0,.14,0,.16.2a4,4,0,0,1,0,1,2.4,2.4,0,0,0-.2,1,2.92,2.92,0,0,0,1.47,2.54l64.28,37.16a11.65,11.65,0,0,0,4.83.84Z"/><path class="cls-75" d="M230.61,331.35l-.16,1.89a7.56,7.56,0,0,1-.95.05,9.62,9.62,0,0,1-4.78-1.28l-62.27-36-2.81-1.62a4.08,4.08,0,0,1-1-.82,4.28,4.28,0,0,1-1.11-2.88,4.21,4.21,0,0,1,.62-2.23s1.11-.38,1.2.6a7.44,7.44,0,0,1,0,1.56v.07a2.42,2.42,0,0,0,1.19,2.11l1.66,1,63.41,36.65A7.74,7.74,0,0,0,230.61,331.35Z"/><path class="cls-74" d="M229.64,332.39a9.11,9.11,0,0,1-4.52-1.21l-65.07-37.63a3.7,3.7,0,0,1-.88-.71,3.74,3.74,0,0,1-1-2.52,3.62,3.62,0,0,1,.44-1.76h.1c.18,0,.2,0,.22.19a7.61,7.61,0,0,1,0,1.44,3,3,0,0,0,1.46,2.71l65.08,37.61a8.24,8.24,0,0,0,4.11,1.1h0c.18,0,1.3-.33,1.48-.34l-.07.81C230.89,332.08,229.8,332.39,229.64,332.39Z"/><path class="cls-80" d="M229.68,324a9.45,9.45,0,0,1-5.19-1.54l-28.07-18.27-36.95-24.09a4.22,4.22,0,0,1,.19-7.19l27.73-16a9.44,9.44,0,0,1,9.93.27l65,42.35a4.18,4.18,0,0,1,1.91,3.65,4.26,4.26,0,0,1-2.11,3.55l-27.73,16A9.6,9.6,0,0,1,229.68,324Zm-37.61-66.59a7.6,7.6,0,0,0-3.79,1l-27.73,16a2.4,2.4,0,0,0-1.21,2.08,2.29,2.29,0,0,0,1.12,2.08l6.11,4,1.76,1.13,28.78,18.75,13.7,8.92L225.46,321a7.72,7.72,0,0,0,4.21,1.26,7.8,7.8,0,0,0,3.87-1l1.68-1,4-2.33,22-12.74a2.37,2.37,0,0,0,1.21-2,2.42,2.42,0,0,0-1.12-2.16l-65-42.34a7.52,7.52,0,0,0-2.45-1A7.28,7.28,0,0,0,192.07,257.44Z"/><path class="cls-75" d="M196.56,258.83a3.51,3.51,0,0,1-2.91-2.49l-3-5.91L180,245.16l-.7-6.34L193,247.61l.48.41,4.82,9.84S198.46,259.09,196.56,258.83Z"/><path class="cls-85" d="M146.46,267.07l-2.68-4.64,36.46-21.09a1.78,1.78,0,0,1,2.43.65l.24.41a3.11,3.11,0,0,1-1.13,4.25Z"/><path class="cls-86" d="M154.31,271.73l-1-1.69,37.26-21.48a.65.65,0,0,1,.89.24l.09.15a1.13,1.13,0,0,1-.42,1.54Z"/><polygon class="cls-80" points="179.32 238.84 181.21 237.51 193.48 248.02 192.11 248.84 179.32 238.84"/><path class="cls-81" d="M196.56,258.83l-4.45-10,1.38-.82,4.82,9.84S198.46,259.09,196.56,258.83Z"/><path class="cls-75" d="M159.92,277.66v0c0,.23-.07,1.13-1.34,1a.79.79,0,0,0-.31,0c-1,.15-.94,1.79-.94,1.79l-4.08-8.33-10.64-5.25-.7-6.34,13.68,8.79.47.41.16.3Z"/><polygon class="cls-80" points="141.91 260.6 143.8 259.27 156.07 269.78 154.69 270.6 141.91 260.6"/><path class="cls-81" d="M159.92,277.71c0,.23-.07,1.13-1.34,1a.79.79,0,0,0-.31,0l-3.59-8.06,1.38-.82Z"/></g></g></g></svg>