<svg id="Group_6" data-name="Group 6" xmlns="http://www.w3.org/2000/svg" width="344.761" height="400.181" viewBox="0 0 344.761 400.181">
  <path id="Path_10" data-name="Path 10" d="M.439,258.714C.348,230.5.153,202.282.222,174.044c0-6.064,4.748-8.341,11.179-5.664,17.93,7.494,35.813,15.126,53.72,22.689q135.85,57.416,271.746,114.672c6.087,2.563,8.009,5.549,7.861,12.048-.5,17.712-.3,35.47-.08,53.194,0,4.05-1.144,5.126-5.137,5.08-19.634-.183-39.28-.137-58.915,0a23.029,23.029,0,0,1-9.314-2.289L120.248,309.848c-8.009-.721-14.749-4.726-21.911-7.689-30.516-12.586-60.78-25.836-91.227-38.616C4.616,262.227,1.549,261.826.439,258.714Z" transform="translate(0.025 24.117)" fill="#3bcece"/>
  <path id="Path_11" data-name="Path 11" d="M155.713,123.766c16.019,8.078,32.953,14.188,49.361,21.442,6.568,2.906,13.193,5.664,19.795,8.5,7.723,0,14.211,3.993,20.9,6.865,26.03,11.339,52.427,21.808,78.469,33.182,5.561,2.414,10.733,5.721,16.682,7.254a3.742,3.742,0,0,1,3.238,2.632q.183,30.447.389,60.883v21.637c0,8.433-3.375,11.385-11.442,8.9a11.817,11.817,0,0,1-1.854-.744c-13.227-6.785-27.461-12.094-41.191-17.884q-93.6-39.726-187.271-79.2c-31.854-13.49-63.755-27.06-95.781-40.31-5.092-2.105-7.151-4.577-7-10.366.435-17.907.263-35.836,0-53.777,0-4.485,1.339-5.927,5.881-5.881,19.257.217,38.5.16,57.759.069,8.009,0,14.451,4.577,21.408,7.369,21.66,8.868,43.125,18.239,64.681,27.369C151.708,122.542,153.734,123.1,155.713,123.766Z" transform="translate(-0.003 12.527)" fill="#c86a99"/>
  <path id="Path_12" data-name="Path 12" d="M.449,247.19l6.591,3.215c24.772,15.652,47.93,33.674,72.439,49.7,4.142,2.7,8.135,5.721,12.094,8.639,4.508,3.433,4.439,5.32.229,9.485L34.489,363.292a5.4,5.4,0,0,1-1.979,1.144c-10.63.08-19.657.08-29.532-.229-3.135-.195-2.792-3.616-2.8-5.721q-.069-46.271,0-92.542C.163,259.742.346,253.46.449,247.19Z" transform="translate(0.017 35.641)" fill="#508991"/>
  <path id="Path_13" data-name="Path 13" d="M93.857,81.421H91.569c-12.964,0-12.964,0-11.076-12.781C85.974,31.373,118.469,2.151,156.72.114,194.478-1.9,229.8,23.616,239.3,59.875a85.362,85.362,0,0,1,2.689,17.449c.16,3.433-.938,4.256-4.131,4.165-6.659-.195-13.341-.263-20,0-3.73.149-4.737-1.144-5.046-4.783a52.141,52.141,0,0,0-103.836-.744c-.446,4.462-1.556,6.03-5.973,5.515a78.533,78.533,0,0,0-9.142-.057Z" transform="translate(11.473 -0.003)" fill="#172b3b"/>
  <path id="Path_14" data-name="Path 14" d="M90.932,317.792c2.723-3.559,2.2-5.939-1.762-8.639q-29.04-19.806-57.725-40.161c-7.037-5.023-14.085-10.137-21.374-14.874-1.522-.984-3.661-1.819-3.9-4.188Q39.8,263.969,73.414,278.02q19.955,8.364,39.875,16.831c2.071.881,4.039,1.991,6.053,3-3.764.091-6.007,2.883-8.673,4.9C104.067,307.746,97.511,312.781,90.932,317.792Z" transform="translate(0.886 36.036)" fill="#33575c"/>
  <path id="Path_15" data-name="Path 15" d="M312.77,203.6l-2.929-1.087c-9.634-4.234-17.9-10.63-26.248-16.831-13.273-9.851-27.46-18.307-40.79-28.136-6.865-5.069-13.731-10.183-21.019-14.657-2.208-1.339-5.355-2.8-3.524-6.59,19.222-16.477,39.726-31.351,59.5-47.187a5.927,5.927,0,0,1,2.952-1.647c10.092-.217,20.172-.3,30.264-.355,1.7,0,2.174,1.259,2.2,2.746s0,3.044,0,4.577c0,34.109.332,68.137-.252,102.245C312.884,198.841,312.77,201.095,312.77,203.6Z" transform="translate(31.388 12.558)" fill="#508991"/>
  <path id="Path_16" data-name="Path 16" d="M221.319,130.1c.229,2.655,2.288,3.787,4.2,5.023,18.856,12.014,36.465,25.847,55.3,37.93,11.087,7.128,21.408,15.469,32.037,23.261-8.33-1.945-15.721-6.236-23.513-9.485q-32.987-13.73-65.917-27.609c-9-3.787-18.307-7.163-26.934-11.751,8.135-3.5,13.845-10.355,21.007-15.2C218.745,131.45,220.06,130.26,221.319,130.1Z" transform="translate(28.329 18.757)" fill="#33575c"/>
</svg>
