<svg xmlns="http://www.w3.org/2000/svg" xmlns:xlink="http://www.w3.org/1999/xlink" viewBox="0 0 366.09 369.77"><defs><style>.cls-1{isolation:isolate;}.cls-2{fill:#ff73b5;}.cls-3{fill:#d2448d;}.cls-4{fill:#fbfafc;}.cls-5{fill:#a9a8c6;}.cls-6{fill:#1c1a2a;}.cls-7{fill:#e1dfea;}.cls-8{fill:#7c7ca0;}.cls-9{fill:#ab3fc1;}.cls-10{fill:#090000;}.cls-11{fill:#1a2738;}.cls-12{opacity:0.27;}.cls-13{fill:#f2f8ff;}.cls-14{fill:#b0a7c2;}.cls-14,.cls-33{mix-blend-mode:multiply;}.cls-15{fill:#a68efe;}.cls-16{fill:#42609f;}.cls-17{fill:#8140ff;}.cls-18{fill:#3f4f5d;}.cls-19{fill:#1a293b;}.cls-20{fill:#9b346c;}.cls-21{fill:#aa226d;}.cls-22{fill:#fcf;}.cls-23{fill:#7c6c5f;}.cls-24{fill:#958272;}.cls-25{fill:#f7b23b;}.cls-26{fill:#af9785;}.cls-27{fill:#968272;}.cls-28{fill:#bba18e;}.cls-29{fill:url(#linear-gradient);}.cls-30{fill:#f6ba28;}.cls-31{fill:#842a4b;}.cls-32{fill:#963b60;}.cls-33{fill:#c1bcce;}.cls-34{fill:#e6b231;}.cls-35{fill:#d5a02d;}.cls-36{fill:#e8ba5d;}.cls-37{fill:#b4c4c9;}.cls-38{fill:#c1d1d6;}.cls-39{fill:#cfdfe3;}.cls-40{fill:#c7d8de;}.cls-41{fill:#dce4e6;}.cls-42{fill:#f2e9db;}.cls-43{fill:#69635d;}.cls-44{fill:#c2b59a;}.cls-45{fill:#8f8673;}.cls-46{fill:#d7ceba;}.cls-47{fill:#f4d975;}.cls-48{fill:#ce7837;}.cls-49{fill:#e3c76d;}.cls-50{fill:#ae6025;}.cls-51{fill:#edbc49;}.cls-52{fill:#985523;}.cls-53{fill:#e9a727;}.cls-54{fill:#e09724;}.cls-55{fill:#dfb740;}.cls-56{fill:#f0ca45;}.cls-57{fill:#c46017;}.cls-58{fill:#b45013;}.cls-59{fill:#d09e3b;}.cls-60{fill:#e0af3f;}.cls-61{fill:#841e25;}.cls-62{fill:#edb732;}.cls-63{fill:#a54957;}.cls-64{fill:#e2b3bc;}.cls-65{fill:#2a8766;}.cls-66{fill:#c78e00;}</style><linearGradient id="linear-gradient" x1="172.83" y1="145.43" x2="197.66" y2="145.43" gradientUnits="userSpaceOnUse"><stop offset="0" stop-color="#2a8766"/><stop offset="1" stop-color="#27654f"/></linearGradient></defs><title>main</title><g class="cls-1"><g id="Layer_2" data-name="Layer 2"><g id="Default"><path class="cls-2" d="M279.84,13.94V35.42c0,7.52,5.27,16.66,11.78,20.42l2.75,1.59,6.54,15.75L307.45,65c.92.52,1.84,1.06,2.75,1.59.27.15.53.29.8.42,2.94,1.48,5.58,1.53,7.54.4l.15-.09c2.05-1.27,3.3-3.87,3.3-7.54V38.3c0-7.53-5.28-16.67-11.79-20.43L291.62,7.14c-3.19-1.85-6.09-2.06-8.2-.9l-.13.07C281.15,7.54,279.84,10.18,279.84,13.94Z"/><path class="cls-3" d="M328.1,61.88c2.13-1.23,3.45-3.88,3.45-7.63V32.77c0-7.52-5.27-16.66-11.78-20.42L301.18,1.61C297.93-.27,295-.45,292.85.79q-4.73,2.72-9.43,5.45c2.11-1.16,5-1,8.2.9L310.2,17.87C316.71,21.63,322,30.77,322,38.3V59.77c0,3.67-1.25,6.27-3.3,7.54Z"/><path class="cls-3" d="M307.45,65l-6.54,8.19,9.56-5.52L311,67c-.27-.13-.53-.27-.8-.42C309.29,66.05,308.37,65.51,307.45,65Z"/><path class="cls-4" d="M299.36,28.41a.64.64,0,0,0-.55-.09l-.55.23-3-1.72c-1.16-.67-2.14-.38-2.31.67l-.27,1.72,1.57.91.24-1.53c.05-.34.38-.44.77-.22l3.3,1.91a.64.64,0,0,0,.55.09l.55-.23,2.46,1.42.55.87a1.66,1.66,0,0,0,.55.54l3.31,1.91a1.71,1.71,0,0,1,.77,1.11l.23,1.8,1.57.91-.27-2a5,5,0,0,0-2.3-3.33l-3-1.73-.55-.86a1.61,1.61,0,0,0-.55-.55Zm-7.76,1.73c-.42-.25-.77-.1-.77.33V32a1.6,1.6,0,0,0,.77,1.22l.13.08,1.21,7.94a3.32,3.32,0,0,0,1.53,2.18l12.88,7.44c.76.44,1.41.26,1.54-.41l1.2-6.55.13.08c.43.24.78.1.78-.33V42.12a1.62,1.62,0,0,0-.78-1.23Zm13.19,11.5a1.59,1.59,0,0,1,.78,1.22v3.88c0,.43-.35.58-.78.33a1.62,1.62,0,0,1-.78-1.22V42c0-.43.35-.58.78-.33Zm-3.88-2.24a1.59,1.59,0,0,1,.78,1.22V44.5c0,.43-.35.58-.78.33a1.61,1.61,0,0,1-.77-1.22V39.72c0-.42.34-.57.77-.32ZM297,37.16a1.59,1.59,0,0,1,.78,1.22v3.88c0,.43-.35.58-.78.33a1.64,1.64,0,0,1-.77-1.23V37.48c0-.42.35-.57.77-.32Z"/><path class="cls-5" d="M366.08,215.8h0v15.5h0c0,3-1.92,6.11-4.26,8a21.92,21.92,0,0,1-2.71,1.84L143.35,365.74c-7.34,4.24-17.26,4.88-25.59,3.09a27.41,27.41,0,0,1-8.11-3.09L7,306.43c-3.73-2.15-7-5.53-7-9.74v-15.3a7.74,7.74,0,0,0,.18,1.66c.75,3.26,3.9,6.15,6.8,7.82l102.67,59.3a33.86,33.86,0,0,0,16.86,4,43.08,43.08,0,0,0,8.73-.93,27.45,27.45,0,0,0,8.11-3.11L359.11,225.54a16,16,0,0,0,4.78-3.95A10.27,10.27,0,0,0,366.08,215.8Z"/><path class="cls-6" d="M49.63,320.28a1.84,1.84,0,0,0-1.7-.22,1.7,1.7,0,0,0-.83,1.68v1.1a5.61,5.61,0,0,0,2.53,4.39l17.37,10a1.54,1.54,0,0,0,2.53-1.46v-1.1A5.6,5.6,0,0,0,67,330.32Z"/><path class="cls-6" d="M88.18,342.27c-2.42-2.46-4.74-1.48-4.67,1.06.1,3.81,3.87,7.53,5.92,6.25a2.16,2.16,0,0,0,.7-.76,3.27,3.27,0,0,0,.28-2,7.94,7.94,0,0,0-.72-2.4,0,0,0,0,0,0,0,9.57,9.57,0,0,1-.54-.94A7.36,7.36,0,0,0,88.18,342.27Z"/><path class="cls-7" d="M359.69,220.63c-1.77,2.14-3.19,2.71-9.39,6.34-.12.06-210.26,121.5-211.36,122a29,29,0,0,1-12.45,2.62l0,2.59a43.08,43.08,0,0,0,8.73-.93,27.45,27.45,0,0,0,8.11-3.11L359.11,225.54a16,16,0,0,0,4.78-3.95,10.27,10.27,0,0,0,2.19-5.79,6.77,6.77,0,0,0-.17-1.91c-.76-3.26-3.9-6.15-6.8-7.82L256.45,146.76a34.09,34.09,0,0,0-16.86-4l0,2.59a32.47,32.47,0,0,1,6.64.68c4.44.95,6.59,2.3,9.9,4.28s-7.63-4.47,38.54,22.19c7.51,4.35,15,8.77,22.5,13.11s15.06,8.58,22.56,13c3.12,1.83,6.24,3.68,9.37,5.46a85.21,85.21,0,0,1,8.85,5.27C361.88,212.42,362.9,216.78,359.69,220.63Z"/><polygon class="cls-7" points="307.92 263.35 306.2 262.35 325.13 251.42 326.85 252.41 307.92 263.35"/><polygon class="cls-8" points="306.2 264.75 306.2 262.35 307.92 263.35 307.92 265.74 306.2 264.75"/><polygon class="cls-8" points="307.92 265.74 307.92 263.35 326.85 252.41 326.85 254.8 307.92 265.74"/><path class="cls-6" d="M99.25,352.36h0a1.46,1.46,0,0,1-.66-1.13h0c0-.4.3-.56.66-.35h0a1.43,1.43,0,0,1,.67,1.12h0C99.92,352.41,99.62,352.57,99.25,352.36Z"/><path class="cls-6" d="M12.49,305.83h0a2.27,2.27,0,0,1-1-1.75v-4.92c0-.63.47-.88,1-.55h0a2.27,2.27,0,0,1,1,1.74v4.92C13.52,305.91,13.05,306.15,12.49,305.83Z"/><path class="cls-6" d="M16.62,308.21h0a2.25,2.25,0,0,1-1-1.74v-4.92c0-.63.47-.88,1-.55h0a2.25,2.25,0,0,1,1,1.74v4.92C17.65,308.29,17.18,308.54,16.62,308.21Z"/><path class="cls-6" d="M20.75,310.6h0a2.27,2.27,0,0,1-1-1.75v-4.92c0-.63.47-.88,1-.55h0a2.28,2.28,0,0,1,1,1.75v4.92C21.78,310.68,21.31,310.93,20.75,310.6Z"/><path class="cls-6" d="M24.88,313h0a2.23,2.23,0,0,1-1-1.74v-4.92c0-.63.47-.88,1-.55h0a2.27,2.27,0,0,1,1,1.74v4.92C25.91,313.06,25.44,313.31,24.88,313Z"/><path class="cls-6" d="M29,315.37h0a2.25,2.25,0,0,1-1-1.75v-4.91c0-.64.47-.88,1-.56h0a2.28,2.28,0,0,1,1,1.75v4.92C30,315.45,29.57,315.7,29,315.37Z"/><path class="cls-6" d="M33.14,317.75h0a2.23,2.23,0,0,1-1-1.74v-4.92c0-.63.47-.88,1-.55h0a2.27,2.27,0,0,1,1,1.74v4.92C34.17,317.83,33.7,318.08,33.14,317.75Z"/><path class="cls-7" d="M7,290.87l102.67,59.3a33.86,33.86,0,0,0,16.86,4l0-2.59a29.84,29.84,0,0,1-11.31-2.12,38.62,38.62,0,0,1-5.24-2.84c-3.35-2,7.63,4.47-38.54-22.2-7.51-4.34-15-8.76-22.5-13.1s-15.07-8.58-22.56-13c-3.12-1.83-6.24-3.69-9.38-5.46-6.22-3.5-9.15-4.87-11.07-7.63-2.51-3.62-1.94-8.39,4.27-12.06.24-.15,216-124.83,217-125.3a29.16,29.16,0,0,1,12.46-2.62l0-2.59a43.33,43.33,0,0,0-8.74.93,27.88,27.88,0,0,0-8.12,3.1L7,271.39a16.19,16.19,0,0,0-4.79,4,10.16,10.16,0,0,0-2.19,6,7.74,7.74,0,0,0,.18,1.66C.93,286.31,4.08,289.2,7,290.87Z"/><path class="cls-7" d="M10.17,273.24c-.24.14-.47.28-.69.43-5.56,3.61-6,8.15-3.58,11.63,1.92,2.77,4.84,4.13,11.07,7.63,3.14,1.77,6.26,3.63,9.37,5.46,7.5,4.39,15.05,8.64,22.57,13s15,8.76,22.5,13.11c46.17,26.66,35.19,20.18,38.55,22.19a37.91,37.91,0,0,0,5.23,2.84,29.84,29.84,0,0,0,11.31,2.12A28.81,28.81,0,0,0,138.94,349c.61-.29,63.2-36.44,120.11-69.31L350.3,227c6.21-3.63,7.63-4.2,9.41-6.34,3.2-3.85,2.17-8.2-1.74-11.34a85.69,85.69,0,0,0-8.84-5.28c-3.14-1.77-6.25-3.63-9.37-5.46-5.44-3.19-10.92-6.3-16.38-9.43q-3.11-1.76-6.19-3.54c-7.5-4.34-15-8.76-22.49-13.1l-8.84-5.11c-35.88-20.69-26.6-15.21-29.71-17.09-3.3-2-5.45-3.33-9.9-4.27a32.38,32.38,0,0,0-6.63-.69,29.17,29.17,0,0,0-12.47,2.62c-.07,0-1.47.84-4,2.28C193.65,167.21,10.39,273.1,10.17,273.24Z"/><path class="cls-9" d="M9.48,273.67c-5.56,3.61-6,8.15-3.58,11.63,1.92,2.77,4.84,4.13,11.07,7.63,3.14,1.77,6.26,3.63,9.37,5.46,7.5,4.39,15.05,8.64,22.57,13s15,8.76,22.5,13.11c46.17,26.66,35.19,20.18,38.55,22.19a37.91,37.91,0,0,0,5.23,2.84c7.23,3,17.09,2.77,23.75-.5,1-.48,183.73-106.07,211.36-122,6.21-3.63,7.63-4.2,9.41-6.34,3.2-3.85,2.17-8.2-1.74-11.34-2.13-1.7-98.82-57.2-101.82-59-3.3-2-5.45-3.33-9.9-4.27a30.93,30.93,0,0,0-19.1,1.93C227,148,232.87,144.62,9.48,273.67Z"/><path class="cls-10" d="M290.29,175.49a3.63,3.63,0,0,0-3.36,0l-1.25.71,22.86,13.2a3.68,3.68,0,0,0,3.37,0l1.24-.71Z"/><path class="cls-11" d="M286.93,173.15l-1.58.91a1,1,0,0,0,0,1.95l.33.19,1.25-.71a3.63,3.63,0,0,1,3.36,0l22.86,13.2.33-.2a1.22,1.22,0,0,0,.7-1v0a1.17,1.17,0,0,0-.7-1l-23.19-13.4A3.72,3.72,0,0,0,286.93,173.15Z"/><g class="cls-12"><path class="cls-13" d="M266.92,200.37l46.79,27a6.08,6.08,0,0,0,5.51,0h0c1.52-.87,1.52-2.3,0-3.18l-46.8-27a6.12,6.12,0,0,0-5.5,0h0C265.4,198.07,265.4,199.49,266.92,200.37Z"/><path class="cls-13" d="M270.05,214.9l32.66,18.86a6.06,6.06,0,0,0,5.5,0h0c1.52-.88,1.52-2.3,0-3.18l-32.65-18.86a6.08,6.08,0,0,0-5.51,0h0C268.53,212.59,268.53,214,270.05,214.9Z"/><path class="cls-13" d="M259.05,221.25l32.66,18.87a6.12,6.12,0,0,0,5.5,0h0c1.52-.88,1.52-2.31,0-3.18l-32.66-18.87a6.06,6.06,0,0,0-5.5,0h0C257.53,219,257.53,220.37,259.05,221.25Z"/></g><g class="cls-12"><path class="cls-13" d="M195,245.76l46.79,27a6.14,6.14,0,0,0,5.51,0h0c1.52-.88,1.52-2.31,0-3.18l-46.79-27a6.14,6.14,0,0,0-5.51,0h0C193.49,243.46,193.49,244.89,195,245.76Z"/><path class="cls-13" d="M198.14,260.29l32.66,18.86a6.06,6.06,0,0,0,5.5,0h0c1.52-.88,1.52-2.3,0-3.18l-32.65-18.86a6.08,6.08,0,0,0-5.51,0h0C196.62,258,196.62,259.41,198.14,260.29Z"/><path class="cls-13" d="M187.14,266.64l32.66,18.87a6.06,6.06,0,0,0,5.5,0h0c1.52-.88,1.52-2.3,0-3.18l-32.65-18.87a6.14,6.14,0,0,0-5.51,0h0C185.62,264.34,185.62,265.76,187.14,266.64Z"/></g><g class="cls-12"><path class="cls-13" d="M99.21,232.76l46.79,27a6.06,6.06,0,0,0,5.5,0h0c1.52-.88,1.52-2.3,0-3.18l-46.79-27a6.06,6.06,0,0,0-5.5,0h0C97.69,230.46,97.69,231.88,99.21,232.76Z"/><path class="cls-13" d="M102.34,247.28,135,266.14a6.06,6.06,0,0,0,5.5,0h0c1.52-.87,1.52-2.3,0-3.18L107.84,244.1a6.06,6.06,0,0,0-5.5,0h0C100.82,245,100.82,246.4,102.34,247.28Z"/><path class="cls-13" d="M91.34,253.64,124,272.5a6.08,6.08,0,0,0,5.51,0h0c1.52-.88,1.52-2.3,0-3.18L96.84,250.46a6.06,6.06,0,0,0-5.5,0h0C89.82,251.33,89.82,252.76,91.34,253.64Z"/></g><g class="cls-12"><path class="cls-13" d="M109.24,292.87l46.8,27a6.06,6.06,0,0,0,5.5,0h0c1.52-.88,1.52-2.3,0-3.18l-46.79-27a6.08,6.08,0,0,0-5.51,0h0C107.72,290.57,107.72,292,109.24,292.87Z"/><path class="cls-13" d="M112.38,307.39,145,326.25a6.08,6.08,0,0,0,5.51,0h0c1.52-.87,1.52-2.3,0-3.18l-32.66-18.86a6.06,6.06,0,0,0-5.5,0h0C110.86,305.09,110.86,306.51,112.38,307.39Z"/><path class="cls-13" d="M101.38,313.75,134,332.61a6.08,6.08,0,0,0,5.51,0h0c1.52-.88,1.52-2.3,0-3.18l-32.66-18.86a6.06,6.06,0,0,0-5.5,0h0C99.86,311.44,99.86,312.87,101.38,313.75Z"/></g><g class="cls-12"><path class="cls-13" d="M175.64,187l46.79,27a6.12,6.12,0,0,0,5.5,0h0c1.52-.87,1.52-2.3,0-3.17l-46.79-27a6.12,6.12,0,0,0-5.5,0h0C174.12,184.73,174.12,186.16,175.64,187Z"/><path class="cls-13" d="M178.77,201.56l32.66,18.86a6.06,6.06,0,0,0,5.5,0h0c1.52-.88,1.52-2.3,0-3.18l-32.66-18.86a6.06,6.06,0,0,0-5.5,0h0C177.25,199.26,177.25,200.68,178.77,201.56Z"/><path class="cls-13" d="M167.77,207.91l32.65,18.87a6.08,6.08,0,0,0,5.51,0h0c1.52-.88,1.52-2.3,0-3.18l-32.66-18.87a6.12,6.12,0,0,0-5.5,0h0C166.25,205.61,166.25,207,167.77,207.91Z"/></g><path class="cls-14" d="M255.89,253.54l-83.09,48c-7.14,4.11-18.7,4.11-25.83,0L103,276.14c-7.13-4.11-7.13-10.79,0-14.91l83.09-48c7.13-4.12,18.7-4.12,25.83,0l43.93,25.36C263,242.74,263,249.42,255.89,253.54Z"/><polygon class="cls-7" points="156.73 203.94 129.43 187.42 132.56 186.03 160.21 202.02 156.73 203.94"/><polygon class="cls-7" points="172.04 194.55 144.73 178.03 147.86 176.63 175.51 192.63 172.04 194.55"/><polygon class="cls-3" points="196.37 164.75 194.2 181.03 180.38 174.03 196.37 164.75"/><path class="cls-15" d="M202.51,109.15v45.62c-1.21.71-27.52,15.78-27.52,15.78L164.73,165,164,119.64V86.92Z"/><rect class="cls-16" x="147.43" y="118.23" width="32.96" height="34.43"/><path class="cls-7" d="M204.31,47.27h0a25.58,25.58,0,0,0-9,13.89Q192.65,71.9,190,82.64l-4.35-2.51q2.46-10,4.91-20.12a30.41,30.41,0,0,1,10.86-16.63h0l8.25-6h0c7.22-5.35,19.36-6.3,26.81-1.92h0l18.52,10.69L273.56,56.8h0C277.37,59,280,62.65,279.82,67c-.2,4-2.75,7.38-5.92,9.66h0l-8.26,6a25.63,25.63,0,0,0-9,13.88h0L250,123.81s-.15,0-.18,0a10.07,10.07,0,0,0-2,.31,4.12,4.12,0,0,1-1.79.26c-.58-.19-.8-1.11-.65-1.78.12-.47.23-.94.34-1.41q3.15-12.87,6.29-25.73a30.41,30.41,0,0,1,10.86-16.64h0l8.26-6h0c2.38-1.71,4.47-4.45,3.86-7.29A7.31,7.31,0,0,0,271.17,61h0l-18.52-10.7L234.12,39.59h0c-5.64-3.33-15.68-2.71-21.54,1.64h0Z"/><path class="cls-7" d="M233.21,120.4l2.87,1.66q-.84,7.14-1.67,14.3h0l-3.28,1.89Q232.17,129.33,233.21,120.4Z"/><path class="cls-7" d="M227.52,167.8l3.38-2a15.91,15.91,0,0,1-4.11,7.44C227,171.46,227.28,169.63,227.52,167.8Z"/><path class="cls-7" d="M219.24,134l9.64,5.57-5.57,3.22-4.07-2.36Z"/><path class="cls-7" d="M228.81,158.13q.75-5.65,1.51-11.32l2.69,1.55-1.23,10.55-3.33,1.92Z"/><path class="cls-7" d="M223.4,175.74l-9.2,5.31c2.14,1.24,1,.59,5.26,3a2.17,2.17,0,0,0,2.37-.12,2.86,2.86,0,0,0,.7-1.64h0Zm-15.29,5.31-1.77-1,3-1.75,1.77,1,11.69-6.75h0a7,7,0,0,0,1.07-.76c.09-.69.18-1.38.28-2.07h0l3.32-1.92c-.24,1.83-.49,3.66-.73,5.49-.42,3.12-.83,6.25-1.25,9.38h0c-.39,3.1-2.59,5-5.52,4.65a3.76,3.76,0,0,1-.55-.1,24.18,24.18,0,0,1-4.86-2.41l-3.46-2q-7.64,4.42-15.3,8.83l.45-3.34,2.56-1.48v-.42Z"/><path class="cls-3" d="M219.24,151.55v14.6l-16.73,9.66v-14.6Z"/><path class="cls-17" d="M219.24,140.41v4.71l-16.73,9.65V109.15l16.73-9.65v40.91Z"/><polygon class="cls-15" points="219.24 99.5 202.51 109.15 164.01 86.92 180.73 77.27 185.69 80.13 190.04 82.64 219.24 99.5"/><polygon class="cls-17" points="217.32 99.5 180.73 78.37 165.92 86.92 202.51 108.05 217.32 99.5"/><path class="cls-18" d="M214.18,260.92h0l-3.66-2.12a3.83,3.83,0,0,1-1.35-1.39c-.93-1.61-.83-3.9-.42-5.72l4.07-2.35-.06,3.63h0C211.61,256.85,212.36,259.77,214.18,260.92Z"/><path class="cls-19" d="M226.36,248.25a15.72,15.72,0,0,1-6.63,12c-2.22,1.44-4.18,1.57-5.55.7-1.82-1.15-2.57-4.07-1.42-7.94l0,3,.56.33L225.89,249l.05-3.28A7,7,0,0,1,226.36,248.25Z"/><path class="cls-20" d="M212,245.3a3.06,3.06,0,0,0-2.06-1.13,1.35,1.35,0,0,0-.61.18v0L221.91,237a1.64,1.64,0,0,1,1.37,0l.28.12a5.34,5.34,0,0,1,2.46,4.26v.29l-.07,4-.05,3.28-12.62,7.28.12-7.59A5.27,5.27,0,0,0,212,245.3Z"/><path class="cls-3" d="M209.9,244.17A3.06,3.06,0,0,1,212,245.3a5.27,5.27,0,0,1,1.43,3.42l-.12,7.59-.56-.33,0-3h0l.06-3.63,0-1.4a3.23,3.23,0,0,0-.27-1,3.89,3.89,0,0,0-1.93-2,1.2,1.2,0,0,0-1,0h0l-1,.59a1.78,1.78,0,0,1,.38-.94,1,1,0,0,1,.31-.24A1.35,1.35,0,0,1,209.9,244.17Z"/><path class="cls-3" d="M202.51,161.21v14.6l-3.65,2.1v-8.84c.28-2.08.55-4.16.83-6.23Z"/><path class="cls-3" d="M198.86,169.07v8.84l-1.27.74h0C198,175.46,198.43,172.26,198.86,169.07Z"/><path class="cls-20" d="M177.24,217.57v3.37l-12.62,7.29v-7.7a4.34,4.34,0,0,0,1.86-3.91h0c0-1.29,0-2.59,0-3.88l6.66-3.85a1.63,1.63,0,0,1,1.38,0l.26.12a5.3,5.3,0,0,1,2.47,4.2v4.35Z"/><path class="cls-7" d="M191.66,200.1h0l.87-6.53q-4.6,2.66-9.2,5.32l4.59,2.64h0c.93.54,2.27,1,3,.21A2.77,2.77,0,0,0,191.66,200.1Zm-14.43-.8L193,190.21l.36-2.67,3.33-1.92-.36,2.68-.45,3.34q-.58,4.43-1.18,8.85h0c-.52,4.19-4.26,6-8.28,3.67l-6.1-3.53-13.82,8c0-1.17,0-2.33,0-3.5h0l10.41-6Z"/><path class="cls-18" d="M161.84,230.7a3.71,3.71,0,0,1-1.29-1.29c-1-1.65-.89-4.07-.45-5.95l4-2.28v3.76c-1.15,3.92-.34,6.85,1.56,7.94h0l-3.77-2.17Z"/><path class="cls-3" d="M164.06,220.81a4.87,4.87,0,0,0,.56-.28v7.7l-.56-.32v-7.1Z"/><path class="cls-19" d="M164.06,227.91l.56.32,12.62-7.29v-3.37a7,7,0,0,1,.44,2.57,15.76,15.76,0,0,1-6.61,12c-2.16,1.41-4.09,1.57-5.45.77-1.9-1.09-2.71-4-1.56-7.94Z"/><path class="cls-20" d="M160.53,216.16l2.91-1.68v2.13h0v.07a3.07,3.07,0,0,1-.07.65,3.74,3.74,0,0,0-1.77-1.27A1.51,1.51,0,0,0,160.53,216.16Z"/><path class="cls-7" d="M160.82,216.81a1,1,0,0,1,.89-.11,3,3,0,0,1,1.47,1.07.39.39,0,0,1-.08.1.63.63,0,0,1-.47.18,4.2,4.2,0,0,1-2.17-.68h0l-.31-.18.67-.39Z"/><path class="cls-7" d="M160.83,279.07a5.32,5.32,0,0,0-2.45-4.25,1.69,1.69,0,0,0-.28-.12h0l50.5-29.16,1-.59h0a1.2,1.2,0,0,1,1,0,3.89,3.89,0,0,1,1.93,2,3.23,3.23,0,0,1,.27,1l0,1.4-4.07,2.35-47.92,27.67Z"/><path class="cls-3" d="M163.18,217.77a3,3,0,0,0-1.47-1.07,1,1,0,0,0-.89.11h0l-.67.39-.26-.15a1.54,1.54,0,0,1,.62-.87h0a1.51,1.51,0,0,1,1.07-.08,3.74,3.74,0,0,1,1.77,1.27A1.08,1.08,0,0,1,163.18,217.77Z"/><path class="cls-18" d="M148.8,298.79h0L145,296.62c-1.55-.89-2.07-2.8-2.07-4.58a12.54,12.54,0,0,1,.77-4.14,10.74,10.74,0,0,0,3.9-1h0l0,2.94a12.68,12.68,0,0,0-.86,4.37C146.73,296.6,147.58,298.09,148.8,298.79Z"/><path class="cls-19" d="M160.74,284.57c.88,4.66-2.7,11.54-7.31,13.93a6,6,0,0,1-2.69.77,3.7,3.7,0,0,1-1.94-.48c-1.22-.7-2.07-2.19-2.07-4.57a12.68,12.68,0,0,1,.86-4.37l-.07,3.77.56.33,12.62-7.29Z"/><path class="cls-7" d="M147.63,286.91a10.74,10.74,0,0,1-3.9,1c-4.91.26-8.61-3.53-8.56-9.63h0v-.36h0c0-6,3.53-13,8.11-17h0l65-57.68c3.83-3.37,6.31-9,6.29-13h0v-5.44a24.18,24.18,0,0,0,4.86,2.41,3.76,3.76,0,0,0,.55.1v2.92h0c0,5.63-3.18,12.68-8.11,17h0l-65,57.68c-3.75,3.3-6.31,8.85-6.29,13h0v.37h0c0,1.58.42,3.75,2,4.14a2.94,2.94,0,0,0,1,.06,5.17,5.17,0,0,0,1.19-.28h0a4.56,4.56,0,0,1,2.76,3.15,2.67,2.67,0,0,1,.07.68v.89Z"/><path class="cls-3" d="M143.62,282.48a1.31,1.31,0,0,1,.48-.51.88.88,0,0,1,.22-.1,1.71,1.71,0,0,1,1.23.13,4,4,0,0,1,1.62,1.43,5.1,5.1,0,0,1,1,2.93l-.13,7.59-.56-.33.07-3.77,0-2.94V286a2.67,2.67,0,0,0-.07-.68,4.56,4.56,0,0,0-2.76-3.15h0A5.17,5.17,0,0,1,143.62,282.48Z"/><path class="cls-20" d="M144.32,281.87a.88.88,0,0,0-.22.1h0l12.62-7.29a1.63,1.63,0,0,1,1.38,0h0a1.69,1.69,0,0,1,.28.12,5.32,5.32,0,0,1,2.45,4.25v.3l-.09,5.2,0,2.09L148.08,294l.13-7.59a5.1,5.1,0,0,0-1-2.93,4,4,0,0,0-1.62-1.43A1.71,1.71,0,0,0,144.32,281.87Z"/><path class="cls-7" d="M129.75,142.74a.9.9,0,0,0,.17-.61v0c-.06-.47-.11-1-.17-1.42,1.3-.75,28.65-15.3,29.94-16v4.17l-24.35,13.57a62.19,62.19,0,0,0-6.35.9l0-.18A1.07,1.07,0,0,0,129.75,142.74Z"/><path class="cls-21" d="M220.41,117.1a7,7,0,0,1,3.87,1l8.22,4.75a9.36,9.36,0,0,1,2.68,2.37,11.87,11.87,0,0,1,1.93,3.78,14,14,0,0,1-.07,8.26l-5.92,18.52,0,.1a11.59,11.59,0,0,1-1.79,3.44,7.13,7.13,0,0,1-5.21,2.95h0l-1.79.1a6.47,6.47,0,0,0,2.37-.64,9.43,9.43,0,0,0,4.57-5.84l5.92-18.52a14.05,14.05,0,0,0,.07-8.27,10.55,10.55,0,0,0-4.61-6.14l-8.22-4.75a7,7,0,0,0-3.79-1Z"/><path class="cls-22" d="M207,143.05l5.91-18.52a9,9,0,0,1,2.1-3.59,5.3,5.3,0,0,1,5.61-1.38,6.66,6.66,0,0,1,1.13.51l8.22,4.75a9.08,9.08,0,0,1,4.16,7.08,11.35,11.35,0,0,1-.48,4.6L227.76,155a8.75,8.75,0,0,1-2.1,3.59,6,6,0,0,1-1.29,1,5.33,5.33,0,0,1-5.45-.13l-8.22-4.74a9.14,9.14,0,0,1-4.16-7.09A11.39,11.39,0,0,1,207,143.05Zm22.6-13a3.16,3.16,0,0,0,.13-1.62,2.6,2.6,0,0,0-.68-1.3l-.36.83a1.77,1.77,0,0,1,.37,1.77,1.29,1.29,0,0,1-.67.85,1.27,1.27,0,0,1-1.12-.1c.39-1.24.79-2.48,1.19-3.72l-.18-.1a1.79,1.79,0,0,0-1.68-.23,2,2,0,0,0-1,1.33,3.08,3.08,0,0,0,0,2,2.8,2.8,0,0,0,1.3,1.53,1.75,1.75,0,0,0,1.67.2A2.18,2.18,0,0,0,229.63,130.09ZM228,135.2a3,3,0,0,0,0-2.12,1.44,1.44,0,0,0-.54-.6.82.82,0,0,0-.63-.12,1,1,0,0,0-.52.36c-.36.44-.94,1.51-1.11,1.72s-.33.31-.54.2a.67.67,0,0,1-.27-.45,1.81,1.81,0,0,1,.12-.92,1.23,1.23,0,0,1,.41-.67.63.63,0,0,1,.57-.06l.18-.87a1.25,1.25,0,0,0-.7-.06c-.74.21-1.33,1.85-1.16,2.83a1.52,1.52,0,0,0,.67,1.06.84.84,0,0,0,1.12-.22c.42-.48,1-1.62,1.22-1.84a.34.34,0,0,1,.43-.05.78.78,0,0,1,.34.53,1.9,1.9,0,0,1-.09,1,1.41,1.41,0,0,1-.5.78.78.78,0,0,1-.72.05c-.05.29-.11.59-.16.89C227.12,137,227.66,136.24,228,135.2Zm-1.61,5a3.22,3.22,0,0,0,.12-1.61,2.51,2.51,0,0,0-.67-1.3l-.36.82a1.8,1.8,0,0,1,.37,1.78,1.3,1.3,0,0,1-.67.84,1.28,1.28,0,0,1-1.13-.09c.4-1.24.8-2.48,1.19-3.72l-.17-.11a1.8,1.8,0,0,0-1.69-.22,2,2,0,0,0-1,1.33,3.08,3.08,0,0,0,0,2,2.77,2.77,0,0,0,1.31,1.52,1.78,1.78,0,0,0,1.67.21A2.26,2.26,0,0,0,226.39,140.24Zm-1.71,5.35a3.39,3.39,0,0,0,.13-1.62,2.57,2.57,0,0,0-.68-1.29l-.36.82a1.79,1.79,0,0,1,.37,1.78,1.32,1.32,0,0,1-.67.84,1.25,1.25,0,0,1-1.13-.1c.4-1.24.8-2.48,1.19-3.71l-.17-.11a1.8,1.8,0,0,0-1.69-.22,2.06,2.06,0,0,0-1,1.33,3.08,3.08,0,0,0,0,2,2.84,2.84,0,0,0,1.31,1.52,1.75,1.75,0,0,0,1.67.2A2.18,2.18,0,0,0,224.68,145.59Zm-1.44,4.18.27-.85-2.45-1.41a2,2,0,0,0-.92-.33.94.94,0,0,0-.66.32,2,2,0,0,0-.47.86,2.6,2.6,0,0,0,.05,1.8l-1.91-1.1-.27.84,5.33,3.08.27-.84-2.11-1.22a2,2,0,0,1-.67-.56,1.72,1.72,0,0,1-.18-1.5,1,1,0,0,1,.47-.65.89.89,0,0,1,.8.14Zm-.59-22.28.27-.84-2.65-1.53a1.17,1.17,0,0,0-1.11-.16,1.47,1.47,0,0,0-.68,1,2.52,2.52,0,0,0,.18,1.93.9.9,0,0,0-.66.21,1.73,1.73,0,0,0-.46.81,2.25,2.25,0,0,0-.11,1,2.41,2.41,0,0,0,.25.89l-.54-.32-.24.76,3.86,2.23.27-.84-2-1.16a1.75,1.75,0,0,1-1.05-1.29,1.82,1.82,0,0,1,.06-.74c.1-.32.25-.5.44-.55a.93.93,0,0,1,.72.17l2.51,1.45.27-.85-2.24-1.29a1.54,1.54,0,0,1-.76-.85,1.58,1.58,0,0,1,0-1,1,1,0,0,1,.26-.45.52.52,0,0,1,.38-.14,1.92,1.92,0,0,1,.59.25Zm-1.24,28.34a2.64,2.64,0,0,0-.76-2.89l-.35.78a1.58,1.58,0,0,1,.56,1.81,1.15,1.15,0,0,1-.67.8,1.53,1.53,0,0,1-1.26-.27,2.07,2.07,0,0,1-1-1.05,1.82,1.82,0,0,1,0-1.24,1.12,1.12,0,0,1,.42-.61.92.92,0,0,1,.72-.07c.06-.3.11-.59.17-.88-.95-.29-1.56.34-1.86,1.28a3.31,3.31,0,0,0-.15,1.33,2.42,2.42,0,0,0,.45,1.22,3,3,0,0,0,1,.9,1.83,1.83,0,0,0,1.68.24A2.08,2.08,0,0,0,221.41,155.83Zm-1.26-20.49c.09-.3.19-.59.28-.89a1.19,1.19,0,0,1-.53-.06,21.42,21.42,0,0,1-2.05-1.11,3.42,3.42,0,0,0-.62-.31.87.87,0,0,0-.53,0,1.26,1.26,0,0,0-.48.42,3.28,3.28,0,0,0-.44,1,3.33,3.33,0,0,0-.08,2.18,2.27,2.27,0,0,0,.55.75l.35-.77a1.48,1.48,0,0,1-.44-.75,2,2,0,0,1,.12-1,1.46,1.46,0,0,1,.53-.83c.16-.1.37-.07.64.08l.17.11a9.59,9.59,0,0,1-.26,1.64,4,4,0,0,0-.12,1.54,1.59,1.59,0,0,0,.7,1.12.89.89,0,0,0,.94,0,1.83,1.83,0,0,0,.72-1.08,3.78,3.78,0,0,0,0-2.16A1.33,1.33,0,0,0,220.15,135.34Zm-2.05,6.72a3.13,3.13,0,0,0,.13-1.61,2.49,2.49,0,0,0-.68-1.3l-.36.82a1.78,1.78,0,0,1,.38,1.78,1.34,1.34,0,0,1-.68.84,1.23,1.23,0,0,1-1.12-.1c.4-1.23.79-2.47,1.19-3.71l-.18-.11a1.78,1.78,0,0,0-1.68-.22,2,2,0,0,0-1,1.33,3.08,3.08,0,0,0,0,2,2.8,2.8,0,0,0,1.31,1.52,1.78,1.78,0,0,0,1.67.21A2.22,2.22,0,0,0,218.1,142.06Zm-1.78,5.26.27-.85-2-1.17a2.74,2.74,0,0,1-.72-.58,1.17,1.17,0,0,1,.11-1.63c-.17-.21-.34-.43-.52-.64a1.52,1.52,0,0,0-.53,1.36,2.71,2.71,0,0,0,.37.85l-.58-.34c-.08.26-.16.51-.25.77Zm-.8,2.84a2.66,2.66,0,0,0-.76-2.9l-.35.78a1.6,1.6,0,0,1,.59.85,1.58,1.58,0,0,1,0,1,1.17,1.17,0,0,1-.67.81,1.51,1.51,0,0,1-1.25-.27,2.13,2.13,0,0,1-1-1,1.82,1.82,0,0,1,0-1.24,1.08,1.08,0,0,1,.42-.61.92.92,0,0,1,.72-.08c.06-.29.11-.58.17-.88-1-.28-1.56.35-1.86,1.29a3.28,3.28,0,0,0-.15,1.32,2.42,2.42,0,0,0,.45,1.23,3.16,3.16,0,0,0,1,.9,1.79,1.79,0,0,0,1.68.23A2,2,0,0,0,215.52,150.16Z"/><path class="cls-3" d="M218.58,117.2h0a7,7,0,0,1,3.79,1l8.22,4.75a10.55,10.55,0,0,1,4.61,6.14,14.05,14.05,0,0,1-.07,8.27l-5.92,18.52a9.43,9.43,0,0,1-4.57,5.84,6.47,6.47,0,0,1-2.37.64,7,7,0,0,1-4-1l-8.22-4.75a10.61,10.61,0,0,1-4.61-6.15,13.94,13.94,0,0,1,.08-8.26l5.91-18.52a9.5,9.5,0,0,1,4.57-5.84A6.36,6.36,0,0,1,218.58,117.2Zm-12,30.45a9.14,9.14,0,0,0,4.16,7.09l8.22,4.74a5.33,5.33,0,0,0,5.45.13,6,6,0,0,0,1.29-1,8.75,8.75,0,0,0,2.1-3.59l5.92-18.52a11.35,11.35,0,0,0,.48-4.6,9.08,9.08,0,0,0-4.16-7.08l-8.22-4.75a6.66,6.66,0,0,0-1.13-.51,5.3,5.3,0,0,0-5.61,1.38,9,9,0,0,0-2.1,3.59L207,143.05A11.39,11.39,0,0,0,206.54,147.65Z"/><path class="cls-2" d="M239.93,137.5l-2.28,7.12-1.73,5.43-.16.52a7.81,7.81,0,0,1-3.45,4.61h0l-1.19.68a.29.29,0,0,1,0-.11l2.29-7.16,1.73-5.43,1.9-5.93a13.94,13.94,0,0,0,.06-8.26,11.48,11.48,0,0,0-1.93-3.78l1.08.61a8,8,0,0,1,2.93,3.08A11,11,0,0,1,239.93,137.5Z"/><path class="cls-21" d="M229.76,128.47a3.16,3.16,0,0,1-.13,1.62,2.18,2.18,0,0,1-1.08,1.43,1.75,1.75,0,0,1-1.67-.2,2.8,2.8,0,0,1-1.3-1.53,3.08,3.08,0,0,1,0-2,2,2,0,0,1,1-1.33,1.79,1.79,0,0,1,1.68.23l.18.1c-.4,1.24-.8,2.48-1.19,3.72a1.27,1.27,0,0,0,1.12.1,1.29,1.29,0,0,0,.67-.85,1.77,1.77,0,0,0-.37-1.77l.36-.83A2.6,2.6,0,0,1,229.76,128.47Zm-3,1.69c.3-.93.6-1.85.89-2.78a1.06,1.06,0,0,0-.83-.1,1.19,1.19,0,0,0-.71.82,1.84,1.84,0,0,0,0,1.16A1.62,1.62,0,0,0,226.77,130.16Z"/><path class="cls-21" d="M228,133.08a3,3,0,0,1,0,2.12c-.34,1-.88,1.75-1.92,1.41,0-.3.11-.6.16-.89a.78.78,0,0,0,.72-.05,1.41,1.41,0,0,0,.5-.78,1.9,1.9,0,0,0,.09-1,.78.78,0,0,0-.34-.53.34.34,0,0,0-.43.05c-.26.22-.8,1.36-1.22,1.84a.84.84,0,0,1-1.12.22,1.52,1.52,0,0,1-.67-1.06c-.17-1,.42-2.62,1.16-2.83a1.25,1.25,0,0,1,.7.06l-.18.87a.63.63,0,0,0-.57.06,1.23,1.23,0,0,0-.41.67,1.81,1.81,0,0,0-.12.92.67.67,0,0,0,.27.45c.21.11.39,0,.54-.2s.75-1.28,1.11-1.72a1,1,0,0,1,.52-.36.82.82,0,0,1,.63.12A1.44,1.44,0,0,1,228,133.08Z"/><path class="cls-22" d="M227.66,127.38c-.29.93-.59,1.85-.89,2.78a1.62,1.62,0,0,1-.66-.9,1.84,1.84,0,0,1,0-1.16,1.19,1.19,0,0,1,.71-.82A1.06,1.06,0,0,1,227.66,127.38Z"/><path class="cls-21" d="M226.51,138.63a3.22,3.22,0,0,1-.12,1.61,2.26,2.26,0,0,1-1.08,1.44,1.78,1.78,0,0,1-1.67-.21,2.77,2.77,0,0,1-1.31-1.52,3.08,3.08,0,0,1,0-2,2,2,0,0,1,1-1.33,1.8,1.8,0,0,1,1.69.22l.17.11c-.39,1.24-.79,2.48-1.19,3.72a1.28,1.28,0,0,0,1.13.09,1.3,1.3,0,0,0,.67-.84,1.8,1.8,0,0,0-.37-1.78l.36-.82A2.51,2.51,0,0,1,226.51,138.63Zm-3,1.69c.3-.93.59-1.86.89-2.79a1.11,1.11,0,0,0-.83-.1,1.22,1.22,0,0,0-.72.83,1.88,1.88,0,0,0,0,1.15A1.7,1.7,0,0,0,223.53,140.32Z"/><path class="cls-21" d="M224.81,144a3.39,3.39,0,0,1-.13,1.62A2.18,2.18,0,0,1,223.6,147a1.75,1.75,0,0,1-1.67-.2,2.84,2.84,0,0,1-1.31-1.52,3.08,3.08,0,0,1,0-2,2.06,2.06,0,0,1,1-1.33,1.8,1.8,0,0,1,1.69.22l.17.11c-.39,1.23-.79,2.47-1.19,3.71a1.25,1.25,0,0,0,1.13.1,1.32,1.32,0,0,0,.67-.84,1.79,1.79,0,0,0-.37-1.78l.36-.82A2.57,2.57,0,0,1,224.81,144Zm-3,1.7c.3-.93.59-1.86.89-2.79a1.11,1.11,0,0,0-.83-.1,1.2,1.2,0,0,0-.72.83,2,2,0,0,0,0,1.15A1.7,1.7,0,0,0,221.82,145.67Z"/><path class="cls-22" d="M224.42,137.53c-.3.93-.59,1.86-.89,2.79a1.7,1.7,0,0,1-.67-.91,1.88,1.88,0,0,1,0-1.15,1.22,1.22,0,0,1,.72-.83A1.11,1.11,0,0,1,224.42,137.53Z"/><path class="cls-21" d="M223.51,148.92l-.27.85-2.45-1.42a.89.89,0,0,0-.8-.14,1,1,0,0,0-.47.65,1.72,1.72,0,0,0,.18,1.5,2,2,0,0,0,.67.56l2.11,1.22-.27.84-5.33-3.08.27-.84,1.91,1.1a2.6,2.6,0,0,1-.05-1.8,2,2,0,0,1,.47-.86.94.94,0,0,1,.66-.32,2,2,0,0,1,.92.33Z"/><path class="cls-21" d="M222.92,126.65l-.27.84-2.43-1.4a1.92,1.92,0,0,0-.59-.25.52.52,0,0,0-.38.14,1,1,0,0,0-.26.45,1.58,1.58,0,0,0,0,1,1.54,1.54,0,0,0,.76.85L222,129.6l-.27.85L219.2,129a.93.93,0,0,0-.72-.17c-.19,0-.34.23-.44.55a1.82,1.82,0,0,0-.06.74,1.75,1.75,0,0,0,1.05,1.29l2,1.16-.27.84-3.86-2.23.24-.76.54.32a2.41,2.41,0,0,1-.25-.89,2.25,2.25,0,0,1,.11-1,1.73,1.73,0,0,1,.46-.81.9.9,0,0,1,.66-.21,2.52,2.52,0,0,1-.18-1.93,1.47,1.47,0,0,1,.68-1,1.17,1.17,0,0,1,1.11.16Z"/><path class="cls-22" d="M222.71,142.88c-.3.93-.59,1.86-.89,2.79a1.7,1.7,0,0,1-.67-.91,2,2,0,0,1,0-1.15,1.2,1.2,0,0,1,.72-.83A1.11,1.11,0,0,1,222.71,142.88Z"/><path class="cls-21" d="M220.65,152.94a2.64,2.64,0,0,1,.76,2.89,2.08,2.08,0,0,1-1,1.35,1.83,1.83,0,0,1-1.68-.24,3,3,0,0,1-1-.9,2.42,2.42,0,0,1-.45-1.22,3.31,3.31,0,0,1,.15-1.33c.3-.94.91-1.57,1.86-1.28-.06.29-.11.58-.17.88a.92.92,0,0,0-.72.07,1.12,1.12,0,0,0-.42.61,1.82,1.82,0,0,0,0,1.24,2.07,2.07,0,0,0,1,1.05,1.53,1.53,0,0,0,1.26.27,1.15,1.15,0,0,0,.67-.8,1.58,1.58,0,0,0-.56-1.81Z"/><path class="cls-21" d="M220.43,134.45c-.09.3-.19.59-.28.89a1.33,1.33,0,0,1-.53-.11,3.78,3.78,0,0,1,0,2.16,1.83,1.83,0,0,1-.72,1.08.89.89,0,0,1-.94,0,1.59,1.59,0,0,1-.7-1.12,4,4,0,0,1,.12-1.54,9.59,9.59,0,0,0,.26-1.64l-.17-.11c-.27-.15-.48-.18-.64-.08a1.46,1.46,0,0,0-.53.83,2,2,0,0,0-.12,1,1.48,1.48,0,0,0,.44.75l-.35.77a2.27,2.27,0,0,1-.55-.75,3.33,3.33,0,0,1,.08-2.18,3.28,3.28,0,0,1,.44-1,1.26,1.26,0,0,1,.48-.42.87.87,0,0,1,.53,0,3.42,3.42,0,0,1,.62.31,21.42,21.42,0,0,0,2.05,1.11A1.19,1.19,0,0,0,220.43,134.45Zm-1.28,2.44a2.13,2.13,0,0,0-.17-1.78,2.47,2.47,0,0,0-.85-.66c0,.86-.3,1.84-.3,2.34a.85.85,0,0,0,.38.75.49.49,0,0,0,.52,0A1.15,1.15,0,0,0,219.15,136.89Z"/><path class="cls-22" d="M219,135.11a2.13,2.13,0,0,1,.17,1.78,1.15,1.15,0,0,1-.42.65.49.49,0,0,1-.52,0,.85.85,0,0,1-.38-.75c0-.5.3-1.48.3-2.34A2.47,2.47,0,0,1,219,135.11Z"/><path class="cls-21" d="M218.23,140.45a3.13,3.13,0,0,1-.13,1.61A2.22,2.22,0,0,1,217,143.5a1.78,1.78,0,0,1-1.67-.21,2.8,2.8,0,0,1-1.31-1.52,3.08,3.08,0,0,1,0-2,2,2,0,0,1,1-1.33,1.78,1.78,0,0,1,1.68.22l.18.11c-.4,1.24-.79,2.48-1.19,3.71a1.23,1.23,0,0,0,1.12.1,1.34,1.34,0,0,0,.68-.84,1.78,1.78,0,0,0-.38-1.78l.36-.82A2.49,2.49,0,0,1,218.23,140.45Zm-3,1.69c.29-.93.59-1.86.89-2.79a1.14,1.14,0,0,0-.84-.1,1.21,1.21,0,0,0-.71.83,1.81,1.81,0,0,0,0,1.15A1.7,1.7,0,0,0,215.25,142.14Z"/><path class="cls-21" d="M216.59,146.47l-.27.85-3.87-2.23c.09-.26.17-.51.25-.77l.58.34a2.71,2.71,0,0,1-.37-.85,1.52,1.52,0,0,1,.53-1.36c.18.21.35.43.52.64a1.17,1.17,0,0,0-.11,1.63,2.74,2.74,0,0,0,.72.58Z"/><path class="cls-22" d="M216.14,139.35c-.3.93-.6,1.86-.89,2.79a1.7,1.7,0,0,1-.67-.91,1.81,1.81,0,0,1,0-1.15,1.21,1.21,0,0,1,.71-.83A1.14,1.14,0,0,1,216.14,139.35Z"/><path class="cls-21" d="M214.76,147.26a2.66,2.66,0,0,1,.76,2.9,2,2,0,0,1-1.05,1.34,1.79,1.79,0,0,1-1.68-.23,3.16,3.16,0,0,1-1-.9,2.42,2.42,0,0,1-.45-1.23,3.28,3.28,0,0,1,.15-1.32c.3-.94.91-1.57,1.86-1.29-.06.3-.11.59-.17.88a.92.92,0,0,0-.72.08,1.08,1.08,0,0,0-.42.61,1.82,1.82,0,0,0,0,1.24,2.13,2.13,0,0,0,1,1,1.51,1.51,0,0,0,1.25.27,1.17,1.17,0,0,0,.67-.81,1.58,1.58,0,0,0,0-1,1.6,1.6,0,0,0-.59-.85Z"/><path class="cls-7" d="M129,143.28a27,27,0,0,0-6.81,1.79l4.71-2.72a.34.34,0,0,0,0,.1h0c0,.05,0,.09.1.13a1.59,1.59,0,0,0,.32.16,3.91,3.91,0,0,0,1.65.36Z"/><path class="cls-7" d="M126.89,142.35q-1.19-10.14-2.34-20.26c1-.56,1.91-1.11,2.87-1.66q1.17,10.14,2.33,20.26c.06.47.11.95.17,1.42v0a.9.9,0,0,1-.17.61,1.07,1.07,0,0,1-.78.36,3.91,3.91,0,0,1-1.65-.36,1.59,1.59,0,0,1-.32-.16c-.07,0-.1-.08-.1-.13h0A.34.34,0,0,1,126.89,142.35Z"/><path class="cls-7" d="M112.06,250.86a5.34,5.34,0,0,0-2.47-4.21l-.27-.11h0l47.78-27.59,1.83,1.06h0a5.92,5.92,0,0,0,5.12.81v.37l-4,2.28-48,27.75Z"/><path class="cls-7" d="M104.24,180.35a14.51,14.51,0,0,0,3.69,6.18l.36,2.65-4.14-2.39h0a16.47,16.47,0,0,1-2.85-5.71h0q-1.55-6.14-3.07-12.27l3.66,2.11Q103.08,175.65,104.24,180.35Z"/><path class="cls-18" d="M96.36,268.51c-1.54-.87-2.08-2.77-2.08-4.57a11.43,11.43,0,0,1,.44-3.06c.1-.39.22-.77.35-1.14a11.18,11.18,0,0,0,3.81-1v3.08a12.77,12.77,0,0,0-.83,4.3c0,2.37.85,3.86,2.08,4.57h0l-3.77-2.18Z"/><path class="cls-19" d="M112.06,256.45c.89,4.7-2.73,11.62-7.36,14a6.09,6.09,0,0,1-2.68.74,3.82,3.82,0,0,1-1.89-.48c-1.23-.71-2.08-2.2-2.08-4.57a12.77,12.77,0,0,1,.83-4.3v3.72l.56.32,12.62-7.28Z"/><path class="cls-7" d="M127.87,210.2c-8.46,7.5-21.31,19.08-29.77,26.58-3.75,3.3-6.31,8.85-6.29,13h0v.36h0c0,1.6.43,3.75,2,4.15a2.94,2.94,0,0,0,1,0,6,6,0,0,0,1.22-.29h0a4.75,4.75,0,0,1,2.22,1.88,3.89,3.89,0,0,1,.59,1.9v.92a11.18,11.18,0,0,1-3.81,1h-.38c-4.76.11-8.34-3.63-8.29-9.64h0v-.36h0c0-6.13,3.6-13.05,8.11-17h0q9.81-8.72,19.62-17.4a6,6,0,0,0,5.36-.64h0c.68-.39,5.94-8.44,6.62-8.83l1.32.83C128.08,207,127.21,210,127.87,210.2Z"/><path class="cls-7" d="M97.6,160.84a4.47,4.47,0,0,1-1.24-.36c-.09,0-.24-.12-.26-.2h0l0-.13q-2.37-9.44-4.72-18.89l2.74-1.58q2.35,9.45,4.72,18.89c.09.4.19.79.29,1.19h0a.84.84,0,0,1-.69,1.09A2.45,2.45,0,0,1,97.6,160.84Z"/><path class="cls-7" d="M96.36,160.48a4.47,4.47,0,0,0,1.24.36,2.45,2.45,0,0,0,.81,0,.84.84,0,0,0,.69-1.09h0c-.1-.4-.2-.79-.29-1.19l19.06-11c-2.39,1.93,39.65-24.22,39.73-21.87,0,.63.7,3.55.7,4.18-4.52,2.61-53,31.39-57.51,34l-5.58-3.22.86-.49,0,.13h0C96.12,160.36,96.27,160.44,96.36,160.48Z"/><path class="cls-3" d="M96.76,253.84a3.94,3.94,0,0,1,1.62,1.41,5.13,5.13,0,0,1,1.06,2.9v7.71l-.56-.32v-7.72a3.89,3.89,0,0,0-.59-1.9A4.75,4.75,0,0,0,96.07,254h0a6,6,0,0,1-1.22.29,1.31,1.31,0,0,1,.48-.51,1,1,0,0,1,.21-.1A1.68,1.68,0,0,1,96.76,253.84Z"/><path class="cls-20" d="M95.33,253.81,108,246.52a1.57,1.57,0,0,1,1.37,0l.27.11a5.34,5.34,0,0,1,2.47,4.21v7.72l-12.62,7.28v-7.71a5.13,5.13,0,0,0-1.06-2.9,3.94,3.94,0,0,0-1.62-1.41,1.68,1.68,0,0,0-1.22-.13,1,1,0,0,0-.21.1Z"/><path class="cls-7" d="M95.21,167.07l-3.3,1.9c-.18-1.37-.37-2.75-.56-4.13Z"/><path class="cls-20" d="M95.07,259.74c-.13.37-.25.75-.35,1.14h0l0-1.13Z"/><path class="cls-7" d="M92.87,181.84c-.68.42-1.65.77-2.13.14a1.21,1.21,0,0,1-.21-.46s0-.08,0-.12c-.12-.9-.25-1.79-.37-2.69q-.54-4-1.09-8.09-.39-3-.8-6c-.08-.58-.16-1.15-.23-1.73l3.32,1.92c.19,1.38.38,2.76.56,4.13q.78,5.84,1.57,11.66l.06.47h0a.65.65,0,0,1-.26.43A4,4,0,0,1,92.87,181.84Z"/><path class="cls-23" d="M189.81,117.38l-33.53,19.36-6.24-9.1-1.89-2.76V106.43l39.4-22.75Zm-6.58-3.67q-.33-9.84-.65-19.69l-29,16.73q.32,9.84.65,19.69Z"/><path class="cls-24" d="M187.55,83.68l-39.4,22.75v-9L187,75Z"/><path class="cls-25" d="M182.58,94q.33,9.84.65,19.69l-29,16.73q-.33-9.84-.65-19.69Z"/><polygon class="cls-26" points="178.65 70.18 186.96 74.98 148.15 97.39 139.83 92.59 178.65 70.18"/><path class="cls-27" d="M148.14,106.42v18.46c-.87-1.29-1.76-2.57-2.64-3.86a.6.6,0,0,1-.06-.11c-1.35-2-4-3.82-7.15-5.24l.11-1.58.44-6.69.41-6.12,5.1,3C145.62,105,146.87,105.69,148.14,106.42Z"/><path class="cls-28" d="M139.25,101.29l.58-8.7,8.32,4.8v9Z"/><path class="cls-29" d="M176.84,134.65c2.3-3.91,4.55-15.77,3.76-21.15l.17.12a9,9,0,0,0,6.33,1,6.94,6.94,0,0,0,2.78-1.12c-.41,2.8,0,14.83,1,16.62,1.49,2.87,4.66,6,6,13.32,1.55,8.36.67,21.39-1.13,27.15a9.94,9.94,0,0,1-1.67,3.37,9.84,9.84,0,0,1-5.88,3.13,15.44,15.44,0,0,1-8.11-.62,8.1,8.1,0,0,1-4.21-3.31,16.51,16.51,0,0,1-1.72-5c-.33-1.56-.63-3.49-.86-5.64a85.42,85.42,0,0,1-.42-11.22,44.18,44.18,0,0,1,1.43-10.69A25.44,25.44,0,0,1,176.84,134.65Zm19.77,23.54c0-3.36,0-6.51-.17-9-1.56,2.27-4.71,3.52-7.4,4a20,20,0,0,1-10.12-.68c.15,2.9.2,6,.17,9a20.64,20.64,0,0,0,10.06.58C191.84,161.6,195,160.38,196.61,158.19Z"/><path class="cls-30" d="M196.44,149.19c.13,2.49.2,5.64.17,9-1.65,2.19-4.77,3.41-7.46,3.93a20.64,20.64,0,0,1-10.06-.58c0-3,0-6.09-.17-9a20,20,0,0,0,10.12.68C191.73,152.71,194.88,151.46,196.44,149.19Z"/><path class="cls-31" d="M179.33,111.35v-4.86a2.4,2.4,0,0,0,.72,1.63,5.45,5.45,0,0,0,2.36,1.37,9.87,9.87,0,0,0,4.69.24,7,7,0,0,0,2.76-1.11,2.74,2.74,0,0,0,1.29-2.12v4.89a2.34,2.34,0,0,1-.62,1.52,3.65,3.65,0,0,1-.65.59h0a6.94,6.94,0,0,1-2.78,1.12,9,9,0,0,1-6.33-1l-.17-.12A2.7,2.7,0,0,1,179.33,111.35Z"/><path class="cls-31" d="M187.53,103.11c2.48.83,3,2.71,1.3,4a7.06,7.06,0,0,1-6.84.22c-2-1.16-1.71-3.07.55-4A7.55,7.55,0,0,1,187.53,103.11Z"/><path class="cls-32" d="M188.83,107.07c1.73-1.25,1.18-3.13-1.3-4a7.55,7.55,0,0,0-5,.16c-2.26,1-2.56,2.86-.55,4A7.06,7.06,0,0,0,188.83,107.07Zm2.32-.68v.1h0a2.74,2.74,0,0,1-1.29,2.12,7,7,0,0,1-2.76,1.11,9.87,9.87,0,0,1-4.69-.24,5.45,5.45,0,0,1-2.36-1.37,2.4,2.4,0,0,1-.72-1.63v0a3.22,3.22,0,0,1,1-2.2c2.07-2.08,6.64-2.28,9.17-.54A3.43,3.43,0,0,1,191.15,106.39Z"/><path class="cls-33" d="M171.61,156.56,156,155.51l8.43-6,16.09-2.64S201,154.49,171.61,156.56Z"/><path class="cls-34" d="M170,152.57a3.31,3.31,0,0,0-4.2-1.2,4.22,4.22,0,0,0-2,1.52,2.89,2.89,0,0,0-.55,1.65l-7.23,1V144.44l10.34-1.38-.12.09c-1.37,1.09-1.39,2.85,0,3.58a3.26,3.26,0,0,0,4-1.2,1.92,1.92,0,0,0-.81-2.89l4.07-.54a2.71,2.71,0,0,0,.19,1,2.66,2.66,0,0,0,.78,1.06,3.91,3.91,0,0,0,3,.74,2.73,2.73,0,0,0,1.83-1.11,5,5,0,0,0,.84-2.53c0-.45.07-.93.07-1.39a5.16,5.16,0,0,0,.31-1.65v11a5.31,5.31,0,0,1-.38,1.94,2.49,2.49,0,0,1-1.38,1.2,5.22,5.22,0,0,1-1.29.34l-7.23,1a2.22,2.22,0,0,0-.21-1Z"/><path class="cls-35" d="M173.39,141.65a1.69,1.69,0,0,1,.68-1.37,4.69,4.69,0,0,1,2.45-1,6.39,6.39,0,0,1,3.65.55c0,.46,0,.94-.07,1.39a5,5,0,0,1-.84,2.53,2.73,2.73,0,0,1-1.83,1.11,3.91,3.91,0,0,1-3-.74,2.66,2.66,0,0,1-.78-1.06,2.71,2.71,0,0,1-.19-1A1.53,1.53,0,0,1,173.39,141.65Z"/><path class="cls-35" d="M173.8,132.62a1.47,1.47,0,0,1,.3.86,1.62,1.62,0,0,1-.59,1.19,5.64,5.64,0,0,1-6.22.14c-1.37-1-.9-2.55,1.1-3.22a6.33,6.33,0,0,1,3.56-.08A3.4,3.4,0,0,1,173.8,132.62Z"/><path class="cls-36" d="M174.1,133.48a1.47,1.47,0,0,0-.3-.86,3.4,3.4,0,0,0-1.85-1.11,6.33,6.33,0,0,0-3.56.08c-2,.67-2.47,2.19-1.1,3.22a5.64,5.64,0,0,0,6.22-.14A1.62,1.62,0,0,0,174.1,133.48ZM161,136.53v-.05a1.67,1.67,0,0,0-.58-1.22,4.68,4.68,0,0,0-2.43-1l1.42-3.07a3.37,3.37,0,0,1,2.61-1.46,24.69,24.69,0,0,1,10.94.92,13.49,13.49,0,0,1,5.93,3.64,5.88,5.88,0,0,1,1.57,4,5.16,5.16,0,0,1-.31,1.65,6.39,6.39,0,0,0-3.65-.55,4.69,4.69,0,0,0-2.45,1,1.69,1.69,0,0,0-.68,1.37,1.53,1.53,0,0,0,.1.45l-4.07.54a5,5,0,0,0-3.12.42L156,144.44A2.47,2.47,0,0,1,154,144a.72.72,0,0,1-.24-.51.66.66,0,0,1,.06-.27l2-4.42a6.7,6.7,0,0,0,1.42.07,5.56,5.56,0,0,0,2.52-.68A2,2,0,0,0,161,136.53Z"/><path class="cls-35" d="M170,152.63a2.22,2.22,0,0,1,.21,1,2.1,2.1,0,0,0-.8-.9,5.46,5.46,0,0,0-3.51-.65,4.35,4.35,0,0,0-2.15.84,4.22,4.22,0,0,1,2-1.52,3.31,3.31,0,0,1,4.2,1.2Z"/><path class="cls-35" d="M169.42,142.64a1.92,1.92,0,0,1,.81,2.89,3.26,3.26,0,0,1-4,1.2c-1.39-.73-1.37-2.49,0-3.58l.12-.09A5,5,0,0,1,169.42,142.64Z"/><path class="cls-35" d="M158,134.21a4.68,4.68,0,0,1,2.43,1,1.67,1.67,0,0,1,.58,1.22v.05a2,2,0,0,1-1.19,1.61,5.56,5.56,0,0,1-2.52.68A17.34,17.34,0,0,0,158,134.21Z"/><path class="cls-34" d="M153.78,154.51V143.44a.72.72,0,0,0,.24.51,2.47,2.47,0,0,0,1.94.49v11.07a2.6,2.6,0,0,1-1.85-.41A.76.76,0,0,1,153.78,154.51Z"/><path class="cls-33" d="M190.74,178c4.91,2.83,4.91,7.44,0,10.28s-12.88,2.83-17.8,0-4.91-7.45,0-10.28S185.82,175.19,190.74,178Z"/><path class="cls-37" d="M189.21,147v35.38c0,1.76-1.16,3.51-3.48,4.85a15.53,15.53,0,0,1-5.85,1.85,18.25,18.25,0,0,1-10.94-1.85c-2.32-1.34-3.48-3.09-3.48-4.85V147h0a4.18,4.18,0,0,1,.21-1.35l4.16-12.07,10.29-.31,4.55-.14L189,145.68a.05.05,0,0,1,0,0l0,0h0a4.22,4.22,0,0,1,.18,1.26Z"/><path class="cls-37" d="M184.7,133.14c.48,1.38-.2,2.87-2,3.93a11.72,11.72,0,0,1-10.63,0c-1.66-.95-2.38-2.23-2.17-3.48h0l0-3.93h0a3.06,3.06,0,0,0,1,2.17,5.53,5.53,0,0,0,1.2.9,7.83,7.83,0,0,0,1.72.74,12.28,12.28,0,0,0,7.86-.24,7.24,7.24,0,0,0,1-.5,5.63,5.63,0,0,0,1.18-.9,3.13,3.13,0,0,0,1-2l-.14,3.25Z"/><path class="cls-38" d="M185,177.43c4.23,2.44,4.23,6.4,0,8.84a16.93,16.93,0,0,1-15.31,0c-4.23-2.44-4.23-6.4,0-8.84A16.93,16.93,0,0,1,185,177.43Z"/><path class="cls-37" d="M169.86,133.59l0-3.93Z"/><path class="cls-39" d="M184.83,134.33a3.32,3.32,0,0,1-1,2A6.63,6.63,0,0,1,182,137.6a11.21,11.21,0,0,1-4.42,1,11.69,11.69,0,0,1-4.45-.8,7.4,7.4,0,0,1-2-1.16,3.63,3.63,0,0,1-1.21-1.87,3.66,3.66,0,0,0,1.34,1.71,7.5,7.5,0,0,0,1.94,1,12,12,0,0,0,4.32.67,11.41,11.41,0,0,0,4.29-.82,6.33,6.33,0,0,0,1.87-1.12A3.33,3.33,0,0,0,184.83,134.33Z"/><path class="cls-40" d="M184.85,129.66c0,.08,0,.14,0,.22a3.13,3.13,0,0,1-1,2,5.63,5.63,0,0,1-1.18.9,7.24,7.24,0,0,1-1,.5,12.28,12.28,0,0,1-7.86.24,7.83,7.83,0,0,1-1.72-.74,5.53,5.53,0,0,1-1.2-.9,3.06,3.06,0,0,1-1-2.17,3.71,3.71,0,0,1,2.2-3.06,11.72,11.72,0,0,1,10.63,0A3.74,3.74,0,0,1,184.85,129.66Z"/><path class="cls-37" d="M177.35,133.15a11.35,11.35,0,0,1-3.35-.49,7.23,7.23,0,0,1-1.55-.66,4.87,4.87,0,0,1-1-.77,2.23,2.23,0,0,1-.75-1.57,3,3,0,0,1,1.77-2.33,10.89,10.89,0,0,1,9.78,0,3,3,0,0,1,1.77,2.33v.22a2.35,2.35,0,0,1-.75,1.35,4.77,4.77,0,0,1-1,.76,6.29,6.29,0,0,1-.94.45A10.6,10.6,0,0,1,177.35,133.15Z"/><polygon class="cls-38" points="166.51 146.2 166.51 182.39 188.12 182.39 188.16 146.02 166.51 146.2"/><path class="cls-41" d="M185,141.78c4.23,2.44,4.23,6.4,0,8.84a16.93,16.93,0,0,1-15.31,0c-4.23-2.44-4.23-6.4,0-8.84A16.86,16.86,0,0,1,185,141.78Z"/><path class="cls-39" d="M165.76,148.54a6.49,6.49,0,0,0,2.18,2.41,12.11,12.11,0,0,0,2.9,1.45,19.87,19.87,0,0,0,6.4,1,20.18,20.18,0,0,0,6.41-1,12.46,12.46,0,0,0,2.92-1.4,6.75,6.75,0,0,0,2.26-2.34,6.36,6.36,0,0,1-2,2.67,13,13,0,0,1-2.94,1.68,17.81,17.81,0,0,1-6.65,1.21,22.34,22.34,0,0,1-3.37-.31,17.37,17.37,0,0,1-3.25-1,12.33,12.33,0,0,1-2.92-1.74A6.12,6.12,0,0,1,165.76,148.54Z"/><path class="cls-39" d="M168.22,184.43h0a3.54,3.54,0,0,1-1.71-2.69v-28.3c0-.94.77-1.27,1.71-.73h0a3.58,3.58,0,0,1,1.71,2.7v28.3C169.93,184.65,169.16,185,168.22,184.43Z"/><g class="cls-1"><path class="cls-42" d="M169.16,163.5a26.33,26.33,0,0,0,16.47-.49c1-.34,1.57,0,1.62.82v3.38a2.69,2.69,0,0,1-1.63,2.28,26.26,26.26,0,0,1-16.47.49,2.48,2.48,0,0,1-1.71-2.16v-3.38c.06-1,.93-1.17,1.72-.94Z"/></g><path class="cls-43" d="M177.08,167H177c-.2,0-.34.12-.35.28V169c0,.16.14.27.35.27h.07a.32.32,0,0,0,.34-.28v-1.74c0-.19-.18-.27-.35-.27Zm0-.83H177c-.32,0-.44.29-.27.46a.43.43,0,0,0,.27.1h.07c.32,0,.44-.3.27-.46a.34.34,0,0,0-.27-.1Z"/><path class="cls-43" d="M179.09,166.07a.4.4,0,0,0-.38.33v2.51c0,.31.45.35.66.13a.36.36,0,0,0,.09-.2v-2.5c0-.24-.25-.28-.37-.27Z"/><path class="cls-43" d="M181.07,165.83a.4.4,0,0,0-.36.35v2.5c0,.31.44.32.63.09a.38.38,0,0,0,.09-.21v-.12a.64.64,0,0,1,0-.22h0l0-.07a.31.31,0,0,1,.21-.15h0a.2.2,0,0,1,.2.05l0,0c.46.58.46.58.66.54l.06,0c.27-.08.42-.33.29-.52-.69-.81-.69-.81-.5-1,.35-.4.35-.4.37-.47a.21.21,0,0,0-.24-.25h-.07a.46.46,0,0,0-.26.17c-.65.74-.81.18-.81.17v-.63c0-.23-.24-.25-.35-.23Z"/><path class="cls-43" d="M174.89,166.13h-.22a.47.47,0,0,0-.51.28,11.34,11.34,0,0,1-.49,1.63c0,.07-.19.08-.25,0v0c-.48-1.75-.48-1.75-.5-1.78a.57.57,0,0,0-.47-.33l-.23,0c-.3,0-.5.09-.52.33v2.38a.43.43,0,0,0,.67.29.2.2,0,0,0,.06-.16v-1.42h0c0-.13.21-.1.27,0h0c.38,1.23.38,1.23.47,1.32a.56.56,0,0,0,.83,0l0-.06c.12-.35.24-.7.35-1.05a.16.16,0,0,1,.28,0v0h0a9.57,9.57,0,0,0,0,1.51.44.44,0,0,0,.66.14.23.23,0,0,0,.08-.19v-2.38a.53.53,0,0,0-.53-.45Z"/><path class="cls-33" d="M189.21,147v35.38c0,1.76-1.16,3.51-3.48,4.85a15.53,15.53,0,0,1-5.85,1.85,2.84,2.84,0,0,0,2-2.38V147.86c0-3.54-1.15-11.21-1.69-14.58l4.66-2.12-.11,2L189,145.68a.05.05,0,0,1,0,0l0,0h0a4.22,4.22,0,0,1,.18,1.26Z"/><path class="cls-44" d="M185.24,129.66c0,.08,0,.15,0,.23a3.22,3.22,0,0,1-1,2.05,6,6,0,0,1-1.24.95,7.58,7.58,0,0,1-1.11.53,12.34,12.34,0,0,1-5.15.79h0a13.05,13.05,0,0,1-3.11-.54,8.17,8.17,0,0,1-1.81-.78,6.1,6.1,0,0,1-1.26-.95,3.22,3.22,0,0,1-1.05-2.28c0-1.17.76-2.33,2.31-3.23a12.4,12.4,0,0,1,8.34-1,9.58,9.58,0,0,1,2.85,1A4,4,0,0,1,185.24,129.66Z"/><path class="cls-45" d="M185.24,129.66c0,.08,0,.15,0,.23a3.22,3.22,0,0,1-1,2.05,6,6,0,0,1-1.24.95,7.58,7.58,0,0,1-1.11.53,12.34,12.34,0,0,1-5.15.79c1.16-.48,1.28-1.07,1.28-1.07l2.13-7.75a9.58,9.58,0,0,1,2.85,1A4,4,0,0,1,185.24,129.66Z"/><path class="cls-46" d="M185.25,128.58c0,.08,0,.16,0,.24a3.31,3.31,0,0,1-1.06,2.05,6,6,0,0,1-1.25.95,9.13,9.13,0,0,1-1.09.52,12.89,12.89,0,0,1-8.28.25,8.15,8.15,0,0,1-1.81-.77,6.1,6.1,0,0,1-1.26-.95,3.25,3.25,0,0,1-1.05-2.29,3.91,3.91,0,0,1,2.31-3.22,12.31,12.31,0,0,1,11.18,0C184.47,126.25,185.25,127.41,185.25,128.58Z"/><path class="cls-33" d="M203.43,189.58l10.59.57,1-.63,5.8-4.75a5.35,5.35,0,0,0,1.56-2.08l.18-.42.52-4.33-11.37-1.27Z"/><path class="cls-47" d="M194.21,162.81l1-1.33,8.21,4.75-.26,1.73Z"/><path class="cls-47" d="M195.19,161.48l-1,1.33,1-2.11Z"/><path class="cls-48" d="M203.4,166.23l-8.21-4.75v-4.1l8.21,4.74Z"/><path class="cls-49" d="M203.14,168l.26-1.73,11.21-1.74.72,1.58Z"/><path class="cls-50" d="M214.61,164.49l-11.21,1.74v-4.11l11.21-1.73Z"/><path class="cls-51" d="M215.33,166.07l-.72-1.58,3-6.48,1,1Z"/><path class="cls-52" d="M217.62,158l-3,6.48v-4.1l3-6.48Z"/><path class="cls-53" d="M215.33,166.07l3.27-7v20.51l-3.27,7Z"/><path class="cls-54" d="M215.72,166l2.19-4.73a.18.18,0,0,1,.35.08v18a.54.54,0,0,1-.06.25L216,184.36a.17.17,0,0,1-.33-.07v-18A.54.54,0,0,1,215.72,166Z"/><path class="cls-55" d="M203.14,168l12.19-1.89v20.51l-12.19,1.89Z"/><path class="cls-35" d="M204,168.17l10.3-1.6a.61.61,0,0,1,.7.61v18.59a.6.6,0,0,1-.51.6l-10.3,1.6a.62.62,0,0,1-.71-.61V168.77A.61.61,0,0,1,204,168.17Z"/><path class="cls-56" d="M194.21,162.81l8.93,5.15v20.51l-8.93-5.16Z"/><path class="cls-34" d="M194.55,182.76V164.44a.6.6,0,0,1,.91-.52l7,4.06a.6.6,0,0,1,.3.53v18.32a.61.61,0,0,1-.91.53l-7-4.07A.6.6,0,0,1,194.55,182.76Z"/><path class="cls-57" d="M203.4,162.12l-8.21-4.74,3-6.48,11.22-1.73,8.21,4.74-3,6.48Z"/><path class="cls-58" d="M196.69,155.75l1-2.17a4.28,4.28,0,0,1,3.21-2.42l6.9-1.06a4.18,4.18,0,0,1,2.77.52l4.64,2.67a2,2,0,0,1,.79,2.51l-.89,1.91a4.25,4.25,0,0,1-3.2,2.42L205,161.2a4.28,4.28,0,0,1-2.78-.53l-4.88-2.82A1.63,1.63,0,0,1,196.69,155.75Z"/><path class="cls-59" d="M215.33,186.58l-.81,1.29-11.09,1.71-.29-1.11Z"/><path class="cls-60" d="M195.32,184.9l-1.11-1.59,8.93,5.16.29,1.11Z"/><polygon class="cls-33" points="203.4 166.23 206.4 167.46 215.33 166.07 218.59 159.03 217.62 158.01 214.62 164.49 203.4 166.23"/><path class="cls-47" d="M197.21,169.2l3,1.72v.29l-1.29-.74v1.76l1.29.75v.28l-3-1.73v-.28l1.46.85v-1.77l-1.46-.85Z"/><path class="cls-47" d="M197.15,173a.87.87,0,0,1,.07-.35.38.38,0,0,1,.22-.19.58.58,0,0,1,.35,0,1.68,1.68,0,0,1,.49.2,2.83,2.83,0,0,1,.45.32,2.57,2.57,0,0,1,.35.39,1.88,1.88,0,0,1,.25.46,1.36,1.36,0,0,1,.09.48.7.7,0,0,1-.09.39.43.43,0,0,1-.24.18.77.77,0,0,1-.36,0,2.08,2.08,0,0,1-.45-.19,3.22,3.22,0,0,1-.46-.34,2.71,2.71,0,0,1-.36-.41,1.74,1.74,0,0,1-.23-.45A1.47,1.47,0,0,1,197.15,173Zm1.13,1.38a2.84,2.84,0,0,0,.36.17.77.77,0,0,0,.29,0,.29.29,0,0,0,.19-.11.47.47,0,0,0,.07-.3.94.94,0,0,0-.07-.37,1.55,1.55,0,0,0-.21-.35,2,2,0,0,0-.29-.29,2.35,2.35,0,0,0-.7-.41.6.6,0,0,0-.29,0,.25.25,0,0,0-.19.12.51.51,0,0,0-.07.27,1,1,0,0,0,.08.38,1.25,1.25,0,0,0,.21.35,1.59,1.59,0,0,0,.29.29A2.52,2.52,0,0,0,198.28,174.37Z"/><path class="cls-47" d="M197.21,174.72v-.25l2.15,1.24V176l-.3-.17a4.39,4.39,0,0,1,.26.46,1.13,1.13,0,0,1,.1.44.81.81,0,0,1-.07.33.29.29,0,0,1-.24.15.51.51,0,0,1-.24,0l-.25-.14-1.41-.81v-.25l1.4.81a.62.62,0,0,0,.44.12c.09,0,.14-.14.14-.34a.85.85,0,0,0,0-.23,1.6,1.6,0,0,0-.1-.23,2.39,2.39,0,0,0-.13-.21,1.29,1.29,0,0,0-.16-.17.94.94,0,0,0-.2-.16l-.2-.13Z"/><path class="cls-47" d="M198.23,177.52a1.88,1.88,0,0,0-.34-.14.48.48,0,0,0-.26,0,.26.26,0,0,0-.19.12.48.48,0,0,0-.07.27,1.16,1.16,0,0,0,.13.5,1.52,1.52,0,0,0,.37.44V179a4,4,0,0,1-.29-.29,2.18,2.18,0,0,1-.22-.31,1.65,1.65,0,0,1-.16-.36,1.6,1.6,0,0,1,0-.39.7.7,0,0,1,.09-.39.35.35,0,0,1,.24-.17.73.73,0,0,1,.35,0,1.55,1.55,0,0,1,.44.2,2.83,2.83,0,0,1,.45.32,2.3,2.3,0,0,1,.36.41,1.66,1.66,0,0,1,.25.45,1.25,1.25,0,0,1,.09.46c0,.3-.11.47-.31.52a1.23,1.23,0,0,1-.88-.26Zm.2,1.53a1.17,1.17,0,0,0,.3.12.4.4,0,0,0,.24,0,.21.21,0,0,0,.16-.12.48.48,0,0,0,.06-.26.87.87,0,0,0-.06-.32,1.41,1.41,0,0,0-.17-.32,2.09,2.09,0,0,0-.24-.28,2.17,2.17,0,0,0-.29-.24Z"/><path class="cls-47" d="M196.63,178.74l0,.09a.34.34,0,0,0,0,.1.35.35,0,0,0,.07.21,1,1,0,0,0,.16.2,1.7,1.7,0,0,0,.19.19,1.36,1.36,0,0,1,.17.16l2.17.42v.28l-1.85-.38,1.85,1.76V182l-2.12-2-.37-.36a2.35,2.35,0,0,1-.27-.3,1.57,1.57,0,0,1-.18-.27.62.62,0,0,1-.06-.26.49.49,0,0,1,0-.12s0-.07,0-.1Z"/><path class="cls-61" d="M162.69,146.38a10.58,10.58,0,0,1-17.46,12,2.33,2.33,0,0,0,1.91.72c4.85,0,13.81-6.15,15.53-10.62A2.37,2.37,0,0,0,162.69,146.38Z"/><path class="cls-61" d="M162.67,148.45c-1.72,4.46-10.68,10.66-15.54,10.62a2.31,2.31,0,0,1-1.91-.72s0,0,0,0,0,0,0,0Q133.35,141,121.55,123.82c-1.06-1.54-2.12-3.07-3.17-4.62-2.13-3.09-4.24-6.2-6.37-9.29a11.71,11.71,0,0,0,2.3,2.4c5,4.12,14.12,6.77,20.29,5.91,1.85-.26,4.16-1,5-2.68a3.44,3.44,0,0,0-.23-3.1,5.22,5.22,0,0,0-.38-.68c.95,1.38,1.88,2.77,2.83,4.15l2,3a1.63,1.63,0,0,1,.24.91,4.63,4.63,0,0,1-.7,2.14,18.16,18.16,0,0,1-4.13,4.58q6.67,9.72,13.37,19.49c1.64-1.36,3.75-3.43,4.55-5.4a2.48,2.48,0,0,0,.06-2.17q2.7,3.92,5.39,7.85l0,.06a.05.05,0,0,1,0,0,0,0,0,0,0,0,0A2.48,2.48,0,0,1,162.67,148.45Z"/><path class="cls-62" d="M157.15,138.29l.07.11a2.53,2.53,0,0,1-.06,2.18c-.8,2-2.9,4-4.55,5.4l-13.37-19.5a18.08,18.08,0,0,0,4.13-4.56c.54-1,1-2.22.45-3.06h0q3.33,4.88,6.68,9.74Z"/><path class="cls-63" d="M117.47,103.24a30.64,30.64,0,0,1,13.76,2.81c3.38,1.51,6.22,3.5,7.66,5.61l.07.11a5.8,5.8,0,0,1,.39.67,3.49,3.49,0,0,1,.22,3.11c-.8,1.7-3.11,2.41-5,2.67-6.16.86-15.26-1.8-20.29-5.9a12.24,12.24,0,0,1-2.3-2.4,5.56,5.56,0,0,1-.91-2.08,3,3,0,0,1,.32-2C112.47,104,115.33,103.38,117.47,103.24ZM136.14,114c.47-.17.55-.54.2-.94a3.93,3.93,0,0,0-2.65-1c-.37,0-.89.08-1,.4s.09.54.29.73A3.87,3.87,0,0,0,136.14,114Zm-5.74-5.35c.5-.17.55-.55.2-.94a3.91,3.91,0,0,0-2.65-1c-1,0-1.39.5-.73,1.13A3.85,3.85,0,0,0,130.4,108.64Zm-1.21,6.26c.48-.17.55-.55.2-.94a3.93,3.93,0,0,0-2.65-1c-1,0-1.4.5-.74,1.13A3.87,3.87,0,0,0,129.19,114.9Zm-.83-3.62c.48-.16.56-.53.2-.94a4,4,0,0,0-2.65-1c-.36,0-.89.08-1,.4a.75.75,0,0,0,.29.74A3.87,3.87,0,0,0,128.36,111.28Zm-3.76,4.5c.47-.16.55-.53.2-.94a4,4,0,0,0-2.65-1c-.36,0-.89.08-1,.4s.09.54.29.74A3.87,3.87,0,0,0,124.6,115.78Zm-1-9c.48-.17.54-.54.2-.94a4,4,0,0,0-2.65-1c-.37,0-.89.08-1,.41s.09.54.29.73A3.87,3.87,0,0,0,123.63,106.76Zm-1.81,4c.49-.17.55-.54.2-.94a4,4,0,0,0-2.65-1c-.36,0-.89.08-1,.4s.09.54.29.74A3.86,3.86,0,0,0,121.82,110.76Zm-6-1.59c.48-.17.54-.55.2-.94a4,4,0,0,0-2.65-1c-.37,0-.89.07-1,.4s.09.54.29.73A3.87,3.87,0,0,0,115.82,109.17Z"/><path class="cls-64" d="M136.34,113.05c.35.4.27.77-.2.94a3.87,3.87,0,0,1-3.19-.85c-.2-.19-.4-.47-.29-.73s.66-.4,1-.4A3.93,3.93,0,0,1,136.34,113.05Z"/><path class="cls-64" d="M130.6,107.7c.35.39.3.77-.2.94a3.85,3.85,0,0,1-3.18-.85c-.66-.63-.26-1.13.73-1.13A3.91,3.91,0,0,1,130.6,107.7Z"/><path class="cls-64" d="M129.39,114c.35.39.28.77-.2.94a3.87,3.87,0,0,1-3.19-.85c-.66-.63-.25-1.13.74-1.13A3.93,3.93,0,0,1,129.39,114Z"/><path class="cls-64" d="M128.56,110.34c.36.41.28.78-.2.94a3.87,3.87,0,0,1-3.19-.84.75.75,0,0,1-.29-.74c.14-.32.67-.4,1-.4A4,4,0,0,1,128.56,110.34Z"/><path class="cls-64" d="M124.8,114.84c.35.41.27.78-.2.94a3.87,3.87,0,0,1-3.19-.84c-.2-.2-.39-.48-.29-.74s.67-.4,1-.4A4,4,0,0,1,124.8,114.84Z"/><path class="cls-64" d="M123.83,105.82c.34.4.28.77-.2.94a3.87,3.87,0,0,1-3.19-.84c-.2-.19-.4-.48-.29-.73s.66-.41,1-.41A4,4,0,0,1,123.83,105.82Z"/><path class="cls-64" d="M122,109.82c.35.4.29.77-.2.94a3.86,3.86,0,0,1-3.19-.84c-.2-.2-.39-.48-.29-.74s.67-.4,1-.4A4,4,0,0,1,122,109.82Z"/><path class="cls-64" d="M116,108.23c.34.39.28.77-.2.94a3.87,3.87,0,0,1-3.19-.85c-.2-.19-.4-.47-.29-.73s.66-.4,1-.4A4,4,0,0,1,116,108.23Z"/><polygon class="cls-21" points="177.31 170.45 177.31 205.68 146.75 223.32 146.75 188.09 177.31 170.45"/><path class="cls-3" d="M170.77,170.45l-7.13,4.12a68.3,68.3,0,0,0-.91-8.74h0Z"/><path class="cls-65" d="M137.78,147.63a14.21,14.21,0,0,0,2-10.46h0a6.64,6.64,0,0,0,.65.43,13,13,0,0,0,11.73,0,5.62,5.62,0,0,0,.65-.43c-1.57,10.61,5.38,11.39,8.93,24.34.36,1.31.68,2.74,1,4.32a68.3,68.3,0,0,1,.91,8.74l-16.89,9.75L129,174.09h0c.11-2.11.27-4.1.52-6a47.17,47.17,0,0,1,.9-5,37.23,37.23,0,0,1,3.66-9.52c.16-.29.32-.58.49-.87s.25-.42.37-.63c.35-.58.7-1.12,1-1.65C136.64,149.43,137.24,148.54,137.78,147.63Z"/><path class="cls-3" d="M152.35,124.5c1,1.53.12,3-1.46,4-2.69,1.55-7.18,1.45-9.6-.31-1.67-1.2-1.81-2.78-.7-4C143.16,121.25,150.39,121.53,152.35,124.5Z"/><polygon class="cls-3" points="146.75 188.09 146.75 223.32 93.83 192.77 93.83 157.54 146.75 188.09"/><path class="cls-2" d="M138,127.08a5.43,5.43,0,0,1,3.44-4.31c4.05-1.89,10.44-1.1,12.53,2.41a4.2,4.2,0,0,1,.61,2.16,4.24,4.24,0,0,1-2.43,3.39c-3.69,2.13-10.17,1.83-13-1a3.42,3.42,0,0,1-1.14-2.42A2.26,2.26,0,0,1,138,127.08Zm2.55-3c-1.11,1.25-1,2.83.7,4,2.42,1.76,6.91,1.86,9.6.31,1.58-.91,2.47-2.43,1.46-4C150.39,121.53,143.16,121.25,140.59,124.12Z"/><path class="cls-3" d="M139.17,129.76c2.85,2.8,9.33,3.1,13,1a4.24,4.24,0,0,0,2.43-3.39v6.87a3.79,3.79,0,0,1-1.78,3,5.62,5.62,0,0,1-.65.43,13,13,0,0,1-11.73,0,6.64,6.64,0,0,1-.65-.43,3.79,3.79,0,0,1-1.78-3v-6.87A3.42,3.42,0,0,0,139.17,129.76Z"/><path class="cls-2" d="M126.56,141.16l11.22,6.47c-.54.91-1.14,1.8-1.77,2.75l-4.44-2.55h0A78.79,78.79,0,0,0,126.56,141.16Z"/><path class="cls-3" d="M131.57,147.83l4.44,2.55c-.34.53-.69,1.07-1,1.65-.12.21-.24.42-.37.63C133.66,151,132.64,149.41,131.57,147.83Z"/><path class="cls-66" d="M130.18,149.6c1.65.47,3.07,2.45,3.93,3.93a37.23,37.23,0,0,0-3.66,9.52,15.26,15.26,0,0,1-5.49,2.21c-3.7.37-6.39-2.84-6.69-5.93s1.57-4.87,4.1-6.51c.95-.62,2.59-1.57,3.49-2.07C127.27,150,128.76,149.19,130.18,149.6Z"/><path class="cls-66" d="M129.55,168.06c-.25,1.93-.41,3.92-.52,6l-2.51-1.45h0A6.78,6.78,0,0,1,129.55,168.06Z"/><path class="cls-66" d="M125.51,140.86c.82,1.19,1.69,2.79,1.18,4.13a5.1,5.1,0,0,1-2.13,2.16,42.2,42.2,0,0,1-5.78,3.12,6.38,6.38,0,0,1-5.32.06,6.77,6.77,0,0,1-3.49-7c.45-2.3,2.28-3.66,4.27-4.88a20.88,20.88,0,0,1,4.07-2.09,4.07,4.07,0,0,1,3.83.95A16.42,16.42,0,0,1,125.51,140.86Z"/><path class="cls-62" d="M126.69,145c.51-1.34-.36-2.94-1.18-4.13a16.42,16.42,0,0,0-3.37-3.54,4.07,4.07,0,0,0-3.83-.95,20.88,20.88,0,0,0-4.07,2.09c-2,1.22-3.82,2.58-4.27,4.88a6.77,6.77,0,0,0,3.49,7,6.38,6.38,0,0,0,5.32-.06,42.2,42.2,0,0,0,5.78-3.12A5.1,5.1,0,0,0,126.69,145Zm4.88,2.84c1.07,1.58,2.09,3.2,3,4.83-.17.29-.33.58-.49.87-.86-1.48-2.28-3.46-3.93-3.93-1.42-.41-2.91.38-4.32,1.15-.9.5-2.54,1.45-3.49,2.07-2.53,1.64-4.38,3.53-4.1,6.51s3,6.3,6.69,5.93a15.26,15.26,0,0,0,5.49-2.21,47.17,47.17,0,0,0-.9,5,6.78,6.78,0,0,0-3,4.58L109.89,163a85.93,85.93,0,0,1-3.94-8.73c-.39-1-.77-2.08-1.11-3.13a46.23,46.23,0,0,1-2.27-10.54,16.82,16.82,0,0,1,1-8.07c1.87-4,5.76-4.26,9.86-2.43,4.38,1.94,8.72,6,11.91,9.59.42.47.82.94,1.23,1.43a78.79,78.79,0,0,1,5,6.66Z"/><path class="cls-21" d="M109.89,163l-9.53-5.5,5.59-3.22h0A85.93,85.93,0,0,0,109.89,163Z"/><path class="cls-2" d="M104.84,151.18c.34,1,.72,2.1,1.11,3.13h0l-5.59,3.22,9.53,5.5,16.63,9.6h0l2.51,1.45h0l17.72,10.23,16.89-9.75,7.13-4.12-8-4.62h0c-.28-1.58-.6-3-1-4.32h0l15.51,8.95-30.56,17.64L93.83,157.54l11-6.36Z"/><path class="cls-7" d="M246.33,153.28a7,7,0,0,1-3.9,5.91h0q-5.76,3.33-11.5,6.65l-3.39,2c-1.11.63-2.22,1.29-3.32,1.92q-7.41,4.29-14.83,8.55l-3,1.76-7.48,4.32-2.2,1.27c-1.11.64-2.22,1.28-3.32,1.93-5.38,3.09-10.73,6.19-16.1,9.29l-2.15,1.24-8.64,5-3,1.75-12.12,7h0l-.21.12a13.58,13.58,0,0,1-3.75,1.35,15.25,15.25,0,0,1-2.62.32,15.56,15.56,0,0,1-8.36-1.79l-5.57-3.22-3.32-1.92-13.13-7.58-1.77-1c-1.1-.65-2.21-1.28-3.32-1.92q-7.4-4.29-14.82-8.55c-1.1-.65-2.2-1.27-3.32-1.92l-9.38-5.41a8.52,8.52,0,0,1-2.78-2.48,5.89,5.89,0,0,1-1.14-3.45,7,7,0,0,1,3.92-5.92l6.55-3.78c.26,2,.54,4,.8,6l-4.56,2.63h0a3.77,3.77,0,0,0-1,.78.81.81,0,0,0-.17.32l0,.05a1.54,1.54,0,0,0,.44.57,4.18,4.18,0,0,0,.66.47h0l5.66,3.28c.12.88.24,1.79.35,2.67a1.11,1.11,0,0,1,0,.13.92.92,0,0,0,.2.46c.49.64,1.44.29,2.13-.14a3.15,3.15,0,0,0,.41-.31.7.7,0,0,0,.26-.43c0-.15,0-.32-.06-.47,3.57,2.05,7.12,4.12,10.67,6.15v0l4.14,2.38c.13.92.25,1.86.37,2.77a.85.85,0,0,0,.22.49c.49.65,1.45.29,2.12-.13a4.13,4.13,0,0,0,.42-.31.65.65,0,0,0,.26-.43c0-.15-.05-.3-.07-.47l2.71,1.57,12.2,7c.11.9.23,1.79.35,2.69,0,.05,0,.08,0,.12a1,1,0,0,0,.21.46c.48.63,1.46.29,2.13-.14.23-.15.67-.47.67-.75v0c0-.15,0-.29-.06-.42l9.31,5.37a10.75,10.75,0,0,0,9.35,0l3.68-2.13,11.22-6.49v.46c0,.46,1,.95,1.47,1.1a1.15,1.15,0,0,0,1.47-.43.87.87,0,0,0,.11-.46c0-.81,0-1.6,0-2.41l3.09-1.78q3.85-2.25,7.72-4.45,8.5-4.93,17-9.84c0,.15-.05.3-.08.46h0c0,.22.29.45.48.58a2.49,2.49,0,0,0,1.92.59,1,1,0,0,0,.63-.8v0c.12-.91.25-1.83.37-2.74l1.27-.73,3.66-2.11,16.72-9.66,5.88-3.4h0a3.07,3.07,0,0,0-.07.42c0,.23.2.46.46.64a2.57,2.57,0,0,0,1.93.58,1,1,0,0,0,.63-.79v0c.12-.9.24-1.81.37-2.72,1.1-.65,2.22-1.27,3.32-1.92,2.61-1.51,5.23-3,7.85-4.53h0a3.22,3.22,0,0,0,1-.77c.19-.23.17-.3.17-.32v0a1.85,1.85,0,0,0-.45-.59,6.19,6.19,0,0,0-.66-.45h0l-3.71-2.15,1.73-5.43c1.6.9,3.19,1.82,4.76,2.74A7,7,0,0,1,246.33,153.28Z"/><path class="cls-7" d="M163.4,198.83v-.44q0-3.54,0-7.08c0-2.51,0-5,0-7.5l3-1.75c0,3.67,0,7.33,0,11,0,1.18,0,2.38,0,3.57v2.41h0a1,1,0,0,1-.1.47c-.27.55-.88.59-1.47.42s-1.47-.64-1.47-1.1Z"/><path class="cls-7" d="M150.65,212.15a13.29,13.29,0,0,1-3.34,1.14Z"/><path class="cls-7" d="M104.47,198.91l3,1.76-6.14,3.54h0c-4,2.32-7.73.57-8.27-3.65h0l-2-14.86,3.33,1.92q.84,6.27,1.69,12.54h0a2.83,2.83,0,0,0,.69,1.64c.78.75,2.12.33,3-.21h0Z"/><path class="cls-7" d="M111.68,191.57a.63.63,0,0,1-.27.43,2.59,2.59,0,0,1-.41.31c-.68.42-1.64.77-2.13.14a1.12,1.12,0,0,1-.21-.5c-.12-.92-.25-1.84-.37-2.77l-.36-2.65c-.59-4.38-1.17-8.76-1.77-13.14l3.33,1.92h0q.92,6.85,1.84,13.69c.1.7.19,1.4.29,2.1l.06.47Z"/><path class="cls-7" d="M129.23,202.83c-.68.43-1.65.77-2.14.14a1.06,1.06,0,0,1-.2-.46.5.5,0,0,0,0-.12h0c-.11-.89-.24-1.78-.36-2.68q-1.07-7.89-2.12-15.79l3.32,1.92,2.13,15.8.06.42v0C129.9,202.37,129.47,202.68,129.23,202.83Z"/><path class="cls-7" d="M252.44,128.72a7,7,0,0,1-3.92,5.92l-14.06,8.13L230.55,145l-3.32,1.91c-2.66,1.55-5.32,3.08-8,4.62q-8.37,4.83-16.72,9.66c-1,.53-1.89,1.09-2.83,1.62l-3.32,1.93q-9.59,5.51-19.13,11l-10.84,6.26-3,1.76-6.49,3.74-4.7,2.7-.93.56a14.94,14.94,0,0,1-7.44,1.82,15.2,15.2,0,0,1-7.48-1.82h0c-2.86-1.67-5.73-3.32-8.6-5l-3.32-1.91-10.07-5.82q-2.4-1.4-4.83-2.78v0c-1.1-.62-2.22-1.27-3.32-1.91l-4.27-2.46-3.68-2.12-3-1.74-3.86-2.23c-1.1-.65-2.22-1.29-3.32-1.92-4.15-2.38-8.28-4.79-12.42-7.17a8.45,8.45,0,0,1-2.79-2.48,6.07,6.07,0,0,1-1.12-3.45,7,7,0,0,1,3.91-5.9v0Q97,131.55,118.38,119.2c1.05,1.55,2.11,3.08,3.17,4.62q-13.72,8-27.46,15.86l-2.74,1.57-13,7.49a3.25,3.25,0,0,0-1,.76c-.18.25-.17.31-.17.32s0,0,0,.06a1.89,1.89,0,0,0,.45.57,4.5,4.5,0,0,0,.67.48l16.82,9.7,5.57,3.23q6.77,3.9,13.54,7.82,12.41,7.14,24.79,14.31a10.77,10.77,0,0,0,9.36,0l3.71-2.16,25.06-14.46q10.8-6.26,21.62-12.49c1.22-.71,2.43-1.39,3.66-2.11l16.72-9.64c1.35-.8,2.71-1.58,4.07-2.36q2.79-1.61,5.57-3.22l2.25-1.3,3.28-1.89c3.78-2.18,7.54-4.37,11.32-6.54a3.66,3.66,0,0,0,1-.78c.18-.23.15-.29.15-.3v-.07a1.43,1.43,0,0,0-.44-.56,3.63,3.63,0,0,0-.68-.48l-9.65-5.57-2.88-1.67c-4.65-2.67-9.3-5.37-14-8.06V105.9l26.4,15.24c-.1.48-.23,1-.33,1.41-.16.68.06,1.59.64,1.79a4.09,4.09,0,0,0,1.79-.26,9.22,9.22,0,0,1,2-.3s.19,0,.19,0A6.5,6.5,0,0,1,252.44,128.72Z"/><path class="cls-7" d="M151.06,211.94a2.63,2.63,0,0,1-.41.21l.49-.17A.15.15,0,0,1,151.06,211.94Zm-14.85,10.64c-.94.53-2.27.94-3.05.19a2.81,2.81,0,0,1-.69-1.63c-.24-1.78-.49-3.55-.73-5.33-.32-2.42-.63-4.8-1-7.21l-3.34-1.92c.4,2.95.8,5.9,1.18,8.83.29,2,.55,4,.83,6,.55,4.22,4.31,6,8.28,3.66v0l6.13-3.53-3-1.76C139.3,220.8,137.75,221.69,136.21,222.58Zm30.25-14V205.1c0-.67,0-1.36,0-2l-3,1.75v2.05h0v3.55s0,0,0,0v6.33a2.43,2.43,0,0,1-.07.63,1.06,1.06,0,0,1-.19.43s0,.08-.07.09a.64.64,0,0,1-.46.19h-.14a4.55,4.55,0,0,1-2-.69l-.32-.17a1.08,1.08,0,0,0-.26-.14c-.2-.12-.41-.23-.61-.37l-3.17,1.69,1,.56,1.83,1.06h0c2,1.16,3.78,1.35,5.11.81a4,4,0,0,0,.55-.27,4.31,4.31,0,0,0,1.87-3.85v-4C166.48,211.36,166.46,210,166.46,208.62Z"/><path class="cls-7" d="M119.49,214.69a6,6,0,0,1-5.36.64,5.16,5.16,0,0,1-2.9-4.3h0l-1.56-11.6c-.15-1.09-.3-2.17-.44-3.26l3.32,1.92q.86,6.27,1.7,12.54h0a2.76,2.76,0,0,0,.69,1.63c.78.75,2.11.33,3-.21h0l4-3,4.38,2.53s-5.08,1.84-4.81,2c-.67.4-1.35.79-2,1.18h0Z"/><path class="cls-7" d="M196.59,182.21a2.54,2.54,0,0,1-1.93-.58c-.18-.14-.45-.37-.46-.59h0l.06-.46q1.05-7.9,2.11-15.82l3.32-1.91c-.28,2.07-.55,4.15-.83,6.23-.43,3.19-.85,6.39-1.28,9.58l-.36,2.74v0A1,1,0,0,1,196.59,182.21Z"/><path class="cls-7" d="M227.46,164.39a2.54,2.54,0,0,1-1.93-.58c-.25-.19-.5-.41-.45-.65s0-.27,0-.41c.7-5.27,1.41-10.55,2.1-15.82l3.33-1.92-.24,1.8q-.75,5.67-1.51,11.32l-.36,2.7-.36,2.72a.07.07,0,0,1,0,0A1,1,0,0,1,227.46,164.39Z"/></g></g></g></svg>